solid enclosure
facet normal 0.0 0.0 1.0
  outer loop
    vertex 45.0 0.0 16.5
    vertex 1.200000000000002 1.200000000000001 16.5
    vertex 0.9999999999999999 0.0 16.5
  endloop
endfacet
facet normal 0.0 0.0 1.0
  outer loop
    vertex 1.200000000000002 1.200000000000001 16.5
    vertex 45.0 0.0 16.5
    vertex 44.8 1.200000000000001 16.5
  endloop
endfacet
facet normal 0.0 0.0 1.0
  outer loop
    vertex 44.8 1.200000000000001 16.5
    vertex 45.0 0.0 16.5
    vertex 44.8 30.799999999999994 16.5
  endloop
endfacet
facet normal 0.0 0.0 1.0
  outer loop
    vertex 0.03407417371093175 0.7411809548974784 16.5
    vertex 0.0 31.0 16.5
    vertex 0.0 0.999999999999999 16.5
  endloop
endfacet
facet normal 0.0 0.0 1.0
  outer loop
    vertex 0.0 31.0 16.5
    vertex 0.03407417371093175 0.7411809548974784 16.5
    vertex 0.03407417371093158 31.258819045102523 16.5
  endloop
endfacet
facet normal 0.0 0.0 1.0
  outer loop
    vertex 0.03407417371093158 31.258819045102523 16.5
    vertex 0.03407417371093175 0.7411809548974784 16.5
    vertex 0.13397459621556113 31.5 16.5
  endloop
endfacet
facet normal 0.0 0.0 1.0
  outer loop
    vertex 0.13397459621556113 31.5 16.5
    vertex 0.03407417371093175 0.7411809548974784 16.5
    vertex 0.1339745962155613 0.49999999999999944 16.5
  endloop
endfacet
facet normal 0.0 0.0 1.0
  outer loop
    vertex 0.13397459621556113 31.5 16.5
    vertex 0.1339745962155613 0.49999999999999944 16.5
    vertex 0.29289321881345215 31.707106781186543 16.5
  endloop
endfacet
facet normal 0.0 0.0 1.0
  outer loop
    vertex 0.29289321881345215 31.707106781186543 16.5
    vertex 0.1339745962155613 0.49999999999999944 16.5
    vertex 0.2928932188134525 0.29289321881345215 16.5
  endloop
endfacet
facet normal 0.0 0.0 1.0
  outer loop
    vertex 0.29289321881345215 31.707106781186543 16.5
    vertex 0.2928932188134525 0.29289321881345215 16.5
    vertex 0.49999999999999933 31.866025403784437 16.5
  endloop
endfacet
facet normal 0.0 0.0 1.0
  outer loop
    vertex 0.49999999999999933 31.866025403784437 16.5
    vertex 0.2928932188134525 0.29289321881345215 16.5
    vertex 0.49999999999999994 0.13397459621556113 16.5
  endloop
endfacet
facet normal 0.0 0.0 1.0
  outer loop
    vertex 0.49999999999999933 31.866025403784437 16.5
    vertex 0.49999999999999994 0.13397459621556113 16.5
    vertex 0.7411809548974783 31.965925826289066 16.5
  endloop
endfacet
facet normal 0.0 0.0 1.0
  outer loop
    vertex 0.7411809548974783 31.965925826289066 16.5
    vertex 0.49999999999999994 0.13397459621556113 16.5
    vertex 0.7411809548974791 0.03407417371093158 16.5
  endloop
endfacet
facet normal 0.0 0.0 1.0
  outer loop
    vertex 0.7411809548974783 31.965925826289066 16.5
    vertex 0.7411809548974791 0.03407417371093158 16.5
    vertex 0.999999999999999 31.999999999999996 16.5
  endloop
endfacet
facet normal 0.0 0.0 1.0
  outer loop
    vertex 0.999999999999999 31.999999999999996 16.5
    vertex 0.7411809548974791 0.03407417371093158 16.5
    vertex 0.9999999999999999 0.0 16.5
  endloop
endfacet
facet normal 0.0 0.0 1.0
  outer loop
    vertex 0.999999999999999 31.999999999999996 16.5
    vertex 0.9999999999999999 0.0 16.5
    vertex 1.200000000000002 30.799999999999994 16.5
  endloop
endfacet
facet normal 0.0 0.0 1.0
  outer loop
    vertex 0.999999999999999 31.999999999999996 16.5
    vertex 1.200000000000002 30.799999999999994 16.5
    vertex 45.0 31.999999999999996 16.5
  endloop
endfacet
facet normal 0.0 0.0 1.0
  outer loop
    vertex 1.200000000000002 30.799999999999994 16.5
    vertex 0.9999999999999999 0.0 16.5
    vertex 1.200000000000002 1.200000000000001 16.5
  endloop
endfacet
facet normal 0.0 0.0 1.0
  outer loop
    vertex 45.0 31.999999999999996 16.5
    vertex 1.200000000000002 30.799999999999994 16.5
    vertex 44.8 30.799999999999994 16.5
  endloop
endfacet
facet normal 0.0 0.0 1.0
  outer loop
    vertex 45.0 31.999999999999996 16.5
    vertex 44.8 30.799999999999994 16.5
    vertex 45.0 0.0 16.5
  endloop
endfacet
facet normal 0.0 0.0 1.0
  outer loop
    vertex 45.0 31.999999999999996 16.5
    vertex 45.0 0.0 16.5
    vertex 45.25881904510253 0.03407417371093175 16.5
  endloop
endfacet
facet normal 0.0 0.0 1.0
  outer loop
    vertex 45.0 31.999999999999996 16.5
    vertex 45.25881904510253 0.03407417371093175 16.5
    vertex 45.25881904510253 31.965925826289066 16.5
  endloop
endfacet
facet normal 0.0 0.0 1.0
  outer loop
    vertex 45.25881904510253 31.965925826289066 16.5
    vertex 45.25881904510253 0.03407417371093175 16.5
    vertex 45.5 0.1339745962155613 16.5
  endloop
endfacet
facet normal 0.0 0.0 1.0
  outer loop
    vertex 45.25881904510253 31.965925826289066 16.5
    vertex 45.5 0.1339745962155613 16.5
    vertex 45.5 31.866025403784437 16.5
  endloop
endfacet
facet normal 0.0 0.0 1.0
  outer loop
    vertex 45.5 31.866025403784437 16.5
    vertex 45.5 0.1339745962155613 16.5
    vertex 45.707106781186546 0.2928932188134523 16.5
  endloop
endfacet
facet normal 0.0 0.0 1.0
  outer loop
    vertex 45.5 31.866025403784437 16.5
    vertex 45.707106781186546 0.2928932188134523 16.5
    vertex 45.707106781186546 31.707106781186543 16.5
  endloop
endfacet
facet normal 0.0 0.0 1.0
  outer loop
    vertex 45.707106781186546 31.707106781186543 16.5
    vertex 45.707106781186546 0.2928932188134523 16.5
    vertex 45.86602540378444 0.4999999999999998 16.5
  endloop
endfacet
facet normal 0.0 0.0 1.0
  outer loop
    vertex 45.707106781186546 31.707106781186543 16.5
    vertex 45.86602540378444 0.4999999999999998 16.5
    vertex 45.86602540378444 31.5 16.5
  endloop
endfacet
facet normal 0.0 0.0 1.0
  outer loop
    vertex 45.86602540378444 31.5 16.5
    vertex 45.86602540378444 0.4999999999999998 16.5
    vertex 45.965925826289066 0.7411809548974788 16.5
  endloop
endfacet
facet normal 0.0 0.0 1.0
  outer loop
    vertex 45.86602540378444 31.5 16.5
    vertex 45.965925826289066 0.7411809548974788 16.5
    vertex 45.965925826289066 31.258819045102523 16.5
  endloop
endfacet
facet normal 0.0 0.0 1.0
  outer loop
    vertex 45.965925826289066 31.258819045102523 16.5
    vertex 45.965925826289066 0.7411809548974788 16.5
    vertex 46.0 0.9999999999999999 16.5
  endloop
endfacet
facet normal 0.0 0.0 1.0
  outer loop
    vertex 45.965925826289066 31.258819045102523 16.5
    vertex 46.0 0.9999999999999999 16.5
    vertex 46.0 31.0 16.5
  endloop
endfacet
facet normal 0.38268343236509345 -0.9238795325112854 0.0
  outer loop
    vertex 45.5 0.1339745962155613 16.5
    vertex 45.25881904510253 0.03407417371093175 0.0
    vertex 45.5 0.1339745962155613 0.0
  endloop
endfacet
facet normal 0.38268343236509345 -0.9238795325112854 0.0
  outer loop
    vertex 45.25881904510253 0.03407417371093175 0.0
    vertex 45.5 0.1339745962155613 16.5
    vertex 45.25881904510253 0.03407417371093175 16.5
  endloop
endfacet
facet normal 0.6087614290087366 0.7933533402912228 -0.0
  outer loop
    vertex 45.5 31.866025403784437 16.5
    vertex 45.707106781186546 31.707106781186543 0.0
    vertex 45.5 31.866025403784437 0.0
  endloop
endfacet
facet normal 0.6087614290087366 0.7933533402912228 -0.0
  outer loop
    vertex 45.707106781186546 31.707106781186543 0.0
    vertex 45.5 31.866025403784437 16.5
    vertex 45.707106781186546 31.707106781186543 16.5
  endloop
endfacet
facet normal 0.38268343236508595 0.9238795325112884 -0.0
  outer loop
    vertex 45.25881904510253 31.965925826289066 16.5
    vertex 45.5 31.866025403784437 0.0
    vertex 45.25881904510253 31.965925826289066 0.0
  endloop
endfacet
facet normal 0.38268343236508595 0.9238795325112884 -0.0
  outer loop
    vertex 45.5 31.866025403784437 0.0
    vertex 45.25881904510253 31.965925826289066 16.5
    vertex 45.5 31.866025403784437 16.5
  endloop
endfacet
facet normal 0.6087614290087259 -0.7933533402912312 0.0
  outer loop
    vertex 45.707106781186546 0.2928932188134523 16.5
    vertex 45.5 0.1339745962155613 0.0
    vertex 45.707106781186546 0.2928932188134523 0.0
  endloop
endfacet
facet normal 0.6087614290087259 -0.7933533402912312 0.0
  outer loop
    vertex 45.5 0.1339745962155613 0.0
    vertex 45.707106781186546 0.2928932188134523 16.5
    vertex 45.5 0.1339745962155613 16.5
  endloop
endfacet
facet normal 0.92387953251129 -0.38268343236508223 -0.0
  outer loop
    vertex 45.965925826289066 0.7411809548974788 0.0
    vertex 45.86602540378444 0.4999999999999998 16.5
    vertex 45.86602540378444 0.4999999999999998 0.0
  endloop
endfacet
facet normal 0.92387953251129 -0.38268343236508223 -0.0
  outer loop
    vertex 45.86602540378444 0.4999999999999998 16.5
    vertex 45.965925826289066 0.7411809548974788 0.0
    vertex 45.965925826289066 0.7411809548974788 16.5
  endloop
endfacet
facet normal 1.0 -0.0 -0.0
  outer loop
    vertex 46.0 0.9999999999999999 0.0
    vertex 46.0 9.999999999999998 5.5
    vertex 46.0 0.9999999999999999 16.5
  endloop
endfacet
facet normal 1.0 -0.0 -0.0
  outer loop
    vertex 46.0 9.999999999999998 5.5
    vertex 46.0 0.9999999999999999 0.0
    vertex 46.0 31.0 0.0
  endloop
endfacet
facet normal 1.0 -0.0 -0.0
  outer loop
    vertex 46.0 9.999999999999998 5.5
    vertex 46.0 31.0 0.0
    vertex 46.0 22.0 5.5
  endloop
endfacet
facet normal 1.0 -0.0 -0.0
  outer loop
    vertex 46.0 22.0 5.5
    vertex 46.0 31.0 0.0
    vertex 46.00000000000001 22.0 12.499999999999998
  endloop
endfacet
facet normal 1.0 -0.0 -0.0
  outer loop
    vertex 46.0 0.9999999999999999 16.5
    vertex 46.00000000000001 9.999999999999998 12.499999999999998
    vertex 46.0 31.0 16.5
  endloop
endfacet
facet normal 1.0 -0.0 -0.0
  outer loop
    vertex 46.00000000000001 9.999999999999998 12.499999999999998
    vertex 46.0 0.9999999999999999 16.5
    vertex 46.0 9.999999999999998 5.5
  endloop
endfacet
facet normal 1.0 -0.0 -0.0
  outer loop
    vertex 46.0 31.0 16.5
    vertex 46.00000000000001 9.999999999999998 12.499999999999998
    vertex 46.00000000000001 22.0 12.499999999999998
  endloop
endfacet
facet normal 1.0 -0.0 -0.0
  outer loop
    vertex 46.0 31.0 16.5
    vertex 46.00000000000001 22.0 12.499999999999998
    vertex 46.0 31.0 0.0
  endloop
endfacet
facet normal 0.9914448613738105 0.13052619222005077 -0.0
  outer loop
    vertex 45.965925826289066 31.258819045102523 0.0
    vertex 46.0 31.0 16.5
    vertex 46.0 31.0 0.0
  endloop
endfacet
facet normal 0.9914448613738105 0.13052619222005077 -0.0
  outer loop
    vertex 46.0 31.0 16.5
    vertex 45.965925826289066 31.258819045102523 0.0
    vertex 45.965925826289066 31.258819045102523 16.5
  endloop
endfacet
facet normal 0.9238795325112884 0.38268343236508595 -0.0
  outer loop
    vertex 45.86602540378444 31.5 0.0
    vertex 45.965925826289066 31.258819045102523 16.5
    vertex 45.965925826289066 31.258819045102523 0.0
  endloop
endfacet
facet normal 0.9238795325112884 0.38268343236508595 -0.0
  outer loop
    vertex 45.965925826289066 31.258819045102523 16.5
    vertex 45.86602540378444 31.5 0.0
    vertex 45.86602540378444 31.5 16.5
  endloop
endfacet
facet normal 0.7933533402912228 0.6087614290087366 -0.0
  outer loop
    vertex 45.707106781186546 31.707106781186543 0.0
    vertex 45.86602540378444 31.5 16.5
    vertex 45.86602540378444 31.5 0.0
  endloop
endfacet
facet normal 0.7933533402912228 0.6087614290087366 -0.0
  outer loop
    vertex 45.86602540378444 31.5 16.5
    vertex 45.707106781186546 31.707106781186543 0.0
    vertex 45.707106781186546 31.707106781186543 16.5
  endloop
endfacet
facet normal 0.13052619222005077 0.9914448613738105 -0.0
  outer loop
    vertex 45.0 31.999999999999996 16.5
    vertex 45.25881904510253 31.965925826289066 0.0
    vertex 45.0 31.999999999999996 0.0
  endloop
endfacet
facet normal 0.13052619222005077 0.9914448613738105 -0.0
  outer loop
    vertex 45.25881904510253 31.965925826289066 0.0
    vertex 45.0 31.999999999999996 16.5
    vertex 45.25881904510253 31.965925826289066 16.5
  endloop
endfacet
facet normal 0.0 -1.0 0.0
  outer loop
    vertex 45.0 0.0 16.5
    vertex 0.9999999999999999 0.0 0.0
    vertex 45.0 0.0 0.0
  endloop
endfacet
facet normal 0.0 -1.0 0.0
  outer loop
    vertex 0.9999999999999999 0.0 0.0
    vertex 45.0 0.0 16.5
    vertex 0.9999999999999999 0.0 16.5
  endloop
endfacet
facet normal -0.0 1.0 -0.0
  outer loop
    vertex 0.999999999999999 31.999999999999996 16.5
    vertex 45.0 31.999999999999996 0.0
    vertex 0.999999999999999 31.999999999999996 0.0
  endloop
endfacet
facet normal -0.0 1.0 -0.0
  outer loop
    vertex 45.0 31.999999999999996 0.0
    vertex 0.999999999999999 31.999999999999996 16.5
    vertex 45.0 31.999999999999996 16.5
  endloop
endfacet
facet normal 0.13052619222005077 -0.9914448613738105 0.0
  outer loop
    vertex 45.25881904510253 0.03407417371093175 16.5
    vertex 45.0 0.0 0.0
    vertex 45.25881904510253 0.03407417371093175 0.0
  endloop
endfacet
facet normal 0.13052619222005077 -0.9914448613738105 0.0
  outer loop
    vertex 45.0 0.0 0.0
    vertex 45.25881904510253 0.03407417371093175 16.5
    vertex 45.0 0.0 16.5
  endloop
endfacet
facet normal -0.3826834323650825 0.92387953251129 -0.0
  outer loop
    vertex 0.49999999999999933 31.866025403784437 16.5
    vertex 0.7411809548974783 31.965925826289066 0.0
    vertex 0.49999999999999933 31.866025403784437 0.0
  endloop
endfacet
facet normal -0.3826834323650825 0.92387953251129 -0.0
  outer loop
    vertex 0.7411809548974783 31.965925826289066 0.0
    vertex 0.49999999999999933 31.866025403784437 16.5
    vertex 0.7411809548974783 31.965925826289066 16.5
  endloop
endfacet
facet normal -0.6087614290087319 0.7933533402912266 -0.0
  outer loop
    vertex 0.29289321881345215 31.707106781186543 16.5
    vertex 0.49999999999999933 31.866025403784437 0.0
    vertex 0.29289321881345215 31.707106781186543 0.0
  endloop
endfacet
facet normal -0.6087614290087319 0.7933533402912266 -0.0
  outer loop
    vertex 0.49999999999999933 31.866025403784437 0.0
    vertex 0.29289321881345215 31.707106781186543 16.5
    vertex 0.49999999999999933 31.866025403784437 16.5
  endloop
endfacet
facet normal -0.1305261922200517 0.9914448613738105 -0.0
  outer loop
    vertex 0.7411809548974783 31.965925826289066 16.5
    vertex 0.999999999999999 31.999999999999996 0.0
    vertex 0.7411809548974783 31.965925826289066 0.0
  endloop
endfacet
facet normal -0.1305261922200517 0.9914448613738105 -0.0
  outer loop
    vertex 0.999999999999999 31.999999999999996 0.0
    vertex 0.7411809548974783 31.965925826289066 16.5
    vertex 0.999999999999999 31.999999999999996 16.5
  endloop
endfacet
facet normal 0.9914448613738105 -0.1305261922200516 -0.0
  outer loop
    vertex 46.0 0.9999999999999999 0.0
    vertex 45.965925826289066 0.7411809548974788 16.5
    vertex 45.965925826289066 0.7411809548974788 0.0
  endloop
endfacet
facet normal 0.9914448613738105 -0.1305261922200516 -0.0
  outer loop
    vertex 45.965925826289066 0.7411809548974788 16.5
    vertex 46.0 0.9999999999999999 0.0
    vertex 46.0 0.9999999999999999 16.5
  endloop
endfacet
facet normal 0.793353340291227 -0.6087614290087314 -0.0
  outer loop
    vertex 45.86602540378444 0.4999999999999998 0.0
    vertex 45.707106781186546 0.2928932188134523 16.5
    vertex 45.707106781186546 0.2928932188134523 0.0
  endloop
endfacet
facet normal 0.793353340291227 -0.6087614290087314 -0.0
  outer loop
    vertex 45.707106781186546 0.2928932188134523 16.5
    vertex 45.86602540378444 0.4999999999999998 0.0
    vertex 45.86602540378444 0.4999999999999998 16.5
  endloop
endfacet
facet normal -1.0 0.0 0.0
  outer loop
    vertex 0.0 31.0 16.5
    vertex 0.0 0.999999999999999 0.0
    vertex 0.0 0.999999999999999 16.5
  endloop
endfacet
facet normal -1.0 0.0 0.0
  outer loop
    vertex 0.0 0.999999999999999 0.0
    vertex 0.0 31.0 16.5
    vertex 0.0 31.0 0.0
  endloop
endfacet
facet normal -0.6087614290087204 -0.7933533402912353 0.0
  outer loop
    vertex 0.49999999999999994 0.13397459621556113 16.5
    vertex 0.2928932188134525 0.29289321881345215 0.0
    vertex 0.49999999999999994 0.13397459621556113 0.0
  endloop
endfacet
facet normal -0.6087614290087204 -0.7933533402912353 0.0
  outer loop
    vertex 0.2928932188134525 0.29289321881345215 0.0
    vertex 0.49999999999999994 0.13397459621556113 16.5
    vertex 0.2928932188134525 0.29289321881345215 16.5
  endloop
endfacet
facet normal -0.9914448613738107 0.1305261922200501 0.0
  outer loop
    vertex 0.03407417371093158 31.258819045102523 16.5
    vertex 0.0 31.0 0.0
    vertex 0.0 31.0 16.5
  endloop
endfacet
facet normal -0.9914448613738107 0.1305261922200501 0.0
  outer loop
    vertex 0.0 31.0 0.0
    vertex 0.03407417371093158 31.258819045102523 16.5
    vertex 0.03407417371093158 31.258819045102523 0.0
  endloop
endfacet
facet normal 1.0 -1.0217269864303978e-16 0.0
  outer loop
    vertex 2.0000000000000036 29.999999999999996 2.500000000000001
    vertex 2.000000000000001 2.000000000000001 8.600000000000003
    vertex 2.000000000000001 2.000000000000001 2.500000000000001
  endloop
endfacet
facet normal 1.0 -1.0217269864303978e-16 0.0
  outer loop
    vertex 2.000000000000001 2.000000000000001 8.600000000000003
    vertex 2.0000000000000036 29.999999999999996 2.500000000000001
    vertex 2.0000000000000036 29.999999999999996 8.600000000000003
  endloop
endfacet
facet normal 8.001825702432155e-18 3.2561535197777854e-33 1.0
  outer loop
    vertex 1.200000000000002 1.200000000000001 8.600000000000003
    vertex 2.000000000000001 2.000000000000001 8.600000000000003
    vertex 1.200000000000002 30.799999999999994 8.600000000000003
  endloop
endfacet
facet normal 8.001825702432155e-18 3.2561535197777854e-33 1.0
  outer loop
    vertex 2.000000000000001 2.000000000000001 8.600000000000003
    vertex 1.200000000000002 1.200000000000001 8.600000000000003
    vertex 44.8 1.200000000000001 8.600000000000003
  endloop
endfacet
facet normal 8.001825702432155e-18 3.2561535197777854e-33 1.0
  outer loop
    vertex 2.000000000000001 2.000000000000001 8.600000000000003
    vertex 44.8 1.200000000000001 8.600000000000003
    vertex 44.0 1.9999999999999996 8.600000000000003
  endloop
endfacet
facet normal 8.001825702432155e-18 3.2561535197777854e-33 1.0
  outer loop
    vertex 44.0 1.9999999999999996 8.600000000000003
    vertex 44.8 1.200000000000001 8.600000000000003
    vertex 44.0 9.999999999999998 8.600000000000001
  endloop
endfacet
facet normal 8.001825702432155e-18 3.2561535197777854e-33 1.0
  outer loop
    vertex 44.0 9.999999999999998 8.600000000000001
    vertex 44.8 1.200000000000001 8.600000000000003
    vertex 44.8 9.999999999999998 8.600000000000003
  endloop
endfacet
facet normal 8.001825702432155e-18 3.2561535197777854e-33 1.0
  outer loop
    vertex 44.8 21.999999999999993 8.600000000000003
    vertex 44.0 29.999999999999996 8.600000000000003
    vertex 44.0 22.0 8.600000000000001
  endloop
endfacet
facet normal 8.001825702432155e-18 3.2561535197777854e-33 1.0
  outer loop
    vertex 1.200000000000002 30.799999999999994 8.600000000000003
    vertex 2.0000000000000036 29.999999999999996 8.600000000000003
    vertex 44.8 30.799999999999994 8.600000000000003
  endloop
endfacet
facet normal 8.001825702432155e-18 3.2561535197777854e-33 1.0
  outer loop
    vertex 2.0000000000000036 29.999999999999996 8.600000000000003
    vertex 1.200000000000002 30.799999999999994 8.600000000000003
    vertex 2.000000000000001 2.000000000000001 8.600000000000003
  endloop
endfacet
facet normal 8.001825702432155e-18 3.2561535197777854e-33 1.0
  outer loop
    vertex 44.8 30.799999999999994 8.600000000000003
    vertex 2.0000000000000036 29.999999999999996 8.600000000000003
    vertex 44.0 29.999999999999996 8.600000000000003
  endloop
endfacet
facet normal 8.001825702432155e-18 3.2561535197777854e-33 1.0
  outer loop
    vertex 44.8 30.799999999999994 8.600000000000003
    vertex 44.0 29.999999999999996 8.600000000000003
    vertex 44.8 21.999999999999993 8.600000000000003
  endloop
endfacet
facet normal -0.13052619222005105 -0.9914448613738105 0.0
  outer loop
    vertex 0.9999999999999999 0.0 16.5
    vertex 0.7411809548974791 0.03407417371093158 0.0
    vertex 0.9999999999999999 0.0 0.0
  endloop
endfacet
facet normal -0.13052619222005105 -0.9914448613738105 0.0
  outer loop
    vertex 0.7411809548974791 0.03407417371093158 0.0
    vertex 0.9999999999999999 0.0 16.5
    vertex 0.7411809548974791 0.03407417371093158 16.5
  endloop
endfacet
facet normal 3.3893827915239157e-17 1.0 0.0
  outer loop
    vertex 2.000000000000001 2.000000000000001 8.600000000000003
    vertex 44.0 1.9999999999999996 2.500000000000001
    vertex 2.000000000000001 2.000000000000001 2.500000000000001
  endloop
endfacet
facet normal 3.3893827915239157e-17 1.0 0.0
  outer loop
    vertex 44.0 1.9999999999999996 2.500000000000001
    vertex 2.000000000000001 2.000000000000001 8.600000000000003
    vertex 44.0 1.9999999999999996 8.600000000000003
  endloop
endfacet
facet normal -0.9914448613738105 -0.13052619222005182 0.0
  outer loop
    vertex 0.0 0.999999999999999 16.5
    vertex 0.03407417371093175 0.7411809548974784 0.0
    vertex 0.03407417371093175 0.7411809548974784 16.5
  endloop
endfacet
facet normal -0.9914448613738105 -0.13052619222005182 0.0
  outer loop
    vertex 0.03407417371093175 0.7411809548974784 0.0
    vertex 0.0 0.999999999999999 16.5
    vertex 0.0 0.999999999999999 0.0
  endloop
endfacet
facet normal -0.9238795325112854 0.38268343236509345 0.0
  outer loop
    vertex 0.13397459621556113 31.5 16.5
    vertex 0.03407417371093158 31.258819045102523 0.0
    vertex 0.03407417371093158 31.258819045102523 16.5
  endloop
endfacet
facet normal -0.9238795325112854 0.38268343236509345 0.0
  outer loop
    vertex 0.03407417371093158 31.258819045102523 0.0
    vertex 0.13397459621556113 31.5 16.5
    vertex 0.13397459621556113 31.5 0.0
  endloop
endfacet
facet normal -0.7933533402912312 0.6087614290087259 0.0
  outer loop
    vertex 0.29289321881345215 31.707106781186543 16.5
    vertex 0.13397459621556113 31.5 0.0
    vertex 0.13397459621556113 31.5 16.5
  endloop
endfacet
facet normal -0.7933533402912312 0.6087614290087259 0.0
  outer loop
    vertex 0.13397459621556113 31.5 0.0
    vertex 0.29289321881345215 31.707106781186543 16.5
    vertex 0.29289321881345215 31.707106781186543 0.0
  endloop
endfacet
facet normal -0.38268343236508956 -0.9238795325112868 0.0
  outer loop
    vertex 0.7411809548974791 0.03407417371093158 16.5
    vertex 0.49999999999999994 0.13397459621556113 0.0
    vertex 0.7411809548974791 0.03407417371093158 0.0
  endloop
endfacet
facet normal -0.38268343236508956 -0.9238795325112868 0.0
  outer loop
    vertex 0.49999999999999994 0.13397459621556113 0.0
    vertex 0.7411809548974791 0.03407417371093158 16.5
    vertex 0.49999999999999994 0.13397459621556113 16.5
  endloop
endfacet
facet normal 0.0 0.0 -1.0
  outer loop
    vertex 0.03407417371093158 31.258819045102523 0.0
    vertex 0.0 0.999999999999999 0.0
    vertex 0.0 31.0 0.0
  endloop
endfacet
facet normal 0.0 0.0 -1.0
  outer loop
    vertex 0.0 0.999999999999999 0.0
    vertex 0.03407417371093158 31.258819045102523 0.0
    vertex 0.03407417371093175 0.7411809548974784 0.0
  endloop
endfacet
facet normal 0.0 0.0 -1.0
  outer loop
    vertex 0.03407417371093175 0.7411809548974784 0.0
    vertex 0.03407417371093158 31.258819045102523 0.0
    vertex 0.13397459621556113 31.5 0.0
  endloop
endfacet
facet normal 0.0 0.0 -1.0
  outer loop
    vertex 0.03407417371093175 0.7411809548974784 0.0
    vertex 0.13397459621556113 31.5 0.0
    vertex 0.1339745962155613 0.49999999999999944 0.0
  endloop
endfacet
facet normal 0.0 0.0 -1.0
  outer loop
    vertex 0.1339745962155613 0.49999999999999944 0.0
    vertex 0.13397459621556113 31.5 0.0
    vertex 0.29289321881345215 31.707106781186543 0.0
  endloop
endfacet
facet normal 0.0 0.0 -1.0
  outer loop
    vertex 0.1339745962155613 0.49999999999999944 0.0
    vertex 0.29289321881345215 31.707106781186543 0.0
    vertex 0.2928932188134525 0.29289321881345215 0.0
  endloop
endfacet
facet normal 0.0 0.0 -1.0
  outer loop
    vertex 0.2928932188134525 0.29289321881345215 0.0
    vertex 0.29289321881345215 31.707106781186543 0.0
    vertex 0.49999999999999933 31.866025403784437 0.0
  endloop
endfacet
facet normal 0.0 0.0 -1.0
  outer loop
    vertex 0.2928932188134525 0.29289321881345215 0.0
    vertex 0.49999999999999933 31.866025403784437 0.0
    vertex 0.49999999999999994 0.13397459621556113 0.0
  endloop
endfacet
facet normal 0.0 0.0 -1.0
  outer loop
    vertex 0.49999999999999994 0.13397459621556113 0.0
    vertex 0.49999999999999933 31.866025403784437 0.0
    vertex 0.7411809548974783 31.965925826289066 0.0
  endloop
endfacet
facet normal 0.0 0.0 -1.0
  outer loop
    vertex 0.49999999999999994 0.13397459621556113 0.0
    vertex 0.7411809548974783 31.965925826289066 0.0
    vertex 0.7411809548974791 0.03407417371093158 0.0
  endloop
endfacet
facet normal 0.0 0.0 -1.0
  outer loop
    vertex 0.7411809548974791 0.03407417371093158 0.0
    vertex 0.7411809548974783 31.965925826289066 0.0
    vertex 0.999999999999999 31.999999999999996 0.0
  endloop
endfacet
facet normal 0.0 0.0 -1.0
  outer loop
    vertex 0.7411809548974791 0.03407417371093158 0.0
    vertex 0.999999999999999 31.999999999999996 0.0
    vertex 0.9999999999999999 0.0 0.0
  endloop
endfacet
facet normal 0.0 0.0 -1.0
  outer loop
    vertex 0.9999999999999999 0.0 0.0
    vertex 0.999999999999999 31.999999999999996 0.0
    vertex 45.0 31.999999999999996 0.0
  endloop
endfacet
facet normal 0.0 0.0 -1.0
  outer loop
    vertex 0.9999999999999999 0.0 0.0
    vertex 45.0 31.999999999999996 0.0
    vertex 45.0 0.0 0.0
  endloop
endfacet
facet normal 0.0 0.0 -1.0
  outer loop
    vertex 45.0 0.0 0.0
    vertex 45.0 31.999999999999996 0.0
    vertex 45.25881904510253 31.965925826289066 0.0
  endloop
endfacet
facet normal 0.0 0.0 -1.0
  outer loop
    vertex 45.0 0.0 0.0
    vertex 45.25881904510253 31.965925826289066 0.0
    vertex 45.25881904510253 0.03407417371093175 0.0
  endloop
endfacet
facet normal 0.0 0.0 -1.0
  outer loop
    vertex 45.25881904510253 0.03407417371093175 0.0
    vertex 45.25881904510253 31.965925826289066 0.0
    vertex 45.5 31.866025403784437 0.0
  endloop
endfacet
facet normal 0.0 0.0 -1.0
  outer loop
    vertex 45.25881904510253 0.03407417371093175 0.0
    vertex 45.5 31.866025403784437 0.0
    vertex 45.5 0.1339745962155613 0.0
  endloop
endfacet
facet normal 0.0 0.0 -1.0
  outer loop
    vertex 45.5 0.1339745962155613 0.0
    vertex 45.5 31.866025403784437 0.0
    vertex 45.707106781186546 31.707106781186543 0.0
  endloop
endfacet
facet normal 0.0 0.0 -1.0
  outer loop
    vertex 45.5 0.1339745962155613 0.0
    vertex 45.707106781186546 31.707106781186543 0.0
    vertex 45.707106781186546 0.2928932188134523 0.0
  endloop
endfacet
facet normal 0.0 0.0 -1.0
  outer loop
    vertex 45.707106781186546 0.2928932188134523 0.0
    vertex 45.707106781186546 31.707106781186543 0.0
    vertex 45.86602540378444 31.5 0.0
  endloop
endfacet
facet normal 0.0 0.0 -1.0
  outer loop
    vertex 45.707106781186546 0.2928932188134523 0.0
    vertex 45.86602540378444 31.5 0.0
    vertex 45.86602540378444 0.4999999999999998 0.0
  endloop
endfacet
facet normal 0.0 0.0 -1.0
  outer loop
    vertex 45.86602540378444 0.4999999999999998 0.0
    vertex 45.86602540378444 31.5 0.0
    vertex 45.965925826289066 31.258819045102523 0.0
  endloop
endfacet
facet normal 0.0 0.0 -1.0
  outer loop
    vertex 45.86602540378444 0.4999999999999998 0.0
    vertex 45.965925826289066 31.258819045102523 0.0
    vertex 45.965925826289066 0.7411809548974788 0.0
  endloop
endfacet
facet normal 0.0 0.0 -1.0
  outer loop
    vertex 45.965925826289066 0.7411809548974788 0.0
    vertex 45.965925826289066 31.258819045102523 0.0
    vertex 46.0 31.0 0.0
  endloop
endfacet
facet normal 0.0 0.0 -1.0
  outer loop
    vertex 45.965925826289066 0.7411809548974788 0.0
    vertex 46.0 31.0 0.0
    vertex 46.0 0.9999999999999999 0.0
  endloop
endfacet
facet normal 0.0 0.0 1.0
  outer loop
    vertex 44.0 1.9999999999999996 2.500000000000001
    vertex 2.0000000000000036 29.999999999999996 2.500000000000001
    vertex 2.000000000000001 2.000000000000001 2.500000000000001
  endloop
endfacet
facet normal 0.0 0.0 1.0
  outer loop
    vertex 2.0000000000000036 29.999999999999996 2.500000000000001
    vertex 44.0 1.9999999999999996 2.500000000000001
    vertex 44.0 29.999999999999996 2.500000000000001
  endloop
endfacet
facet normal -0.0 -1.0 -0.0
  outer loop
    vertex 44.8 30.799999999999994 16.5
    vertex 1.200000000000002 30.799999999999994 8.600000000000003
    vertex 44.8 30.799999999999994 8.600000000000003
  endloop
endfacet
facet normal -0.0 -1.0 -0.0
  outer loop
    vertex 1.200000000000002 30.799999999999994 8.600000000000003
    vertex 44.8 30.799999999999994 16.5
    vertex 1.200000000000002 30.799999999999994 16.5
  endloop
endfacet
facet normal -1.0 0.0 0.0
  outer loop
    vertex 44.8 1.200000000000001 16.5
    vertex 44.800000000000004 9.999999999999998 12.500000000000002
    vertex 44.8 1.200000000000001 8.600000000000003
  endloop
endfacet
facet normal -1.0 0.0 0.0
  outer loop
    vertex 44.800000000000004 9.999999999999998 12.500000000000002
    vertex 44.8 1.200000000000001 16.5
    vertex 44.8 30.799999999999994 16.5
  endloop
endfacet
facet normal -1.0 0.0 0.0
  outer loop
    vertex 44.800000000000004 9.999999999999998 12.500000000000002
    vertex 44.8 30.799999999999994 16.5
    vertex 44.800000000000004 21.999999999999993 12.500000000000002
  endloop
endfacet
facet normal -1.0 0.0 0.0
  outer loop
    vertex 44.800000000000004 21.999999999999993 12.500000000000002
    vertex 44.8 30.799999999999994 16.5
    vertex 44.8 21.999999999999993 8.600000000000003
  endloop
endfacet
facet normal -1.0 0.0 0.0
  outer loop
    vertex 44.8 21.999999999999993 8.600000000000003
    vertex 44.8 30.799999999999994 16.5
    vertex 44.8 30.799999999999994 8.600000000000003
  endloop
endfacet
facet normal -1.0 0.0 0.0
  outer loop
    vertex 44.8 9.999999999999998 8.600000000000003
    vertex 44.8 1.200000000000001 8.600000000000003
    vertex 44.800000000000004 9.999999999999998 12.500000000000002
  endloop
endfacet
facet normal -1.0 0.0 0.0
  outer loop
    vertex 44.0 29.999999999999996 8.600000000000003
    vertex 44.0 22.0 5.5
    vertex 44.0 22.0 8.600000000000001
  endloop
endfacet
facet normal -1.0 0.0 0.0
  outer loop
    vertex 44.0 9.999999999999998 8.600000000000001
    vertex 44.0 1.9999999999999996 2.500000000000001
    vertex 44.0 1.9999999999999996 8.600000000000003
  endloop
endfacet
facet normal -1.0 0.0 0.0
  outer loop
    vertex 44.0 1.9999999999999996 2.500000000000001
    vertex 44.0 9.999999999999998 8.600000000000001
    vertex 44.0 9.999999999999998 5.5
  endloop
endfacet
facet normal -1.0 0.0 0.0
  outer loop
    vertex 44.0 1.9999999999999996 2.500000000000001
    vertex 44.0 9.999999999999998 5.5
    vertex 44.0 29.999999999999996 2.500000000000001
  endloop
endfacet
facet normal -1.0 0.0 0.0
  outer loop
    vertex 44.0 29.999999999999996 2.500000000000001
    vertex 44.0 9.999999999999998 5.5
    vertex 44.0 22.0 5.5
  endloop
endfacet
facet normal -1.0 0.0 0.0
  outer loop
    vertex 44.0 29.999999999999996 2.500000000000001
    vertex 44.0 22.0 5.5
    vertex 44.0 29.999999999999996 8.600000000000003
  endloop
endfacet
facet normal -0.7933533402912347 -0.6087614290087212 0.0
  outer loop
    vertex 0.1339745962155613 0.49999999999999944 16.5
    vertex 0.2928932188134525 0.29289321881345215 0.0
    vertex 0.2928932188134525 0.29289321881345215 16.5
  endloop
endfacet
facet normal -0.7933533402912347 -0.6087614290087212 0.0
  outer loop
    vertex 0.2928932188134525 0.29289321881345215 0.0
    vertex 0.1339745962155613 0.49999999999999944 16.5
    vertex 0.1339745962155613 0.49999999999999944 0.0
  endloop
endfacet
facet normal -0.0 -1.0 -0.0
  outer loop
    vertex 44.0 29.999999999999996 8.600000000000003
    vertex 2.0000000000000036 29.999999999999996 2.500000000000001
    vertex 44.0 29.999999999999996 2.500000000000001
  endloop
endfacet
facet normal -0.0 -1.0 -0.0
  outer loop
    vertex 2.0000000000000036 29.999999999999996 2.500000000000001
    vertex 44.0 29.999999999999996 8.600000000000003
    vertex 2.0000000000000036 29.999999999999996 8.600000000000003
  endloop
endfacet
facet normal 1.0 0.0 0.0
  outer loop
    vertex 1.200000000000002 30.799999999999994 8.600000000000003
    vertex 1.200000000000002 1.200000000000001 16.5
    vertex 1.200000000000002 1.200000000000001 8.600000000000003
  endloop
endfacet
facet normal 1.0 0.0 0.0
  outer loop
    vertex 1.200000000000002 1.200000000000001 16.5
    vertex 1.200000000000002 30.799999999999994 8.600000000000003
    vertex 1.200000000000002 30.799999999999994 16.5
  endloop
endfacet
facet normal 1.8675274718860436e-16 -1.0 -6.439749903055261e-16
  outer loop
    vertex 46.00000000000001 22.0 12.499999999999998
    vertex 44.0 22.0 5.5
    vertex 46.0 22.0 5.5
  endloop
endfacet
facet normal 1.8675274718860436e-16 -1.0 -6.439749903055261e-16
  outer loop
    vertex 44.0 22.0 5.5
    vertex 46.00000000000001 22.0 12.499999999999998
    vertex 44.8 21.999999999999993 8.600000000000003
  endloop
endfacet
facet normal 1.8675274718860436e-16 -1.0 -6.439749903055261e-16
  outer loop
    vertex 44.0 22.0 5.5
    vertex 44.8 21.999999999999993 8.600000000000003
    vertex 44.0 22.0 8.600000000000001
  endloop
endfacet
facet normal 1.8675274718860436e-16 -1.0 -6.439749903055261e-16
  outer loop
    vertex 44.8 21.999999999999993 8.600000000000003
    vertex 46.00000000000001 22.0 12.499999999999998
    vertex 44.800000000000004 21.999999999999993 12.500000000000002
  endloop
endfacet
facet normal -0.9238795325112867 -0.3826834323650897 0.0
  outer loop
    vertex 0.03407417371093175 0.7411809548974784 16.5
    vertex 0.1339745962155613 0.49999999999999944 0.0
    vertex 0.1339745962155613 0.49999999999999944 16.5
  endloop
endfacet
facet normal -0.9238795325112867 -0.3826834323650897 0.0
  outer loop
    vertex 0.1339745962155613 0.49999999999999944 0.0
    vertex 0.03407417371093175 0.7411809548974784 16.5
    vertex 0.03407417371093175 0.7411809548974784 0.0
  endloop
endfacet
facet normal -0.0 1.0 -0.0
  outer loop
    vertex 44.0 9.999999999999998 8.600000000000001
    vertex 46.0 9.999999999999998 5.5
    vertex 44.0 9.999999999999998 5.5
  endloop
endfacet
facet normal -0.0 1.0 -0.0
  outer loop
    vertex 46.0 9.999999999999998 5.5
    vertex 44.0 9.999999999999998 8.600000000000001
    vertex 44.8 9.999999999999998 8.600000000000003
  endloop
endfacet
facet normal -0.0 1.0 -0.0
  outer loop
    vertex 46.0 9.999999999999998 5.5
    vertex 44.8 9.999999999999998 8.600000000000003
    vertex 46.00000000000001 9.999999999999998 12.499999999999998
  endloop
endfacet
facet normal -0.0 1.0 -0.0
  outer loop
    vertex 46.00000000000001 9.999999999999998 12.499999999999998
    vertex 44.8 9.999999999999998 8.600000000000003
    vertex 44.800000000000004 9.999999999999998 12.500000000000002
  endloop
endfacet
facet normal -0.0 1.0 -0.0
  outer loop
    vertex 1.200000000000002 1.200000000000001 16.5
    vertex 44.8 1.200000000000001 8.600000000000003
    vertex 1.200000000000002 1.200000000000001 8.600000000000003
  endloop
endfacet
facet normal -0.0 1.0 -0.0
  outer loop
    vertex 44.8 1.200000000000001 8.600000000000003
    vertex 1.200000000000002 1.200000000000001 16.5
    vertex 44.8 1.200000000000001 16.5
  endloop
endfacet
facet normal -0.0 -0.0 1.0
  outer loop
    vertex 46.0 9.999999999999998 5.5
    vertex 44.0 22.0 5.5
    vertex 44.0 9.999999999999998 5.5
  endloop
endfacet
facet normal -0.0 -0.0 1.0
  outer loop
    vertex 44.0 22.0 5.5
    vertex 46.0 9.999999999999998 5.5
    vertex 46.0 22.0 5.5
  endloop
endfacet
facet normal -1.174986034394954e-15 -2.157175282848206e-34 -1.0
  outer loop
    vertex 46.00000000000001 22.0 12.499999999999998
    vertex 44.800000000000004 9.999999999999998 12.500000000000002
    vertex 44.800000000000004 21.999999999999993 12.500000000000002
  endloop
endfacet
facet normal -1.174986034394954e-15 -2.157175282848206e-34 -1.0
  outer loop
    vertex 44.800000000000004 9.999999999999998 12.500000000000002
    vertex 46.00000000000001 22.0 12.499999999999998
    vertex 46.00000000000001 9.999999999999998 12.499999999999998
  endloop
endfacet
endsolid enclosure
