solid enclosure
facet normal 0.0 0.0 -1.0
  outer loop
    vertex 0.1477057623067838 74.62144314947513 0.0
    vertex 0.11363158859585222 44.3626241043726 0.0
    vertex 0.11363158859585222 74.3626241043726 0.0
  endloop
endfacet
facet normal 0.0 0.0 -1.0
  outer loop
    vertex 0.11363158859585222 44.3626241043726 0.0
    vertex 0.1477057623067838 74.62144314947513 0.0
    vertex 0.14770576230678398 44.10380505927008 0.0
  endloop
endfacet
facet normal 0.0 0.0 -1.0
  outer loop
    vertex 0.14770576230678398 44.10380505927008 0.0
    vertex 0.1477057623067838 74.62144314947513 0.0
    vertex 0.24760618481141333 74.8626241043726 0.0
  endloop
endfacet
facet normal 0.0 0.0 -1.0
  outer loop
    vertex 0.14770576230678398 44.10380505927008 0.0
    vertex 0.24760618481141333 74.8626241043726 0.0
    vertex 0.2476061848114135 43.8626241043726 0.0
  endloop
endfacet
facet normal 0.0 0.0 -1.0
  outer loop
    vertex 0.2476061848114135 43.8626241043726 0.0
    vertex 0.24760618481141333 74.8626241043726 0.0
    vertex 0.40652480740930436 75.06973088555915 0.0
  endloop
endfacet
facet normal 0.0 0.0 -1.0
  outer loop
    vertex 0.2476061848114135 43.8626241043726 0.0
    vertex 0.40652480740930436 75.06973088555915 0.0
    vertex 0.4065248074093045 43.655517323186054 0.0
  endloop
endfacet
facet normal 0.0 0.0 -1.0
  outer loop
    vertex 0.4065248074093045 43.655517323186054 0.0
    vertex 0.40652480740930436 75.06973088555915 0.0
    vertex 0.6136315885958515 75.22864950815703 0.0
  endloop
endfacet
facet normal 0.0 0.0 -1.0
  outer loop
    vertex 0.4065248074093045 43.655517323186054 0.0
    vertex 0.6136315885958515 75.22864950815703 0.0
    vertex 0.613631588595852 43.49659870058816 0.0
  endloop
endfacet
facet normal 0.0 0.0 -1.0
  outer loop
    vertex 0.613631588595852 43.49659870058816 0.0
    vertex 0.6136315885958515 75.22864950815703 0.0
    vertex 0.8548125434933305 75.32854993066167 0.0
  endloop
endfacet
facet normal 0.0 0.0 -1.0
  outer loop
    vertex 0.613631588595852 43.49659870058816 0.0
    vertex 0.8548125434933305 75.32854993066167 0.0
    vertex 0.8548125434933311 43.396698278083534 0.0
  endloop
endfacet
facet normal 0.0 0.0 -1.0
  outer loop
    vertex 0.8548125434933311 43.396698278083534 0.0
    vertex 0.8548125434933305 75.32854993066167 0.0
    vertex 1.1136315885958512 75.3626241043726 0.0
  endloop
endfacet
facet normal 0.0 0.0 -1.0
  outer loop
    vertex 0.8548125434933311 43.396698278083534 0.0
    vertex 1.1136315885958512 75.3626241043726 0.0
    vertex 1.113631588595852 43.3626241043726 0.0
  endloop
endfacet
facet normal 0.0 0.0 -1.0
  outer loop
    vertex 1.113631588595852 43.3626241043726 0.0
    vertex 1.1136315885958512 75.3626241043726 0.0
    vertex 2.456608432407133 60.07947493727395 1.0574874309554614e-15
  endloop
endfacet
facet normal 0.0 0.0 -1.0
  outer loop
    vertex 2.456608432407133 60.07947493727395 1.0574874309554614e-15
    vertex 1.1136315885958512 75.3626241043726 0.0
    vertex 2.8451237222836254 61.59683988240721 1.0574874309554614e-15
  endloop
endfacet
facet normal 0.0 0.0 -1.0
  outer loop
    vertex 2.8451237222836254 61.59683988240721 1.0574874309554614e-15
    vertex 1.1136315885958512 75.3626241043726 0.0
    vertex 3.6131236208549415 62.96194671448356 1.0574874309554614e-15
  endloop
endfacet
facet normal 0.0 0.0 -1.0
  outer loop
    vertex 3.6131236208549415 62.96194671448356 1.0574874309554614e-15
    vertex 1.1136315885958512 75.3626241043726 0.0
    vertex 4.708270204213288 64.0817656588427 1.0574874309554614e-15
  endloop
endfacet
facet normal 0.0 0.0 -1.0
  outer loop
    vertex 4.708270204213288 64.0817656588427 1.0574874309554614e-15
    vertex 1.1136315885958512 75.3626241043726 0.0
    vertex 6.0559310425180986 64.87998290501486 1.0574874309554614e-15
  endloop
endfacet
facet normal 0.0 0.0 -1.0
  outer loop
    vertex 6.0559310425180986 64.87998290501486 1.0574874309554614e-15
    vertex 1.1136315885958512 75.3626241043726 0.0
    vertex 7.564265276753729 65.30220126678977 1.0574874309554614e-15
  endloop
endfacet
facet normal 0.0 0.0 -1.0
  outer loop
    vertex 7.564265276753729 65.30220126678977 1.0574874309554614e-15
    vertex 1.1136315885958512 75.3626241043726 0.0
    vertex 45.11363158859585 75.3626241043726 0.0
  endloop
endfacet
facet normal 0.0 0.0 -1.0
  outer loop
    vertex 7.564265276753729 65.30220126678977 1.0574874309554614e-15
    vertex 45.11363158859585 75.3626241043726 0.0
    vertex 9.130482421497202 65.31964726056131 1.0574874309554614e-15
  endloop
endfacet
facet normal 0.0 0.0 -1.0
  outer loop
    vertex 9.130482421497202 65.31964726056131 1.0574874309554614e-15
    vertex 45.11363158859585 75.3626241043726 0.0
    vertex 16.61363158859585 67.36262410437259 1.0574874309554614e-15
  endloop
endfacet
facet normal 0.0 0.0 -1.0
  outer loop
    vertex 9.130482421497202 65.31964726056131 1.0574874309554614e-15
    vertex 16.61363158859585 67.36262410437259 1.0574874309554614e-15
    vertex 10.647847366630469 64.93113197068482 1.0574874309554614e-15
  endloop
endfacet
facet normal 0.0 0.0 -1.0
  outer loop
    vertex 10.647847366630469 64.93113197068482 1.0574874309554614e-15
    vertex 16.61363158859585 67.36262410437259 1.0574874309554614e-15
    vertex 12.012954198706819 64.1631320721135 1.0574874309554614e-15
  endloop
endfacet
facet normal 0.0 0.0 -1.0
  outer loop
    vertex 12.012954198706819 64.1631320721135 1.0574874309554614e-15
    vertex 16.61363158859585 67.36262410437259 1.0574874309554614e-15
    vertex 13.132773143065956 63.067985488755156 1.0574874309554614e-15
  endloop
endfacet
facet normal 0.0 0.0 -1.0
  outer loop
    vertex 13.132773143065956 63.067985488755156 1.0574874309554614e-15
    vertex 16.61363158859585 67.36262410437259 1.0574874309554614e-15
    vertex 13.930990389238115 61.720324650450344 1.0574874309554614e-15
  endloop
endfacet
facet normal 0.0 0.0 -1.0
  outer loop
    vertex 13.930990389238115 61.720324650450344 1.0574874309554614e-15
    vertex 16.61363158859585 67.36262410437259 1.0574874309554614e-15
    vertex 14.353208751013028 60.21199041621472 1.0574874309554614e-15
  endloop
endfacet
facet normal 0.0 0.0 -1.0
  outer loop
    vertex 14.353208751013028 60.21199041621472 1.0574874309554614e-15
    vertex 16.61363158859585 67.36262410437259 1.0574874309554614e-15
    vertex 14.37065474478457 58.64577327147124 1.0574874309554614e-15
  endloop
endfacet
facet normal 0.0 0.0 -1.0
  outer loop
    vertex 16.61363158859585 67.36262410437259 1.0574874309554614e-15
    vertex 45.11363158859585 75.3626241043726 0.0
    vertex 21.61363158859585 67.36262410437259 1.0574874309554614e-15
  endloop
endfacet
facet normal 0.0 0.0 -1.0
  outer loop
    vertex 21.61363158859585 67.36262410437259 1.0574874309554614e-15
    vertex 45.11363158859585 75.3626241043726 0.0
    vertex 21.61363158859585 51.3626241043726 1.0574874309554614e-15
  endloop
endfacet
facet normal 0.0 0.0 -1.0
  outer loop
    vertex 1.113631588595852 43.3626241043726 0.0
    vertex 6.179415810561235 53.79411623806037 1.0574874309554614e-15
    vertex 45.11363158859585 43.3626241043726 0.0
  endloop
endfacet
facet normal 0.0 0.0 -1.0
  outer loop
    vertex 6.179415810561235 53.79411623806037 1.0574874309554614e-15
    vertex 1.113631588595852 43.3626241043726 0.0
    vertex 4.8143089784848865 54.56211613663169 1.0574874309554614e-15
  endloop
endfacet
facet normal 0.0 0.0 -1.0
  outer loop
    vertex 4.8143089784848865 54.56211613663169 1.0574874309554614e-15
    vertex 1.113631588595852 43.3626241043726 0.0
    vertex 3.6944900341257467 55.65726271999004 1.0574874309554614e-15
  endloop
endfacet
facet normal 0.0 0.0 -1.0
  outer loop
    vertex 3.6944900341257467 55.65726271999004 1.0574874309554614e-15
    vertex 1.113631588595852 43.3626241043726 0.0
    vertex 2.8962727879535892 57.00492355829485 1.0574874309554614e-15
  endloop
endfacet
facet normal 0.0 0.0 -1.0
  outer loop
    vertex 2.8962727879535892 57.00492355829485 1.0574874309554614e-15
    vertex 1.113631588595852 43.3626241043726 0.0
    vertex 2.4740544261786757 58.51325779253047 1.0574874309554614e-15
  endloop
endfacet
facet normal 0.0 0.0 -1.0
  outer loop
    vertex 2.4740544261786757 58.51325779253047 1.0574874309554614e-15
    vertex 1.113631588595852 43.3626241043726 0.0
    vertex 2.456608432407133 60.07947493727395 1.0574874309554614e-15
  endloop
endfacet
facet normal 0.0 0.0 -1.0
  outer loop
    vertex 45.11363158859585 43.3626241043726 0.0
    vertex 6.179415810561235 53.79411623806037 1.0574874309554614e-15
    vertex 7.696780755694497 53.40560094818388 1.0574874309554614e-15
  endloop
endfacet
facet normal 0.0 0.0 -1.0
  outer loop
    vertex 45.11363158859585 43.3626241043726 0.0
    vertex 7.696780755694497 53.40560094818388 1.0574874309554614e-15
    vertex 9.262997900437973 53.42304694195542 1.0574874309554614e-15
  endloop
endfacet
facet normal 0.0 0.0 -1.0
  outer loop
    vertex 45.11363158859585 43.3626241043726 0.0
    vertex 9.262997900437973 53.42304694195542 1.0574874309554614e-15
    vertex 16.61363158859585 51.3626241043726 1.0574874309554614e-15
  endloop
endfacet
facet normal 0.0 0.0 -1.0
  outer loop
    vertex 16.61363158859585 51.3626241043726 1.0574874309554614e-15
    vertex 9.262997900437973 53.42304694195542 1.0574874309554614e-15
    vertex 10.771332134673601 53.845265303730336 1.0574874309554614e-15
  endloop
endfacet
facet normal 0.0 0.0 -1.0
  outer loop
    vertex 16.61363158859585 51.3626241043726 1.0574874309554614e-15
    vertex 10.771332134673601 53.845265303730336 1.0574874309554614e-15
    vertex 12.11899297297841 54.643482549902494 1.0574874309554614e-15
  endloop
endfacet
facet normal 0.0 0.0 -1.0
  outer loop
    vertex 16.61363158859585 51.3626241043726 1.0574874309554614e-15
    vertex 12.11899297297841 54.643482549902494 1.0574874309554614e-15
    vertex 13.214139556336761 55.76330149426163 1.0574874309554614e-15
  endloop
endfacet
facet normal 0.0 0.0 -1.0
  outer loop
    vertex 16.61363158859585 51.3626241043726 1.0574874309554614e-15
    vertex 13.214139556336761 55.76330149426163 1.0574874309554614e-15
    vertex 13.982139454908078 57.12840832633798 1.0574874309554614e-15
  endloop
endfacet
facet normal 0.0 0.0 -1.0
  outer loop
    vertex 16.61363158859585 51.3626241043726 1.0574874309554614e-15
    vertex 13.982139454908078 57.12840832633798 1.0574874309554614e-15
    vertex 14.37065474478457 58.64577327147124 1.0574874309554614e-15
  endloop
endfacet
facet normal 0.0 0.0 -1.0
  outer loop
    vertex 16.61363158859585 51.3626241043726 1.0574874309554614e-15
    vertex 14.37065474478457 58.64577327147124 1.0574874309554614e-15
    vertex 16.61363158859585 67.36262410437259 1.0574874309554614e-15
  endloop
endfacet
facet normal 0.0 0.0 -1.0
  outer loop
    vertex 45.11363158859585 43.3626241043726 0.0
    vertex 16.61363158859585 51.3626241043726 1.0574874309554614e-15
    vertex 21.61363158859585 51.3626241043726 1.0574874309554614e-15
  endloop
endfacet
facet normal 0.0 0.0 -1.0
  outer loop
    vertex 45.11363158859585 43.3626241043726 0.0
    vertex 21.61363158859585 51.3626241043726 1.0574874309554614e-15
    vertex 45.11363158859585 75.3626241043726 0.0
  endloop
endfacet
facet normal 0.0 0.0 -1.0
  outer loop
    vertex 45.11363158859585 43.3626241043726 0.0
    vertex 45.11363158859585 75.3626241043726 0.0
    vertex 45.37245063369838 75.32854993066168 0.0
  endloop
endfacet
facet normal 0.0 0.0 -1.0
  outer loop
    vertex 45.11363158859585 43.3626241043726 0.0
    vertex 45.37245063369838 75.32854993066168 0.0
    vertex 45.37245063369838 43.396698278083534 0.0
  endloop
endfacet
facet normal 0.0 0.0 -1.0
  outer loop
    vertex 45.37245063369838 43.396698278083534 0.0
    vertex 45.37245063369838 75.32854993066168 0.0
    vertex 45.61363158859585 75.22864950815703 0.0
  endloop
endfacet
facet normal 0.0 0.0 -1.0
  outer loop
    vertex 45.37245063369838 43.396698278083534 0.0
    vertex 45.61363158859585 75.22864950815703 0.0
    vertex 45.61363158859585 43.49659870058816 0.0
  endloop
endfacet
facet normal 0.0 0.0 -1.0
  outer loop
    vertex 45.61363158859585 43.49659870058816 0.0
    vertex 45.61363158859585 75.22864950815703 0.0
    vertex 45.8207383697824 75.06973088555915 0.0
  endloop
endfacet
facet normal 0.0 0.0 -1.0
  outer loop
    vertex 45.61363158859585 43.49659870058816 0.0
    vertex 45.8207383697824 75.06973088555915 0.0
    vertex 45.8207383697824 43.655517323186054 0.0
  endloop
endfacet
facet normal 0.0 0.0 -1.0
  outer loop
    vertex 45.8207383697824 43.655517323186054 0.0
    vertex 45.8207383697824 75.06973088555915 0.0
    vertex 45.97965699238029 74.8626241043726 0.0
  endloop
endfacet
facet normal 0.0 0.0 -1.0
  outer loop
    vertex 45.8207383697824 43.655517323186054 0.0
    vertex 45.97965699238029 74.8626241043726 0.0
    vertex 45.97965699238029 43.8626241043726 0.0
  endloop
endfacet
facet normal 0.0 0.0 -1.0
  outer loop
    vertex 45.97965699238029 43.8626241043726 0.0
    vertex 45.97965699238029 74.8626241043726 0.0
    vertex 46.079557414884924 74.62144314947513 0.0
  endloop
endfacet
facet normal 0.0 0.0 -1.0
  outer loop
    vertex 45.97965699238029 43.8626241043726 0.0
    vertex 46.079557414884924 74.62144314947513 0.0
    vertex 46.079557414884924 44.10380505927008 0.0
  endloop
endfacet
facet normal 0.0 0.0 -1.0
  outer loop
    vertex 46.079557414884924 44.10380505927008 0.0
    vertex 46.079557414884924 74.62144314947513 0.0
    vertex 46.11363158859585 74.3626241043726 0.0
  endloop
endfacet
facet normal 0.0 0.0 -1.0
  outer loop
    vertex 46.079557414884924 44.10380505927008 0.0
    vertex 46.11363158859585 74.3626241043726 0.0
    vertex 46.11363158859585 44.3626241043726 0.0
  endloop
endfacet
facet normal 0.0 1.0 0.0
  outer loop
    vertex 2.113631588595851 45.3626241043726 24.5
    vertex 44.11363158859585 45.3626241043726 2.500000000000001
    vertex 2.113631588595851 45.3626241043726 2.500000000000001
  endloop
endfacet
facet normal 0.0 1.0 0.0
  outer loop
    vertex 44.11363158859585 45.3626241043726 2.500000000000001
    vertex 2.113631588595851 45.3626241043726 24.5
    vertex 44.11363158859585 45.3626241043726 24.5
  endloop
endfacet
facet normal -0.0 -1.0 -0.0
  outer loop
    vertex 44.11363158859586 73.3626241043726 24.5
    vertex 2.113631588595851 73.3626241043726 2.500000000000001
    vertex 44.11363158859586 73.3626241043726 2.500000000000001
  endloop
endfacet
facet normal -0.0 -1.0 -0.0
  outer loop
    vertex 2.113631588595851 73.3626241043726 2.500000000000001
    vertex 44.11363158859586 73.3626241043726 24.5
    vertex 2.113631588595851 73.3626241043726 24.5
  endloop
endfacet
facet normal 0.0 1.0 0.0
  outer loop
    vertex 1.3636315885958512 74.1126241043726 24.5
    vertex 44.86363158859586 74.1126241043726 16.5
    vertex 1.3636315885958512 74.1126241043726 16.5
  endloop
endfacet
facet normal 0.0 1.0 0.0
  outer loop
    vertex 44.86363158859586 74.1126241043726 16.5
    vertex 1.3636315885958512 74.1126241043726 24.5
    vertex 44.86363158859586 74.1126241043726 24.5
  endloop
endfacet
facet normal 0.0 -1.0 0.0
  outer loop
    vertex 44.86363158859586 44.6126241043726 24.5
    vertex 1.3636315885958512 44.6126241043726 16.5
    vertex 44.86363158859586 44.6126241043726 16.5
  endloop
endfacet
facet normal 0.0 -1.0 0.0
  outer loop
    vertex 1.3636315885958512 44.6126241043726 16.5
    vertex 44.86363158859586 44.6126241043726 24.5
    vertex 1.3636315885958512 44.6126241043726 24.5
  endloop
endfacet
facet normal -1.0 -0.0 -0.0
  outer loop
    vertex 1.3636315885958512 74.1126241043726 24.5
    vertex 1.3636315885958512 44.6126241043726 16.5
    vertex 1.3636315885958512 44.6126241043726 24.5
  endloop
endfacet
facet normal -1.0 -0.0 -0.0
  outer loop
    vertex 1.3636315885958512 44.6126241043726 16.5
    vertex 1.3636315885958512 74.1126241043726 24.5
    vertex 1.3636315885958512 74.1126241043726 16.5
  endloop
endfacet
facet normal 0.6087614290087368 -0.7933533402912228 0.0
  outer loop
    vertex 45.8207383697824 43.655517323186054 16.5
    vertex 45.61363158859585 43.49659870058816 0.0
    vertex 45.8207383697824 43.655517323186054 0.0
  endloop
endfacet
facet normal 0.6087614290087368 -0.7933533402912228 0.0
  outer loop
    vertex 45.61363158859585 43.49659870058816 0.0
    vertex 45.8207383697824 43.655517323186054 16.5
    vertex 45.61363158859585 43.49659870058816 16.5
  endloop
endfacet
facet normal 0.13052619222005077 -0.9914448613738105 0.0
  outer loop
    vertex 45.37245063369838 43.396698278083534 16.5
    vertex 45.11363158859585 43.3626241043726 0.0
    vertex 45.37245063369838 43.396698278083534 0.0
  endloop
endfacet
facet normal 0.13052619222005077 -0.9914448613738105 0.0
  outer loop
    vertex 45.11363158859585 43.3626241043726 0.0
    vertex 45.37245063369838 43.396698278083534 16.5
    vertex 45.11363158859585 43.3626241043726 16.5
  endloop
endfacet
facet normal 0.382683432365086 -0.9238795325112884 0.0
  outer loop
    vertex 45.61363158859585 43.49659870058816 16.5
    vertex 45.37245063369838 43.396698278083534 0.0
    vertex 45.61363158859585 43.49659870058816 0.0
  endloop
endfacet
facet normal 0.382683432365086 -0.9238795325112884 0.0
  outer loop
    vertex 45.37245063369838 43.396698278083534 0.0
    vertex 45.61363158859585 43.49659870058816 16.5
    vertex 45.37245063369838 43.396698278083534 16.5
  endloop
endfacet
facet normal 0.9914448613738105 -0.13052619222005077 -0.0
  outer loop
    vertex 46.11363158859585 44.3626241043726 0.0
    vertex 46.079557414884924 44.10380505927008 16.5
    vertex 46.079557414884924 44.10380505927008 0.0
  endloop
endfacet
facet normal 0.9914448613738105 -0.13052619222005077 -0.0
  outer loop
    vertex 46.079557414884924 44.10380505927008 16.5
    vertex 46.11363158859585 44.3626241043726 0.0
    vertex 46.11363158859585 44.3626241043726 16.5
  endloop
endfacet
facet normal 0.9238795325112884 -0.382683432365086 -0.0
  outer loop
    vertex 46.079557414884924 44.10380505927008 0.0
    vertex 45.97965699238029 43.8626241043726 16.5
    vertex 45.97965699238029 43.8626241043726 0.0
  endloop
endfacet
facet normal 0.9238795325112884 -0.382683432365086 -0.0
  outer loop
    vertex 45.97965699238029 43.8626241043726 16.5
    vertex 46.079557414884924 44.10380505927008 0.0
    vertex 46.079557414884924 44.10380505927008 16.5
  endloop
endfacet
facet normal 0.7933533402912228 -0.6087614290087368 -0.0
  outer loop
    vertex 45.97965699238029 43.8626241043726 0.0
    vertex 45.8207383697824 43.655517323186054 16.5
    vertex 45.8207383697824 43.655517323186054 0.0
  endloop
endfacet
facet normal 0.7933533402912228 -0.6087614290087368 -0.0
  outer loop
    vertex 45.8207383697824 43.655517323186054 16.5
    vertex 45.97965699238029 43.8626241043726 0.0
    vertex 45.97965699238029 43.8626241043726 16.5
  endloop
endfacet
facet normal -0.0 1.0 -0.0
  outer loop
    vertex 1.1136315885958512 75.3626241043726 16.5
    vertex 45.11363158859585 75.3626241043726 0.0
    vertex 1.1136315885958512 75.3626241043726 0.0
  endloop
endfacet
facet normal -0.0 1.0 -0.0
  outer loop
    vertex 45.11363158859585 75.3626241043726 0.0
    vertex 1.1136315885958512 75.3626241043726 16.5
    vertex 45.11363158859585 75.3626241043726 16.5
  endloop
endfacet
facet normal 0.793353340291231 0.6087614290087263 -0.0
  outer loop
    vertex 45.8207383697824 75.06973088555915 0.0
    vertex 45.97965699238029 74.8626241043726 16.5
    vertex 45.97965699238029 74.8626241043726 0.0
  endloop
endfacet
facet normal 0.793353340291231 0.6087614290087263 -0.0
  outer loop
    vertex 45.97965699238029 74.8626241043726 16.5
    vertex 45.8207383697824 75.06973088555915 0.0
    vertex 45.8207383697824 75.06973088555915 16.5
  endloop
endfacet
facet normal 0.3826834323651228 0.9238795325112731 -0.0
  outer loop
    vertex 45.37245063369838 75.32854993066168 16.5
    vertex 45.61363158859585 75.22864950815703 0.0
    vertex 45.37245063369838 75.32854993066168 0.0
  endloop
endfacet
facet normal 0.3826834323651228 0.9238795325112731 -0.0
  outer loop
    vertex 45.61363158859585 75.22864950815703 0.0
    vertex 45.37245063369838 75.32854993066168 16.5
    vertex 45.61363158859585 75.22864950815703 16.5
  endloop
endfacet
facet normal 0.9238795325112884 0.3826834323650859 -0.0
  outer loop
    vertex 45.97965699238029 74.8626241043726 0.0
    vertex 46.079557414884924 74.62144314947513 16.5
    vertex 46.079557414884924 74.62144314947513 0.0
  endloop
endfacet
facet normal 0.9238795325112884 0.3826834323650859 -0.0
  outer loop
    vertex 46.079557414884924 74.62144314947513 16.5
    vertex 45.97965699238029 74.8626241043726 0.0
    vertex 45.97965699238029 74.8626241043726 16.5
  endloop
endfacet
facet normal 0.9914448613738105 0.13052619222005074 -0.0
  outer loop
    vertex 46.079557414884924 74.62144314947513 0.0
    vertex 46.11363158859585 74.3626241043726 16.5
    vertex 46.11363158859585 74.3626241043726 0.0
  endloop
endfacet
facet normal 0.9914448613738105 0.13052619222005074 -0.0
  outer loop
    vertex 46.11363158859585 74.3626241043726 16.5
    vertex 46.079557414884924 74.62144314947513 0.0
    vertex 46.079557414884924 74.62144314947513 16.5
  endloop
endfacet
facet normal 0.6087614290087094 0.7933533402912438 -0.0
  outer loop
    vertex 45.61363158859585 75.22864950815703 16.5
    vertex 45.8207383697824 75.06973088555915 0.0
    vertex 45.61363158859585 75.22864950815703 0.0
  endloop
endfacet
facet normal 0.6087614290087094 0.7933533402912438 -0.0
  outer loop
    vertex 45.8207383697824 75.06973088555915 0.0
    vertex 45.61363158859585 75.22864950815703 16.5
    vertex 45.8207383697824 75.06973088555915 16.5
  endloop
endfacet
facet normal 0.1305261922200295 0.9914448613738134 -0.0
  outer loop
    vertex 45.11363158859585 75.3626241043726 16.5
    vertex 45.37245063369838 75.32854993066168 0.0
    vertex 45.11363158859585 75.3626241043726 0.0
  endloop
endfacet
facet normal 0.1305261922200295 0.9914448613738134 -0.0
  outer loop
    vertex 45.37245063369838 75.32854993066168 0.0
    vertex 45.11363158859585 75.3626241043726 16.5
    vertex 45.37245063369838 75.32854993066168 16.5
  endloop
endfacet
facet normal -1.0 0.0 0.0
  outer loop
    vertex 0.11363158859585222 74.3626241043726 16.5
    vertex 0.11363158859585222 44.3626241043726 0.0
    vertex 0.11363158859585222 44.3626241043726 16.5
  endloop
endfacet
facet normal -1.0 0.0 0.0
  outer loop
    vertex 0.11363158859585222 44.3626241043726 0.0
    vertex 0.11363158859585222 74.3626241043726 16.5
    vertex 0.11363158859585222 74.3626241043726 0.0
  endloop
endfacet
facet normal -0.7933533402912392 0.6087614290087155 0.0
  outer loop
    vertex 0.40652480740930436 75.06973088555915 16.5
    vertex 0.24760618481141333 74.8626241043726 0.0
    vertex 0.24760618481141333 74.8626241043726 16.5
  endloop
endfacet
facet normal -0.7933533402912392 0.6087614290087155 0.0
  outer loop
    vertex 0.24760618481141333 74.8626241043726 0.0
    vertex 0.40652480740930436 75.06973088555915 16.5
    vertex 0.40652480740930436 75.06973088555915 0.0
  endloop
endfacet
facet normal -0.13052619222007295 0.9914448613738077 -0.0
  outer loop
    vertex 0.8548125434933305 75.32854993066167 16.5
    vertex 1.1136315885958512 75.3626241043726 0.0
    vertex 0.8548125434933305 75.32854993066167 0.0
  endloop
endfacet
facet normal -0.13052619222007295 0.9914448613738077 -0.0
  outer loop
    vertex 1.1136315885958512 75.3626241043726 0.0
    vertex 0.8548125434933305 75.32854993066167 16.5
    vertex 1.1136315885958512 75.3626241043726 16.5
  endloop
endfacet
facet normal -0.3826834323650824 0.9238795325112897 -0.0
  outer loop
    vertex 0.6136315885958515 75.22864950815703 16.5
    vertex 0.8548125434933305 75.32854993066167 0.0
    vertex 0.6136315885958515 75.22864950815703 0.0
  endloop
endfacet
facet normal -0.3826834323650824 0.9238795325112897 -0.0
  outer loop
    vertex 0.8548125434933305 75.32854993066167 0.0
    vertex 0.6136315885958515 75.22864950815703 16.5
    vertex 0.8548125434933305 75.32854993066167 16.5
  endloop
endfacet
facet normal -0.9238795325112852 0.3826834323650934 0.0
  outer loop
    vertex 0.24760618481141333 74.8626241043726 16.5
    vertex 0.1477057623067838 74.62144314947513 0.0
    vertex 0.1477057623067838 74.62144314947513 16.5
  endloop
endfacet
facet normal -0.9238795325112852 0.3826834323650934 0.0
  outer loop
    vertex 0.1477057623067838 74.62144314947513 0.0
    vertex 0.24760618481141333 74.8626241043726 16.5
    vertex 0.24760618481141333 74.8626241043726 0.0
  endloop
endfacet
facet normal -0.6087614290087047 0.7933533402912476 -0.0
  outer loop
    vertex 0.40652480740930436 75.06973088555915 16.5
    vertex 0.6136315885958515 75.22864950815703 0.0
    vertex 0.40652480740930436 75.06973088555915 0.0
  endloop
endfacet
facet normal -0.6087614290087047 0.7933533402912476 -0.0
  outer loop
    vertex 0.6136315885958515 75.22864950815703 0.0
    vertex 0.40652480740930436 75.06973088555915 16.5
    vertex 0.6136315885958515 75.22864950815703 16.5
  endloop
endfacet
facet normal -0.9914448613738107 0.13052619222005013 0.0
  outer loop
    vertex 0.1477057623067838 74.62144314947513 16.5
    vertex 0.11363158859585222 74.3626241043726 0.0
    vertex 0.11363158859585222 74.3626241043726 16.5
  endloop
endfacet
facet normal -0.9914448613738107 0.13052619222005013 0.0
  outer loop
    vertex 0.11363158859585222 74.3626241043726 0.0
    vertex 0.1477057623067838 74.62144314947513 16.5
    vertex 0.1477057623067838 74.62144314947513 0.0
  endloop
endfacet
facet normal 0.0 -1.0 0.0
  outer loop
    vertex 45.11363158859585 43.3626241043726 16.5
    vertex 1.113631588595852 43.3626241043726 0.0
    vertex 45.11363158859585 43.3626241043726 0.0
  endloop
endfacet
facet normal 0.0 -1.0 0.0
  outer loop
    vertex 1.113631588595852 43.3626241043726 0.0
    vertex 45.11363158859585 43.3626241043726 16.5
    vertex 1.113631588595852 43.3626241043726 16.5
  endloop
endfacet
facet normal -0.1305261922200516 -0.9914448613738105 0.0
  outer loop
    vertex 1.113631588595852 43.3626241043726 16.5
    vertex 0.8548125434933311 43.396698278083534 0.0
    vertex 1.113631588595852 43.3626241043726 0.0
  endloop
endfacet
facet normal -0.1305261922200516 -0.9914448613738105 0.0
  outer loop
    vertex 0.8548125434933311 43.396698278083534 0.0
    vertex 1.113631588595852 43.3626241043726 16.5
    vertex 0.8548125434933311 43.396698278083534 16.5
  endloop
endfacet
facet normal -0.3826834323650821 -0.92387953251129 0.0
  outer loop
    vertex 0.8548125434933311 43.396698278083534 16.5
    vertex 0.613631588595852 43.49659870058816 0.0
    vertex 0.8548125434933311 43.396698278083534 0.0
  endloop
endfacet
facet normal -0.3826834323650821 -0.92387953251129 0.0
  outer loop
    vertex 0.613631588595852 43.49659870058816 0.0
    vertex 0.8548125434933311 43.396698278083534 16.5
    vertex 0.613631588595852 43.49659870058816 16.5
  endloop
endfacet
facet normal -0.7933533402912311 -0.608761429008726 0.0
  outer loop
    vertex 0.2476061848114135 43.8626241043726 16.5
    vertex 0.4065248074093045 43.655517323186054 0.0
    vertex 0.4065248074093045 43.655517323186054 16.5
  endloop
endfacet
facet normal -0.7933533402912311 -0.608761429008726 0.0
  outer loop
    vertex 0.4065248074093045 43.655517323186054 0.0
    vertex 0.2476061848114135 43.8626241043726 16.5
    vertex 0.2476061848114135 43.8626241043726 0.0
  endloop
endfacet
facet normal -0.9914448613738105 -0.13052619222005077 0.0
  outer loop
    vertex 0.11363158859585222 44.3626241043726 16.5
    vertex 0.14770576230678398 44.10380505927008 0.0
    vertex 0.14770576230678398 44.10380505927008 16.5
  endloop
endfacet
facet normal -0.9914448613738105 -0.13052619222005077 0.0
  outer loop
    vertex 0.14770576230678398 44.10380505927008 0.0
    vertex 0.11363158859585222 44.3626241043726 16.5
    vertex 0.11363158859585222 44.3626241043726 0.0
  endloop
endfacet
facet normal -0.6087614290087314 -0.793353340291227 0.0
  outer loop
    vertex 0.613631588595852 43.49659870058816 16.5
    vertex 0.4065248074093045 43.655517323186054 0.0
    vertex 0.613631588595852 43.49659870058816 0.0
  endloop
endfacet
facet normal -0.6087614290087314 -0.793353340291227 0.0
  outer loop
    vertex 0.4065248074093045 43.655517323186054 0.0
    vertex 0.613631588595852 43.49659870058816 16.5
    vertex 0.4065248074093045 43.655517323186054 16.5
  endloop
endfacet
facet normal -0.9238795325112852 -0.3826834323650934 0.0
  outer loop
    vertex 0.14770576230678398 44.10380505927008 16.5
    vertex 0.2476061848114135 43.8626241043726 0.0
    vertex 0.2476061848114135 43.8626241043726 16.5
  endloop
endfacet
facet normal -0.9238795325112852 -0.3826834323650934 0.0
  outer loop
    vertex 0.2476061848114135 43.8626241043726 0.0
    vertex 0.14770576230678398 44.10380505927008 16.5
    vertex 0.14770576230678398 44.10380505927008 0.0
  endloop
endfacet
facet normal 0.0 -1.0 0.0
  outer loop
    vertex 46.10450958859585 67.6126241043726 16.5
    vertex 44.11363158859586 67.6126241043726 3.5000000000000004
    vertex 46.10450958859585 67.6126241043726 3.5000000000000004
  endloop
endfacet
facet normal 0.0 -1.0 0.0
  outer loop
    vertex 44.11363158859586 67.6126241043726 3.5000000000000004
    vertex 46.10450958859585 67.6126241043726 16.5
    vertex 44.86363158859586 67.6126241043726 16.5
  endloop
endfacet
facet normal 0.0 -1.0 0.0
  outer loop
    vertex 44.11363158859586 67.6126241043726 3.5000000000000004
    vertex 44.86363158859586 67.6126241043726 16.5
    vertex 44.11363158859586 67.6126241043726 24.5
  endloop
endfacet
facet normal 0.0 -1.0 0.0
  outer loop
    vertex 44.11363158859586 67.6126241043726 24.5
    vertex 44.86363158859586 67.6126241043726 16.5
    vertex 44.86363158859586 67.6126241043726 24.5
  endloop
endfacet
facet normal 0.0 0.0 1.0
  outer loop
    vertex 1.3636315885958512 44.6126241043726 24.5
    vertex 2.113631588595851 45.3626241043726 24.5
    vertex 1.3636315885958512 74.1126241043726 24.5
  endloop
endfacet
facet normal 0.0 0.0 1.0
  outer loop
    vertex 2.113631588595851 45.3626241043726 24.5
    vertex 1.3636315885958512 44.6126241043726 24.5
    vertex 44.86363158859586 44.6126241043726 24.5
  endloop
endfacet
facet normal 0.0 0.0 1.0
  outer loop
    vertex 2.113631588595851 45.3626241043726 24.5
    vertex 44.86363158859586 44.6126241043726 24.5
    vertex 44.11363158859585 45.3626241043726 24.5
  endloop
endfacet
facet normal 0.0 0.0 1.0
  outer loop
    vertex 44.11363158859585 45.3626241043726 24.5
    vertex 44.86363158859586 44.6126241043726 24.5
    vertex 44.11363158859586 51.1126241043726 24.5
  endloop
endfacet
facet normal 0.0 0.0 1.0
  outer loop
    vertex 44.11363158859586 51.1126241043726 24.5
    vertex 44.86363158859586 44.6126241043726 24.5
    vertex 44.86363158859586 51.1126241043726 24.5
  endloop
endfacet
facet normal 0.0 0.0 1.0
  outer loop
    vertex 44.86363158859586 67.6126241043726 24.5
    vertex 44.11363158859586 73.3626241043726 24.5
    vertex 44.11363158859586 67.6126241043726 24.5
  endloop
endfacet
facet normal 0.0 0.0 1.0
  outer loop
    vertex 1.3636315885958512 74.1126241043726 24.5
    vertex 2.113631588595851 73.3626241043726 24.5
    vertex 44.86363158859586 74.1126241043726 24.5
  endloop
endfacet
facet normal 0.0 0.0 1.0
  outer loop
    vertex 2.113631588595851 73.3626241043726 24.5
    vertex 1.3636315885958512 74.1126241043726 24.5
    vertex 2.113631588595851 45.3626241043726 24.5
  endloop
endfacet
facet normal 0.0 0.0 1.0
  outer loop
    vertex 44.86363158859586 74.1126241043726 24.5
    vertex 2.113631588595851 73.3626241043726 24.5
    vertex 44.11363158859586 73.3626241043726 24.5
  endloop
endfacet
facet normal 0.0 0.0 1.0
  outer loop
    vertex 44.86363158859586 74.1126241043726 24.5
    vertex 44.11363158859586 73.3626241043726 24.5
    vertex 44.86363158859586 67.6126241043726 24.5
  endloop
endfacet
facet normal -0.9687486979466198 0.24804427069926208 -2.016951998288417e-32
  outer loop
    vertex 14.37065474478457 58.64577327147124 2.500000000000001
    vertex 13.982139454908078 57.12840832633798 1.0574874309554614e-15
    vertex 13.982139454908078 57.12840832633798 2.500000000000001
  endloop
endfacet
facet normal -0.9687486979466198 0.24804427069926208 -2.016951998288417e-32
  outer loop
    vertex 13.982139454908078 57.12840832633798 1.0574874309554614e-15
    vertex 14.37065474478457 58.64577327147124 2.500000000000001
    vertex 14.37065474478457 58.64577327147124 1.0574874309554614e-15
  endloop
endfacet
facet normal -0.999937967816082 -0.011138245815400632 -1.590087796410209e-32
  outer loop
    vertex 14.353208751013028 60.21199041621472 2.500000000000001
    vertex 14.37065474478457 58.64577327147124 1.0574874309554614e-15
    vertex 14.37065474478457 58.64577327147124 2.500000000000001
  endloop
endfacet
facet normal -0.999937967816082 -0.011138245815400632 -1.590087796410209e-32
  outer loop
    vertex 14.37065474478457 58.64577327147124 1.0574874309554614e-15
    vertex 14.353208751013028 60.21199041621472 2.500000000000001
    vertex 14.353208751013028 60.21199041621472 1.0574874309554614e-15
  endloop
endfacet
facet normal -0.9629831176545016 -0.2695617092845654 -1.0548617389509732e-32
  outer loop
    vertex 13.930990389238115 61.720324650450344 2.500000000000001
    vertex 14.353208751013028 60.21199041621472 1.0574874309554614e-15
    vertex 14.353208751013028 60.21199041621472 2.500000000000001
  endloop
endfacet
facet normal -0.9629831176545016 -0.2695617092845654 -1.0548617389509732e-32
  outer loop
    vertex 14.353208751013028 60.21199041621472 1.0574874309554614e-15
    vertex 13.930990389238115 61.720324650450344 2.500000000000001
    vertex 13.930990389238115 61.720324650450344 1.0574874309554614e-15
  endloop
endfacet
facet normal -0.8604025594296134 -0.5096149877377729 -4.477485972236777e-33
  outer loop
    vertex 13.132773143065956 63.067985488755156 2.500000000000001
    vertex 13.930990389238115 61.720324650450344 1.0574874309554614e-15
    vertex 13.930990389238115 61.720324650450344 2.500000000000001
  endloop
endfacet
facet normal -0.8604025594296134 -0.5096149877377729 -4.477485972236777e-33
  outer loop
    vertex 13.930990389238115 61.720324650450344 1.0574874309554614e-15
    vertex 13.132773143065956 63.067985488755156 2.500000000000001
    vertex 13.132773143065956 63.067985488755156 1.0574874309554614e-15
  endloop
endfacet
facet normal -0.6991869886620552 -0.7149388469552393 1.8987787146487162e-33
  outer loop
    vertex 13.132773143065956 63.067985488755156 2.500000000000001
    vertex 12.012954198706819 64.1631320721135 1.0574874309554614e-15
    vertex 13.132773143065956 63.067985488755156 1.0574874309554614e-15
  endloop
endfacet
facet normal -0.6991869886620552 -0.7149388469552393 1.8987787146487162e-33
  outer loop
    vertex 12.012954198706819 64.1631320721135 1.0574874309554614e-15
    vertex 13.132773143065956 63.067985488755156 2.500000000000001
    vertex 12.012954198706819 64.1631320721135 2.500000000000001
  endloop
endfacet
facet normal -0.4903229800783071 -0.8715408052450144 8.145644770011128e-33
  outer loop
    vertex 12.012954198706819 64.1631320721135 2.500000000000001
    vertex 10.647847366630469 64.93113197068482 1.0574874309554614e-15
    vertex 12.012954198706819 64.1631320721135 1.0574874309554614e-15
  endloop
endfacet
facet normal -0.4903229800783071 -0.8715408052450144 8.145644770011128e-33
  outer loop
    vertex 10.647847366630469 64.93113197068482 1.0574874309554614e-15
    vertex 12.012954198706819 64.1631320721135 2.500000000000001
    vertex 10.647847366630469 64.93113197068482 2.500000000000001
  endloop
endfacet
facet normal -0.2480442706992593 -0.9687486979466204 1.3837398595611714e-32
  outer loop
    vertex 10.647847366630469 64.93113197068482 2.500000000000001
    vertex 9.130482421497202 65.31964726056131 1.0574874309554614e-15
    vertex 10.647847366630469 64.93113197068482 1.0574874309554614e-15
  endloop
endfacet
facet normal -0.2480442706992593 -0.9687486979466204 1.3837398595611714e-32
  outer loop
    vertex 9.130482421497202 65.31964726056131 1.0574874309554614e-15
    vertex 10.647847366630469 64.93113197068482 2.500000000000001
    vertex 9.130482421497202 65.31964726056131 2.500000000000001
  endloop
endfacet
facet normal 0.011138245815398863 -0.9999379678160821 1.8586156574303654e-32
  outer loop
    vertex 9.130482421497202 65.31964726056131 2.500000000000001
    vertex 7.564265276753729 65.30220126678977 1.0574874309554614e-15
    vertex 9.130482421497202 65.31964726056131 1.0574874309554614e-15
  endloop
endfacet
facet normal 0.011138245815398863 -0.9999379678160821 1.8586156574303654e-32
  outer loop
    vertex 7.564265276753729 65.30220126678977 1.0574874309554614e-15
    vertex 9.130482421497202 65.31964726056131 2.500000000000001
    vertex 7.564265276753729 65.30220126678977 2.500000000000001
  endloop
endfacet
facet normal 0.2695617092845642 -0.962983117654502 2.2068298697532888e-32
  outer loop
    vertex 7.564265276753729 65.30220126678977 2.500000000000001
    vertex 6.0559310425180986 64.87998290501486 1.0574874309554614e-15
    vertex 7.564265276753729 65.30220126678977 1.0574874309554614e-15
  endloop
endfacet
facet normal 0.2695617092845642 -0.962983117654502 2.2068298697532888e-32
  outer loop
    vertex 6.0559310425180986 64.87998290501486 1.0574874309554614e-15
    vertex 7.564265276753729 65.30220126678977 2.500000000000001
    vertex 6.0559310425180986 64.87998290501486 2.500000000000001
  endloop
endfacet
facet normal 0.509614987737775 -0.8604025594296122 2.404652273411319e-32
  outer loop
    vertex 6.0559310425180986 64.87998290501486 2.500000000000001
    vertex 4.708270204213288 64.0817656588427 1.0574874309554614e-15
    vertex 6.0559310425180986 64.87998290501486 1.0574874309554614e-15
  endloop
endfacet
facet normal 0.509614987737775 -0.8604025594296122 2.404652273411319e-32
  outer loop
    vertex 4.708270204213288 64.0817656588427 1.0574874309554614e-15
    vertex 6.0559310425180986 64.87998290501486 2.500000000000001
    vertex 4.708270204213288 64.0817656588427 2.500000000000001
  endloop
endfacet
facet normal 0.7149388469552387 -0.6991869886620559 2.43860159851214e-32
  outer loop
    vertex 4.708270204213288 64.0817656588427 1.0574874309554614e-15
    vertex 3.6131236208549415 62.96194671448356 2.500000000000001
    vertex 3.6131236208549415 62.96194671448356 1.0574874309554614e-15
  endloop
endfacet
facet normal 0.7149388469552387 -0.6991869886620559 2.43860159851214e-32
  outer loop
    vertex 3.6131236208549415 62.96194671448356 2.500000000000001
    vertex 4.708270204213288 64.0817656588427 1.0574874309554614e-15
    vertex 4.708270204213288 64.0817656588427 2.500000000000001
  endloop
endfacet
facet normal 0.8715408052450145 -0.49032298007830705 2.3063642546540426e-32
  outer loop
    vertex 3.6131236208549415 62.96194671448356 1.0574874309554614e-15
    vertex 2.8451237222836254 61.59683988240721 2.500000000000001
    vertex 2.8451237222836254 61.59683988240721 1.0574874309554614e-15
  endloop
endfacet
facet normal 0.8715408052450145 -0.49032298007830705 2.3063642546540426e-32
  outer loop
    vertex 2.8451237222836254 61.59683988240721 2.500000000000001
    vertex 3.6131236208549415 62.96194671448356 1.0574874309554614e-15
    vertex 3.6131236208549415 62.96194671448356 2.500000000000001
  endloop
endfacet
facet normal 0.9687486979466198 -0.24804427069926252 2.016951998288418e-32
  outer loop
    vertex 2.8451237222836254 61.59683988240721 1.0574874309554614e-15
    vertex 2.456608432407133 60.07947493727395 2.500000000000001
    vertex 2.456608432407133 60.07947493727395 1.0574874309554614e-15
  endloop
endfacet
facet normal 0.9687486979466198 -0.24804427069926252 2.016951998288418e-32
  outer loop
    vertex 2.456608432407133 60.07947493727395 2.500000000000001
    vertex 2.8451237222836254 61.59683988240721 1.0574874309554614e-15
    vertex 2.8451237222836254 61.59683988240721 2.500000000000001
  endloop
endfacet
facet normal 0.999937967816082 0.011138245815401081 1.5900877964102083e-32
  outer loop
    vertex 2.456608432407133 60.07947493727395 1.0574874309554614e-15
    vertex 2.4740544261786757 58.51325779253047 2.500000000000001
    vertex 2.4740544261786757 58.51325779253047 1.0574874309554614e-15
  endloop
endfacet
facet normal 0.999937967816082 0.011138245815401081 1.5900877964102083e-32
  outer loop
    vertex 2.4740544261786757 58.51325779253047 2.500000000000001
    vertex 2.456608432407133 60.07947493727395 1.0574874309554614e-15
    vertex 2.456608432407133 60.07947493727395 2.500000000000001
  endloop
endfacet
facet normal 0.9629831176545012 0.26956170928456663 1.0548617389509702e-32
  outer loop
    vertex 2.4740544261786757 58.51325779253047 1.0574874309554614e-15
    vertex 2.8962727879535892 57.00492355829485 2.500000000000001
    vertex 2.8962727879535892 57.00492355829485 1.0574874309554614e-15
  endloop
endfacet
facet normal 0.9629831176545012 0.26956170928456663 1.0548617389509702e-32
  outer loop
    vertex 2.8962727879535892 57.00492355829485 2.500000000000001
    vertex 2.4740544261786757 58.51325779253047 1.0574874309554614e-15
    vertex 2.4740544261786757 58.51325779253047 2.500000000000001
  endloop
endfacet
facet normal 0.8604025594296142 0.5096149877377716 4.4774859722368144e-33
  outer loop
    vertex 2.8962727879535892 57.00492355829485 1.0574874309554614e-15
    vertex 3.6944900341257467 55.65726271999004 2.500000000000001
    vertex 3.6944900341257467 55.65726271999004 1.0574874309554614e-15
  endloop
endfacet
facet normal 0.8604025594296142 0.5096149877377716 4.4774859722368144e-33
  outer loop
    vertex 3.6944900341257467 55.65726271999004 2.500000000000001
    vertex 2.8962727879535892 57.00492355829485 1.0574874309554614e-15
    vertex 2.8962727879535892 57.00492355829485 2.500000000000001
  endloop
endfacet
facet normal 0.6991869886620543 0.7149388469552402 -1.898778714648747e-33
  outer loop
    vertex 3.6944900341257467 55.65726271999004 2.500000000000001
    vertex 4.8143089784848865 54.56211613663169 1.0574874309554614e-15
    vertex 3.6944900341257467 55.65726271999004 1.0574874309554614e-15
  endloop
endfacet
facet normal 0.6991869886620543 0.7149388469552402 -1.898778714648747e-33
  outer loop
    vertex 4.8143089784848865 54.56211613663169 1.0574874309554614e-15
    vertex 3.6944900341257467 55.65726271999004 2.500000000000001
    vertex 4.8143089784848865 54.56211613663169 2.500000000000001
  endloop
endfacet
facet normal 0.49032298007830755 0.8715408052450143 -8.145644770011117e-33
  outer loop
    vertex 4.8143089784848865 54.56211613663169 2.500000000000001
    vertex 6.179415810561235 53.79411623806037 1.0574874309554614e-15
    vertex 4.8143089784848865 54.56211613663169 1.0574874309554614e-15
  endloop
endfacet
facet normal 0.49032298007830755 0.8715408052450143 -8.145644770011117e-33
  outer loop
    vertex 6.179415810561235 53.79411623806037 1.0574874309554614e-15
    vertex 4.8143089784848865 54.56211613663169 2.500000000000001
    vertex 6.179415810561235 53.79411623806037 2.500000000000001
  endloop
endfacet
facet normal 0.24804427069925997 0.9687486979466203 -1.38373985956117e-32
  outer loop
    vertex 6.179415810561235 53.79411623806037 2.500000000000001
    vertex 7.696780755694497 53.40560094818388 1.0574874309554614e-15
    vertex 6.179415810561235 53.79411623806037 1.0574874309554614e-15
  endloop
endfacet
facet normal 0.24804427069925997 0.9687486979466203 -1.38373985956117e-32
  outer loop
    vertex 7.696780755694497 53.40560094818388 1.0574874309554614e-15
    vertex 6.179415810561235 53.79411623806037 2.500000000000001
    vertex 7.696780755694497 53.40560094818388 2.500000000000001
  endloop
endfacet
facet normal -0.011138245815398842 0.999937967816082 -1.8586156574303649e-32
  outer loop
    vertex 7.696780755694497 53.40560094818388 2.500000000000001
    vertex 9.262997900437973 53.42304694195542 1.0574874309554614e-15
    vertex 7.696780755694497 53.40560094818388 1.0574874309554614e-15
  endloop
endfacet
facet normal -0.011138245815398842 0.999937967816082 -1.8586156574303649e-32
  outer loop
    vertex 9.262997900437973 53.42304694195542 1.0574874309554614e-15
    vertex 7.696780755694497 53.40560094818388 2.500000000000001
    vertex 9.262997900437973 53.42304694195542 2.500000000000001
  endloop
endfacet
facet normal -0.26956170928456447 0.9629831176545018 -2.206829869753289e-32
  outer loop
    vertex 9.262997900437973 53.42304694195542 2.500000000000001
    vertex 10.771332134673601 53.845265303730336 1.0574874309554614e-15
    vertex 9.262997900437973 53.42304694195542 1.0574874309554614e-15
  endloop
endfacet
facet normal -0.26956170928456447 0.9629831176545018 -2.206829869753289e-32
  outer loop
    vertex 10.771332134673601 53.845265303730336 1.0574874309554614e-15
    vertex 9.262997900437973 53.42304694195542 2.500000000000001
    vertex 10.771332134673601 53.845265303730336 2.500000000000001
  endloop
endfacet
facet normal -0.5096149877377759 0.8604025594296117 -2.4046522734113196e-32
  outer loop
    vertex 10.771332134673601 53.845265303730336 2.500000000000001
    vertex 12.11899297297841 54.643482549902494 1.0574874309554614e-15
    vertex 10.771332134673601 53.845265303730336 1.0574874309554614e-15
  endloop
endfacet
facet normal -0.5096149877377759 0.8604025594296117 -2.4046522734113196e-32
  outer loop
    vertex 12.11899297297841 54.643482549902494 1.0574874309554614e-15
    vertex 10.771332134673601 53.845265303730336 2.500000000000001
    vertex 12.11899297297841 54.643482549902494 2.500000000000001
  endloop
endfacet
facet normal -0.7149388469552376 0.699186988662057 -2.4386015985121404e-32
  outer loop
    vertex 13.214139556336761 55.76330149426163 2.500000000000001
    vertex 12.11899297297841 54.643482549902494 1.0574874309554614e-15
    vertex 12.11899297297841 54.643482549902494 2.500000000000001
  endloop
endfacet
facet normal -0.7149388469552376 0.699186988662057 -2.4386015985121404e-32
  outer loop
    vertex 12.11899297297841 54.643482549902494 1.0574874309554614e-15
    vertex 13.214139556336761 55.76330149426163 2.500000000000001
    vertex 13.214139556336761 55.76330149426163 1.0574874309554614e-15
  endloop
endfacet
facet normal -0.8715408052450141 0.4903229800783077 -2.3063642546540432e-32
  outer loop
    vertex 13.982139454908078 57.12840832633798 2.500000000000001
    vertex 13.214139556336761 55.76330149426163 1.0574874309554614e-15
    vertex 13.214139556336761 55.76330149426163 2.500000000000001
  endloop
endfacet
facet normal -0.8715408052450141 0.4903229800783077 -2.3063642546540432e-32
  outer loop
    vertex 13.214139556336761 55.76330149426163 1.0574874309554614e-15
    vertex 13.982139454908078 57.12840832633798 2.500000000000001
    vertex 13.982139454908078 57.12840832633798 1.0574874309554614e-15
  endloop
endfacet
facet normal -0.0 -1.0 -0.0
  outer loop
    vertex 21.61363158859585 67.36262410437259 2.500000000000001
    vertex 16.61363158859585 67.36262410437259 1.0574874309554614e-15
    vertex 21.61363158859585 67.36262410437259 1.0574874309554614e-15
  endloop
endfacet
facet normal -0.0 -1.0 -0.0
  outer loop
    vertex 16.61363158859585 67.36262410437259 1.0574874309554614e-15
    vertex 21.61363158859585 67.36262410437259 2.500000000000001
    vertex 16.61363158859585 67.36262410437259 2.500000000000001
  endloop
endfacet
facet normal 1.0 0.0 0.0
  outer loop
    vertex 16.61363158859585 67.36262410437259 1.0574874309554614e-15
    vertex 16.61363158859585 51.3626241043726 2.500000000000001
    vertex 16.61363158859585 51.3626241043726 1.0574874309554614e-15
  endloop
endfacet
facet normal 1.0 0.0 0.0
  outer loop
    vertex 16.61363158859585 51.3626241043726 2.500000000000001
    vertex 16.61363158859585 67.36262410437259 1.0574874309554614e-15
    vertex 16.61363158859585 67.36262410437259 2.500000000000001
  endloop
endfacet
facet normal -0.0 1.0 -0.0
  outer loop
    vertex 16.61363158859585 51.3626241043726 2.500000000000001
    vertex 21.61363158859585 51.3626241043726 1.0574874309554614e-15
    vertex 16.61363158859585 51.3626241043726 1.0574874309554614e-15
  endloop
endfacet
facet normal -0.0 1.0 -0.0
  outer loop
    vertex 21.61363158859585 51.3626241043726 1.0574874309554614e-15
    vertex 16.61363158859585 51.3626241043726 2.500000000000001
    vertex 21.61363158859585 51.3626241043726 2.500000000000001
  endloop
endfacet
facet normal -1.0 0.0 -0.0
  outer loop
    vertex 21.61363158859585 67.36262410437259 2.500000000000001
    vertex 21.61363158859585 51.3626241043726 1.0574874309554614e-15
    vertex 21.61363158859585 51.3626241043726 2.500000000000001
  endloop
endfacet
facet normal -1.0 0.0 -0.0
  outer loop
    vertex 21.61363158859585 51.3626241043726 1.0574874309554614e-15
    vertex 21.61363158859585 67.36262410437259 2.500000000000001
    vertex 21.61363158859585 67.36262410437259 1.0574874309554614e-15
  endloop
endfacet
facet normal 0.0 0.0 1.0
  outer loop
    vertex 45.11363158859585 43.3626241043726 16.5
    vertex 1.3636315885958512 44.6126241043726 16.5
    vertex 1.113631588595852 43.3626241043726 16.5
  endloop
endfacet
facet normal 0.0 0.0 1.0
  outer loop
    vertex 1.3636315885958512 44.6126241043726 16.5
    vertex 45.11363158859585 43.3626241043726 16.5
    vertex 44.86363158859586 44.6126241043726 16.5
  endloop
endfacet
facet normal 0.0 0.0 1.0
  outer loop
    vertex 44.86363158859586 44.6126241043726 16.5
    vertex 45.11363158859585 43.3626241043726 16.5
    vertex 44.86363158859586 51.1126241043726 16.5
  endloop
endfacet
facet normal 0.0 0.0 1.0
  outer loop
    vertex 44.86363158859586 51.1126241043726 16.5
    vertex 45.11363158859585 43.3626241043726 16.5
    vertex 46.10450958859585 51.1126241043726 16.5
  endloop
endfacet
facet normal 0.0 0.0 1.0
  outer loop
    vertex 46.10450958859585 51.1126241043726 16.5
    vertex 45.11363158859585 43.3626241043726 16.5
    vertex 45.37245063369838 43.396698278083534 16.5
  endloop
endfacet
facet normal 0.0 0.0 1.0
  outer loop
    vertex 46.10450958859585 51.1126241043726 16.5
    vertex 45.37245063369838 43.396698278083534 16.5
    vertex 45.61363158859585 43.49659870058816 16.5
  endloop
endfacet
facet normal 0.0 0.0 1.0
  outer loop
    vertex 46.10450958859585 51.1126241043726 16.5
    vertex 45.61363158859585 43.49659870058816 16.5
    vertex 45.8207383697824 43.655517323186054 16.5
  endloop
endfacet
facet normal 0.0 0.0 1.0
  outer loop
    vertex 46.10450958859585 51.1126241043726 16.5
    vertex 45.8207383697824 43.655517323186054 16.5
    vertex 45.97965699238029 43.8626241043726 16.5
  endloop
endfacet
facet normal 0.0 0.0 1.0
  outer loop
    vertex 46.10450958859585 51.1126241043726 16.5
    vertex 45.97965699238029 43.8626241043726 16.5
    vertex 46.079557414884924 44.10380505927008 16.5
  endloop
endfacet
facet normal 0.0 0.0 1.0
  outer loop
    vertex 46.10450958859585 51.1126241043726 16.5
    vertex 46.079557414884924 44.10380505927008 16.5
    vertex 46.11363158859585 44.3626241043726 16.5
  endloop
endfacet
facet normal 0.0 0.0 1.0
  outer loop
    vertex 46.10450958859585 67.6126241043726 16.5
    vertex 44.86363158859586 74.1126241043726 16.5
    vertex 44.86363158859586 67.6126241043726 16.5
  endloop
endfacet
facet normal 0.0 0.0 1.0
  outer loop
    vertex 44.86363158859586 74.1126241043726 16.5
    vertex 46.10450958859585 67.6126241043726 16.5
    vertex 45.11363158859585 75.3626241043726 16.5
  endloop
endfacet
facet normal 0.0 0.0 1.0
  outer loop
    vertex 45.11363158859585 75.3626241043726 16.5
    vertex 46.10450958859585 67.6126241043726 16.5
    vertex 45.37245063369838 75.32854993066168 16.5
  endloop
endfacet
facet normal 0.0 0.0 1.0
  outer loop
    vertex 45.37245063369838 75.32854993066168 16.5
    vertex 46.10450958859585 67.6126241043726 16.5
    vertex 45.61363158859585 75.22864950815703 16.5
  endloop
endfacet
facet normal 0.0 0.0 1.0
  outer loop
    vertex 45.61363158859585 75.22864950815703 16.5
    vertex 46.10450958859585 67.6126241043726 16.5
    vertex 45.8207383697824 75.06973088555915 16.5
  endloop
endfacet
facet normal 0.0 0.0 1.0
  outer loop
    vertex 45.8207383697824 75.06973088555915 16.5
    vertex 46.10450958859585 67.6126241043726 16.5
    vertex 45.97965699238029 74.8626241043726 16.5
  endloop
endfacet
facet normal 0.0 0.0 1.0
  outer loop
    vertex 45.97965699238029 74.8626241043726 16.5
    vertex 46.10450958859585 67.6126241043726 16.5
    vertex 46.079557414884924 74.62144314947513 16.5
  endloop
endfacet
facet normal 0.0 0.0 1.0
  outer loop
    vertex 46.079557414884924 74.62144314947513 16.5
    vertex 46.10450958859585 67.6126241043726 16.5
    vertex 46.11363158859585 74.3626241043726 16.5
  endloop
endfacet
facet normal 0.0 0.0 1.0
  outer loop
    vertex 0.14770576230678398 44.10380505927008 16.5
    vertex 0.11363158859585222 74.3626241043726 16.5
    vertex 0.11363158859585222 44.3626241043726 16.5
  endloop
endfacet
facet normal 0.0 0.0 1.0
  outer loop
    vertex 0.11363158859585222 74.3626241043726 16.5
    vertex 0.14770576230678398 44.10380505927008 16.5
    vertex 0.1477057623067838 74.62144314947513 16.5
  endloop
endfacet
facet normal 0.0 0.0 1.0
  outer loop
    vertex 0.1477057623067838 74.62144314947513 16.5
    vertex 0.14770576230678398 44.10380505927008 16.5
    vertex 0.24760618481141333 74.8626241043726 16.5
  endloop
endfacet
facet normal 0.0 0.0 1.0
  outer loop
    vertex 0.24760618481141333 74.8626241043726 16.5
    vertex 0.14770576230678398 44.10380505927008 16.5
    vertex 0.2476061848114135 43.8626241043726 16.5
  endloop
endfacet
facet normal 0.0 0.0 1.0
  outer loop
    vertex 0.24760618481141333 74.8626241043726 16.5
    vertex 0.2476061848114135 43.8626241043726 16.5
    vertex 0.40652480740930436 75.06973088555915 16.5
  endloop
endfacet
facet normal 0.0 0.0 1.0
  outer loop
    vertex 0.40652480740930436 75.06973088555915 16.5
    vertex 0.2476061848114135 43.8626241043726 16.5
    vertex 0.4065248074093045 43.655517323186054 16.5
  endloop
endfacet
facet normal 0.0 0.0 1.0
  outer loop
    vertex 0.40652480740930436 75.06973088555915 16.5
    vertex 0.4065248074093045 43.655517323186054 16.5
    vertex 0.6136315885958515 75.22864950815703 16.5
  endloop
endfacet
facet normal 0.0 0.0 1.0
  outer loop
    vertex 0.6136315885958515 75.22864950815703 16.5
    vertex 0.4065248074093045 43.655517323186054 16.5
    vertex 0.613631588595852 43.49659870058816 16.5
  endloop
endfacet
facet normal 0.0 0.0 1.0
  outer loop
    vertex 0.6136315885958515 75.22864950815703 16.5
    vertex 0.613631588595852 43.49659870058816 16.5
    vertex 0.8548125434933305 75.32854993066167 16.5
  endloop
endfacet
facet normal 0.0 0.0 1.0
  outer loop
    vertex 0.8548125434933305 75.32854993066167 16.5
    vertex 0.613631588595852 43.49659870058816 16.5
    vertex 0.8548125434933311 43.396698278083534 16.5
  endloop
endfacet
facet normal 0.0 0.0 1.0
  outer loop
    vertex 0.8548125434933305 75.32854993066167 16.5
    vertex 0.8548125434933311 43.396698278083534 16.5
    vertex 1.1136315885958512 75.3626241043726 16.5
  endloop
endfacet
facet normal 0.0 0.0 1.0
  outer loop
    vertex 1.1136315885958512 75.3626241043726 16.5
    vertex 0.8548125434933311 43.396698278083534 16.5
    vertex 1.113631588595852 43.3626241043726 16.5
  endloop
endfacet
facet normal 0.0 0.0 1.0
  outer loop
    vertex 1.1136315885958512 75.3626241043726 16.5
    vertex 1.113631588595852 43.3626241043726 16.5
    vertex 1.3636315885958512 74.1126241043726 16.5
  endloop
endfacet
facet normal 0.0 0.0 1.0
  outer loop
    vertex 1.1136315885958512 75.3626241043726 16.5
    vertex 1.3636315885958512 74.1126241043726 16.5
    vertex 45.11363158859585 75.3626241043726 16.5
  endloop
endfacet
facet normal 0.0 0.0 1.0
  outer loop
    vertex 1.3636315885958512 74.1126241043726 16.5
    vertex 1.113631588595852 43.3626241043726 16.5
    vertex 1.3636315885958512 44.6126241043726 16.5
  endloop
endfacet
facet normal 0.0 0.0 1.0
  outer loop
    vertex 45.11363158859585 75.3626241043726 16.5
    vertex 1.3636315885958512 74.1126241043726 16.5
    vertex 44.86363158859586 74.1126241043726 16.5
  endloop
endfacet
facet normal -0.0 -0.0 1.0
  outer loop
    vertex 46.10450958859585 51.1126241043726 3.5000000000000004
    vertex 44.11363158859586 67.6126241043726 3.5000000000000004
    vertex 44.11363158859585 51.1126241043726 3.5000000000000004
  endloop
endfacet
facet normal -0.0 -0.0 1.0
  outer loop
    vertex 44.11363158859586 67.6126241043726 3.5000000000000004
    vertex 46.10450958859585 51.1126241043726 3.5000000000000004
    vertex 46.10450958859585 67.6126241043726 3.5000000000000004
  endloop
endfacet
facet normal 1.0 0.0 0.0
  outer loop
    vertex 44.86363158859586 51.1126241043726 16.5
    vertex 44.86363158859586 44.6126241043726 24.5
    vertex 44.86363158859586 44.6126241043726 16.5
  endloop
endfacet
facet normal 1.0 0.0 0.0
  outer loop
    vertex 44.86363158859586 44.6126241043726 24.5
    vertex 44.86363158859586 51.1126241043726 16.5
    vertex 44.86363158859586 51.1126241043726 24.5
  endloop
endfacet
facet normal 1.0 0.0 0.0
  outer loop
    vertex 44.86363158859586 74.1126241043726 16.5
    vertex 44.86363158859586 67.6126241043726 24.5
    vertex 44.86363158859586 67.6126241043726 16.5
  endloop
endfacet
facet normal 1.0 0.0 0.0
  outer loop
    vertex 44.86363158859586 67.6126241043726 24.5
    vertex 44.86363158859586 74.1126241043726 16.5
    vertex 44.86363158859586 74.1126241043726 24.5
  endloop
endfacet
facet normal -1.0 1.779851956313741e-16 8.653209169450883e-17
  outer loop
    vertex 44.11363158859586 73.3626241043726 24.5
    vertex 44.11363158859586 67.6126241043726 3.5000000000000004
    vertex 44.11363158859586 67.6126241043726 24.5
  endloop
endfacet
facet normal -1.0 1.779851956313741e-16 8.653209169450883e-17
  outer loop
    vertex 44.11363158859586 51.1126241043726 24.5
    vertex 44.11363158859585 45.3626241043726 2.500000000000001
    vertex 44.11363158859585 45.3626241043726 24.5
  endloop
endfacet
facet normal -1.0 1.779851956313741e-16 8.653209169450883e-17
  outer loop
    vertex 44.11363158859585 45.3626241043726 2.500000000000001
    vertex 44.11363158859586 51.1126241043726 24.5
    vertex 44.11363158859585 51.1126241043726 3.5000000000000004
  endloop
endfacet
facet normal -1.0 1.779851956313741e-16 8.653209169450883e-17
  outer loop
    vertex 44.11363158859585 45.3626241043726 2.500000000000001
    vertex 44.11363158859585 51.1126241043726 3.5000000000000004
    vertex 44.11363158859586 73.3626241043726 2.500000000000001
  endloop
endfacet
facet normal -1.0 1.779851956313741e-16 8.653209169450883e-17
  outer loop
    vertex 44.11363158859586 73.3626241043726 2.500000000000001
    vertex 44.11363158859585 51.1126241043726 3.5000000000000004
    vertex 44.11363158859586 67.6126241043726 3.5000000000000004
  endloop
endfacet
facet normal -1.0 1.779851956313741e-16 8.653209169450883e-17
  outer loop
    vertex 44.11363158859586 73.3626241043726 2.500000000000001
    vertex 44.11363158859586 67.6126241043726 3.5000000000000004
    vertex 44.11363158859586 73.3626241043726 24.5
  endloop
endfacet
facet normal 0.9999999505286101 2.7181134018444267e-21 0.00031455170857650004
  outer loop
    vertex 46.11363158859585 44.3626241043726 0.0
    vertex 46.10450958859585 51.1126241043726 3.5000000000000004
    vertex 46.11363158859585 44.3626241043726 16.5
  endloop
endfacet
facet normal 0.9999999505286101 2.7181134018444267e-21 0.00031455170857650004
  outer loop
    vertex 46.10450958859585 51.1126241043726 3.5000000000000004
    vertex 46.11363158859585 44.3626241043726 0.0
    vertex 46.11363158859585 74.3626241043726 0.0
  endloop
endfacet
facet normal 0.9999999505286101 2.7181134018444267e-21 0.00031455170857650004
  outer loop
    vertex 46.10450958859585 51.1126241043726 3.5000000000000004
    vertex 46.11363158859585 74.3626241043726 0.0
    vertex 46.10450958859585 67.6126241043726 3.5000000000000004
  endloop
endfacet
facet normal 0.9999999505286101 2.7181134018444267e-21 0.00031455170857650004
  outer loop
    vertex 46.10450958859585 67.6126241043726 3.5000000000000004
    vertex 46.11363158859585 74.3626241043726 0.0
    vertex 46.10450958859585 67.6126241043726 16.5
  endloop
endfacet
facet normal 0.9999999505286101 2.7181134018444267e-21 0.00031455170857650004
  outer loop
    vertex 46.10450958859585 67.6126241043726 16.5
    vertex 46.11363158859585 74.3626241043726 0.0
    vertex 46.11363158859585 74.3626241043726 16.5
  endloop
endfacet
facet normal 0.9999999505286101 2.7181134018444267e-21 0.00031455170857650004
  outer loop
    vertex 46.10450958859585 51.1126241043726 16.5
    vertex 46.11363158859585 44.3626241043726 16.5
    vertex 46.10450958859585 51.1126241043726 3.5000000000000004
  endloop
endfacet
facet normal -0.0 1.0 -0.0
  outer loop
    vertex 44.11363158859585 51.1126241043726 3.5000000000000004
    vertex 44.86363158859586 51.1126241043726 16.5
    vertex 46.10450958859585 51.1126241043726 3.5000000000000004
  endloop
endfacet
facet normal -0.0 1.0 -0.0
  outer loop
    vertex 44.86363158859586 51.1126241043726 16.5
    vertex 44.11363158859585 51.1126241043726 3.5000000000000004
    vertex 44.11363158859586 51.1126241043726 24.5
  endloop
endfacet
facet normal -0.0 1.0 -0.0
  outer loop
    vertex 44.86363158859586 51.1126241043726 16.5
    vertex 44.11363158859586 51.1126241043726 24.5
    vertex 44.86363158859586 51.1126241043726 24.5
  endloop
endfacet
facet normal -0.0 1.0 -0.0
  outer loop
    vertex 46.10450958859585 51.1126241043726 16.5
    vertex 46.10450958859585 51.1126241043726 3.5000000000000004
    vertex 44.86363158859586 51.1126241043726 16.5
  endloop
endfacet
facet normal 1.0 0.0 0.0
  outer loop
    vertex 2.113631588595851 73.3626241043726 2.500000000000001
    vertex 2.113631588595851 45.3626241043726 24.5
    vertex 2.113631588595851 45.3626241043726 2.500000000000001
  endloop
endfacet
facet normal 1.0 0.0 0.0
  outer loop
    vertex 2.113631588595851 45.3626241043726 24.5
    vertex 2.113631588595851 73.3626241043726 2.500000000000001
    vertex 2.113631588595851 73.3626241043726 24.5
  endloop
endfacet
facet normal -0.0 -0.0 1.0
  outer loop
    vertex 2.113631588595851 45.3626241043726 2.500000000000001
    vertex 2.4740544261786757 58.51325779253047 2.500000000000001
    vertex 2.113631588595851 73.3626241043726 2.500000000000001
  endloop
endfacet
facet normal -0.0 -0.0 1.0
  outer loop
    vertex 2.4740544261786757 58.51325779253047 2.500000000000001
    vertex 2.113631588595851 45.3626241043726 2.500000000000001
    vertex 2.8962727879535892 57.00492355829485 2.500000000000001
  endloop
endfacet
facet normal -0.0 -0.0 1.0
  outer loop
    vertex 2.8962727879535892 57.00492355829485 2.500000000000001
    vertex 2.113631588595851 45.3626241043726 2.500000000000001
    vertex 3.6944900341257467 55.65726271999004 2.500000000000001
  endloop
endfacet
facet normal -0.0 -0.0 1.0
  outer loop
    vertex 3.6944900341257467 55.65726271999004 2.500000000000001
    vertex 2.113631588595851 45.3626241043726 2.500000000000001
    vertex 4.8143089784848865 54.56211613663169 2.500000000000001
  endloop
endfacet
facet normal -0.0 -0.0 1.0
  outer loop
    vertex 4.8143089784848865 54.56211613663169 2.500000000000001
    vertex 2.113631588595851 45.3626241043726 2.500000000000001
    vertex 6.179415810561235 53.79411623806037 2.500000000000001
  endloop
endfacet
facet normal -0.0 -0.0 1.0
  outer loop
    vertex 6.179415810561235 53.79411623806037 2.500000000000001
    vertex 2.113631588595851 45.3626241043726 2.500000000000001
    vertex 7.696780755694497 53.40560094818388 2.500000000000001
  endloop
endfacet
facet normal -0.0 -0.0 1.0
  outer loop
    vertex 7.696780755694497 53.40560094818388 2.500000000000001
    vertex 2.113631588595851 45.3626241043726 2.500000000000001
    vertex 16.61363158859585 51.3626241043726 2.500000000000001
  endloop
endfacet
facet normal -0.0 -0.0 1.0
  outer loop
    vertex 16.61363158859585 51.3626241043726 2.500000000000001
    vertex 2.113631588595851 45.3626241043726 2.500000000000001
    vertex 44.11363158859585 45.3626241043726 2.500000000000001
  endloop
endfacet
facet normal -0.0 -0.0 1.0
  outer loop
    vertex 2.113631588595851 73.3626241043726 2.500000000000001
    vertex 2.4740544261786757 58.51325779253047 2.500000000000001
    vertex 2.456608432407133 60.07947493727395 2.500000000000001
  endloop
endfacet
facet normal -0.0 -0.0 1.0
  outer loop
    vertex 7.696780755694497 53.40560094818388 2.500000000000001
    vertex 16.61363158859585 51.3626241043726 2.500000000000001
    vertex 9.262997900437973 53.42304694195542 2.500000000000001
  endloop
endfacet
facet normal -0.0 -0.0 1.0
  outer loop
    vertex 9.262997900437973 53.42304694195542 2.500000000000001
    vertex 16.61363158859585 51.3626241043726 2.500000000000001
    vertex 10.771332134673601 53.845265303730336 2.500000000000001
  endloop
endfacet
facet normal -0.0 -0.0 1.0
  outer loop
    vertex 10.771332134673601 53.845265303730336 2.500000000000001
    vertex 16.61363158859585 51.3626241043726 2.500000000000001
    vertex 12.11899297297841 54.643482549902494 2.500000000000001
  endloop
endfacet
facet normal -0.0 -0.0 1.0
  outer loop
    vertex 12.11899297297841 54.643482549902494 2.500000000000001
    vertex 16.61363158859585 51.3626241043726 2.500000000000001
    vertex 13.214139556336761 55.76330149426163 2.500000000000001
  endloop
endfacet
facet normal -0.0 -0.0 1.0
  outer loop
    vertex 13.214139556336761 55.76330149426163 2.500000000000001
    vertex 16.61363158859585 51.3626241043726 2.500000000000001
    vertex 13.982139454908078 57.12840832633798 2.500000000000001
  endloop
endfacet
facet normal -0.0 -0.0 1.0
  outer loop
    vertex 13.982139454908078 57.12840832633798 2.500000000000001
    vertex 16.61363158859585 51.3626241043726 2.500000000000001
    vertex 14.37065474478457 58.64577327147124 2.500000000000001
  endloop
endfacet
facet normal -0.0 -0.0 1.0
  outer loop
    vertex 16.61363158859585 51.3626241043726 2.500000000000001
    vertex 44.11363158859585 45.3626241043726 2.500000000000001
    vertex 21.61363158859585 51.3626241043726 2.500000000000001
  endloop
endfacet
facet normal -0.0 -0.0 1.0
  outer loop
    vertex 21.61363158859585 51.3626241043726 2.500000000000001
    vertex 44.11363158859585 45.3626241043726 2.500000000000001
    vertex 21.61363158859585 67.36262410437259 2.500000000000001
  endloop
endfacet
facet normal -0.0 -0.0 1.0
  outer loop
    vertex 2.113631588595851 73.3626241043726 2.500000000000001
    vertex 16.61363158859585 67.36262410437259 2.500000000000001
    vertex 44.11363158859586 73.3626241043726 2.500000000000001
  endloop
endfacet
facet normal -0.0 -0.0 1.0
  outer loop
    vertex 16.61363158859585 67.36262410437259 2.500000000000001
    vertex 2.113631588595851 73.3626241043726 2.500000000000001
    vertex 7.564265276753729 65.30220126678977 2.500000000000001
  endloop
endfacet
facet normal -0.0 -0.0 1.0
  outer loop
    vertex 7.564265276753729 65.30220126678977 2.500000000000001
    vertex 2.113631588595851 73.3626241043726 2.500000000000001
    vertex 6.0559310425180986 64.87998290501486 2.500000000000001
  endloop
endfacet
facet normal -0.0 -0.0 1.0
  outer loop
    vertex 6.0559310425180986 64.87998290501486 2.500000000000001
    vertex 2.113631588595851 73.3626241043726 2.500000000000001
    vertex 4.708270204213288 64.0817656588427 2.500000000000001
  endloop
endfacet
facet normal -0.0 -0.0 1.0
  outer loop
    vertex 4.708270204213288 64.0817656588427 2.500000000000001
    vertex 2.113631588595851 73.3626241043726 2.500000000000001
    vertex 3.6131236208549415 62.96194671448356 2.500000000000001
  endloop
endfacet
facet normal -0.0 -0.0 1.0
  outer loop
    vertex 3.6131236208549415 62.96194671448356 2.500000000000001
    vertex 2.113631588595851 73.3626241043726 2.500000000000001
    vertex 2.8451237222836254 61.59683988240721 2.500000000000001
  endloop
endfacet
facet normal -0.0 -0.0 1.0
  outer loop
    vertex 2.8451237222836254 61.59683988240721 2.500000000000001
    vertex 2.113631588595851 73.3626241043726 2.500000000000001
    vertex 2.456608432407133 60.07947493727395 2.500000000000001
  endloop
endfacet
facet normal -0.0 -0.0 1.0
  outer loop
    vertex 16.61363158859585 67.36262410437259 2.500000000000001
    vertex 7.564265276753729 65.30220126678977 2.500000000000001
    vertex 9.130482421497202 65.31964726056131 2.500000000000001
  endloop
endfacet
facet normal -0.0 -0.0 1.0
  outer loop
    vertex 16.61363158859585 67.36262410437259 2.500000000000001
    vertex 9.130482421497202 65.31964726056131 2.500000000000001
    vertex 10.647847366630469 64.93113197068482 2.500000000000001
  endloop
endfacet
facet normal -0.0 -0.0 1.0
  outer loop
    vertex 16.61363158859585 67.36262410437259 2.500000000000001
    vertex 10.647847366630469 64.93113197068482 2.500000000000001
    vertex 12.012954198706819 64.1631320721135 2.500000000000001
  endloop
endfacet
facet normal -0.0 -0.0 1.0
  outer loop
    vertex 16.61363158859585 67.36262410437259 2.500000000000001
    vertex 12.012954198706819 64.1631320721135 2.500000000000001
    vertex 13.132773143065956 63.067985488755156 2.500000000000001
  endloop
endfacet
facet normal -0.0 -0.0 1.0
  outer loop
    vertex 16.61363158859585 67.36262410437259 2.500000000000001
    vertex 13.132773143065956 63.067985488755156 2.500000000000001
    vertex 13.930990389238115 61.720324650450344 2.500000000000001
  endloop
endfacet
facet normal -0.0 -0.0 1.0
  outer loop
    vertex 16.61363158859585 67.36262410437259 2.500000000000001
    vertex 13.930990389238115 61.720324650450344 2.500000000000001
    vertex 14.353208751013028 60.21199041621472 2.500000000000001
  endloop
endfacet
facet normal -0.0 -0.0 1.0
  outer loop
    vertex 16.61363158859585 67.36262410437259 2.500000000000001
    vertex 14.353208751013028 60.21199041621472 2.500000000000001
    vertex 14.37065474478457 58.64577327147124 2.500000000000001
  endloop
endfacet
facet normal -0.0 -0.0 1.0
  outer loop
    vertex 16.61363158859585 67.36262410437259 2.500000000000001
    vertex 14.37065474478457 58.64577327147124 2.500000000000001
    vertex 16.61363158859585 51.3626241043726 2.500000000000001
  endloop
endfacet
facet normal -0.0 -0.0 1.0
  outer loop
    vertex 44.11363158859586 73.3626241043726 2.500000000000001
    vertex 16.61363158859585 67.36262410437259 2.500000000000001
    vertex 21.61363158859585 67.36262410437259 2.500000000000001
  endloop
endfacet
facet normal -0.0 -0.0 1.0
  outer loop
    vertex 44.11363158859586 73.3626241043726 2.500000000000001
    vertex 21.61363158859585 67.36262410437259 2.500000000000001
    vertex 44.11363158859585 45.3626241043726 2.500000000000001
  endloop
endfacet
endsolid enclosure
