G04 #@! TF.FileFunction,Copper,L2,Bot,Signal*
%FSLAX46Y46*%
G04 Gerber Fmt 4.6, Leading zero omitted, Abs format (unit mm)*
G04 Created by KiCad (PCBNEW 4.0.7) date 08/03/18 16:25:06*
%MOMM*%
%LPD*%
G01*
G04 APERTURE LIST*
%ADD10C,0.100000*%
%ADD11R,1.700000X1.700000*%
%ADD12O,1.700000X1.700000*%
%ADD13R,3.000000X3.000000*%
%ADD14C,3.000000*%
%ADD15C,1.800000*%
%ADD16C,0.685800*%
%ADD17C,0.254000*%
G04 APERTURE END LIST*
D10*
D11*
X155000000Y-99800000D03*
D12*
X152460000Y-99800000D03*
D11*
X142200000Y-99800000D03*
D12*
X144740000Y-99800000D03*
X147280000Y-99800000D03*
D11*
X147000000Y-90200000D03*
D12*
X149540000Y-90200000D03*
X152080000Y-90200000D03*
D13*
X143600000Y-116800000D03*
D14*
X148680000Y-116800000D03*
X153760000Y-116800000D03*
D15*
X137071100Y-94843600D03*
X137071100Y-97383600D03*
X137071100Y-99923600D03*
X137071100Y-102463600D03*
X137071100Y-105003600D03*
X137071100Y-107543600D03*
X137071100Y-110083600D03*
X137071100Y-112623600D03*
X159931100Y-112623600D03*
X159931100Y-110083600D03*
X159931100Y-107543600D03*
X159931100Y-105003600D03*
X159931100Y-102463600D03*
X159931100Y-99923600D03*
X159931100Y-97383600D03*
X159931100Y-94843600D03*
D16*
X150600000Y-106200000D03*
X147600000Y-106200000D03*
D17*
G36*
X158377593Y-87524395D02*
X159541472Y-88224379D01*
X160348885Y-89316480D01*
X160690000Y-90687028D01*
X160690000Y-93496649D01*
X160237770Y-93308867D01*
X159627109Y-93308335D01*
X159062729Y-93541532D01*
X158630549Y-93972957D01*
X158396367Y-94536930D01*
X158395835Y-95147591D01*
X158629032Y-95711971D01*
X159030282Y-96113923D01*
X158630549Y-96512957D01*
X158396367Y-97076930D01*
X158395835Y-97687591D01*
X158629032Y-98251971D01*
X159030282Y-98653923D01*
X158630549Y-99052957D01*
X158396367Y-99616930D01*
X158395835Y-100227591D01*
X158629032Y-100791971D01*
X159030282Y-101193923D01*
X158630549Y-101592957D01*
X158396367Y-102156930D01*
X158395835Y-102767591D01*
X158629032Y-103331971D01*
X159030282Y-103733923D01*
X158630549Y-104132957D01*
X158396367Y-104696930D01*
X158395835Y-105307591D01*
X158629032Y-105871971D01*
X159030282Y-106273923D01*
X158630549Y-106672957D01*
X158396367Y-107236930D01*
X158395835Y-107847591D01*
X158629032Y-108411971D01*
X159030282Y-108813923D01*
X158630549Y-109212957D01*
X158396367Y-109776930D01*
X158395835Y-110387591D01*
X158629032Y-110951971D01*
X159060457Y-111384151D01*
X159081294Y-111392803D01*
X159030546Y-111543441D01*
X159931100Y-112443995D01*
X159945243Y-112429853D01*
X160124848Y-112609458D01*
X160110705Y-112623600D01*
X160124848Y-112637743D01*
X159945243Y-112817348D01*
X159931100Y-112803205D01*
X159030546Y-113703759D01*
X159116952Y-113960243D01*
X159690436Y-114170058D01*
X160300560Y-114144439D01*
X160690000Y-113983127D01*
X160690000Y-120690000D01*
X136110000Y-120690000D01*
X136110000Y-115300000D01*
X141452560Y-115300000D01*
X141452560Y-118300000D01*
X141496838Y-118535317D01*
X141635910Y-118751441D01*
X141848110Y-118896431D01*
X142100000Y-118947440D01*
X145100000Y-118947440D01*
X145335317Y-118903162D01*
X145551441Y-118764090D01*
X145696431Y-118551890D01*
X145747440Y-118300000D01*
X145747440Y-117222815D01*
X146544630Y-117222815D01*
X146868980Y-118007800D01*
X147469041Y-118608909D01*
X148253459Y-118934628D01*
X149102815Y-118935370D01*
X149887800Y-118611020D01*
X150488909Y-118010959D01*
X150814628Y-117226541D01*
X150814631Y-117222815D01*
X151624630Y-117222815D01*
X151948980Y-118007800D01*
X152549041Y-118608909D01*
X153333459Y-118934628D01*
X154182815Y-118935370D01*
X154967800Y-118611020D01*
X155568909Y-118010959D01*
X155894628Y-117226541D01*
X155895370Y-116377185D01*
X155571020Y-115592200D01*
X154970959Y-114991091D01*
X154186541Y-114665372D01*
X153337185Y-114664630D01*
X152552200Y-114988980D01*
X151951091Y-115589041D01*
X151625372Y-116373459D01*
X151624630Y-117222815D01*
X150814631Y-117222815D01*
X150815370Y-116377185D01*
X150491020Y-115592200D01*
X149890959Y-114991091D01*
X149106541Y-114665372D01*
X148257185Y-114664630D01*
X147472200Y-114988980D01*
X146871091Y-115589041D01*
X146545372Y-116373459D01*
X146544630Y-117222815D01*
X145747440Y-117222815D01*
X145747440Y-115300000D01*
X145703162Y-115064683D01*
X145564090Y-114848559D01*
X145351890Y-114703569D01*
X145100000Y-114652560D01*
X142100000Y-114652560D01*
X141864683Y-114696838D01*
X141648559Y-114835910D01*
X141503569Y-115048110D01*
X141452560Y-115300000D01*
X136110000Y-115300000D01*
X136110000Y-113833536D01*
X136200457Y-113924151D01*
X136764430Y-114158333D01*
X137375091Y-114158865D01*
X137939471Y-113925668D01*
X138371651Y-113494243D01*
X138605833Y-112930270D01*
X138606309Y-112382936D01*
X158384642Y-112382936D01*
X158410261Y-112993060D01*
X158594457Y-113437748D01*
X158850941Y-113524154D01*
X159751495Y-112623600D01*
X158850941Y-111723046D01*
X158594457Y-111809452D01*
X158384642Y-112382936D01*
X138606309Y-112382936D01*
X138606365Y-112319609D01*
X138373168Y-111755229D01*
X137971918Y-111353277D01*
X138371651Y-110954243D01*
X138605833Y-110390270D01*
X138606365Y-109779609D01*
X138373168Y-109215229D01*
X137971918Y-108813277D01*
X138371651Y-108414243D01*
X138605833Y-107850270D01*
X138606365Y-107239609D01*
X138373168Y-106675229D01*
X137971918Y-106273277D01*
X138371651Y-105874243D01*
X138605833Y-105310270D01*
X138606365Y-104699609D01*
X138373168Y-104135229D01*
X137971918Y-103733277D01*
X138371651Y-103334243D01*
X138605833Y-102770270D01*
X138606365Y-102159609D01*
X138373168Y-101595229D01*
X137971918Y-101193277D01*
X138371651Y-100794243D01*
X138605833Y-100230270D01*
X138606365Y-99619609D01*
X138373168Y-99055229D01*
X138268123Y-98950000D01*
X140702560Y-98950000D01*
X140702560Y-100650000D01*
X140746838Y-100885317D01*
X140885910Y-101101441D01*
X141098110Y-101246431D01*
X141350000Y-101297440D01*
X143050000Y-101297440D01*
X143285317Y-101253162D01*
X143501441Y-101114090D01*
X143646431Y-100901890D01*
X143660086Y-100834459D01*
X143689946Y-100879147D01*
X144171715Y-101201054D01*
X144740000Y-101314093D01*
X145308285Y-101201054D01*
X145790054Y-100879147D01*
X146017702Y-100538447D01*
X146084817Y-100681358D01*
X146513076Y-101071645D01*
X146923110Y-101241476D01*
X147153000Y-101120155D01*
X147153000Y-99927000D01*
X147407000Y-99927000D01*
X147407000Y-101120155D01*
X147636890Y-101241476D01*
X148046924Y-101071645D01*
X148475183Y-100681358D01*
X148721486Y-100156892D01*
X148600819Y-99927000D01*
X147407000Y-99927000D01*
X147153000Y-99927000D01*
X147133000Y-99927000D01*
X147133000Y-99770907D01*
X150975000Y-99770907D01*
X150975000Y-99829093D01*
X151088039Y-100397378D01*
X151409946Y-100879147D01*
X151891715Y-101201054D01*
X152460000Y-101314093D01*
X153028285Y-101201054D01*
X153510054Y-100879147D01*
X153537850Y-100837548D01*
X153546838Y-100885317D01*
X153685910Y-101101441D01*
X153898110Y-101246431D01*
X154150000Y-101297440D01*
X155850000Y-101297440D01*
X156085317Y-101253162D01*
X156301441Y-101114090D01*
X156446431Y-100901890D01*
X156497440Y-100650000D01*
X156497440Y-98950000D01*
X156453162Y-98714683D01*
X156314090Y-98498559D01*
X156101890Y-98353569D01*
X155850000Y-98302560D01*
X154150000Y-98302560D01*
X153914683Y-98346838D01*
X153698559Y-98485910D01*
X153553569Y-98698110D01*
X153539914Y-98765541D01*
X153510054Y-98720853D01*
X153028285Y-98398946D01*
X152460000Y-98285907D01*
X151891715Y-98398946D01*
X151409946Y-98720853D01*
X151088039Y-99202622D01*
X150975000Y-99770907D01*
X147133000Y-99770907D01*
X147133000Y-99673000D01*
X147153000Y-99673000D01*
X147153000Y-98479845D01*
X147407000Y-98479845D01*
X147407000Y-99673000D01*
X148600819Y-99673000D01*
X148721486Y-99443108D01*
X148475183Y-98918642D01*
X148046924Y-98528355D01*
X147636890Y-98358524D01*
X147407000Y-98479845D01*
X147153000Y-98479845D01*
X146923110Y-98358524D01*
X146513076Y-98528355D01*
X146084817Y-98918642D01*
X146017702Y-99061553D01*
X145790054Y-98720853D01*
X145308285Y-98398946D01*
X144740000Y-98285907D01*
X144171715Y-98398946D01*
X143689946Y-98720853D01*
X143662150Y-98762452D01*
X143653162Y-98714683D01*
X143514090Y-98498559D01*
X143301890Y-98353569D01*
X143050000Y-98302560D01*
X141350000Y-98302560D01*
X141114683Y-98346838D01*
X140898559Y-98485910D01*
X140753569Y-98698110D01*
X140702560Y-98950000D01*
X138268123Y-98950000D01*
X137971918Y-98653277D01*
X138371651Y-98254243D01*
X138605833Y-97690270D01*
X138606365Y-97079609D01*
X138373168Y-96515229D01*
X137971918Y-96113277D01*
X138371651Y-95714243D01*
X138605833Y-95150270D01*
X138606365Y-94539609D01*
X138373168Y-93975229D01*
X137941743Y-93543049D01*
X137377770Y-93308867D01*
X136767109Y-93308335D01*
X136202729Y-93541532D01*
X136110000Y-93634099D01*
X136110000Y-90485750D01*
X145515000Y-90485750D01*
X145515000Y-91176309D01*
X145611673Y-91409698D01*
X145790301Y-91588327D01*
X146023690Y-91685000D01*
X146714250Y-91685000D01*
X146873000Y-91526250D01*
X146873000Y-90327000D01*
X145673750Y-90327000D01*
X145515000Y-90485750D01*
X136110000Y-90485750D01*
X136110000Y-90069931D01*
X136278327Y-89223691D01*
X145515000Y-89223691D01*
X145515000Y-89914250D01*
X145673750Y-90073000D01*
X146873000Y-90073000D01*
X146873000Y-88873750D01*
X147127000Y-88873750D01*
X147127000Y-90073000D01*
X147147000Y-90073000D01*
X147147000Y-90327000D01*
X147127000Y-90327000D01*
X147127000Y-91526250D01*
X147285750Y-91685000D01*
X147976310Y-91685000D01*
X148209699Y-91588327D01*
X148388327Y-91409698D01*
X148460597Y-91235223D01*
X148489946Y-91279147D01*
X148971715Y-91601054D01*
X149540000Y-91714093D01*
X150108285Y-91601054D01*
X150590054Y-91279147D01*
X150810000Y-90949974D01*
X151029946Y-91279147D01*
X151511715Y-91601054D01*
X152080000Y-91714093D01*
X152648285Y-91601054D01*
X153130054Y-91279147D01*
X153451961Y-90797378D01*
X153565000Y-90229093D01*
X153565000Y-90170907D01*
X153451961Y-89602622D01*
X153130054Y-89120853D01*
X152648285Y-88798946D01*
X152080000Y-88685907D01*
X151511715Y-88798946D01*
X151029946Y-89120853D01*
X150810000Y-89450026D01*
X150590054Y-89120853D01*
X150108285Y-88798946D01*
X149540000Y-88685907D01*
X148971715Y-88798946D01*
X148489946Y-89120853D01*
X148460597Y-89164777D01*
X148388327Y-88990302D01*
X148209699Y-88811673D01*
X147976310Y-88715000D01*
X147285750Y-88715000D01*
X147127000Y-88873750D01*
X146873000Y-88873750D01*
X146714250Y-88715000D01*
X146023690Y-88715000D01*
X145790301Y-88811673D01*
X145611673Y-88990302D01*
X145515000Y-89223691D01*
X136278327Y-89223691D01*
X136327616Y-88975903D01*
X136907720Y-88107717D01*
X137775903Y-87527616D01*
X138869927Y-87310000D01*
X156947089Y-87310000D01*
X158377593Y-87524395D01*
X158377593Y-87524395D01*
G37*
X158377593Y-87524395D02*
X159541472Y-88224379D01*
X160348885Y-89316480D01*
X160690000Y-90687028D01*
X160690000Y-93496649D01*
X160237770Y-93308867D01*
X159627109Y-93308335D01*
X159062729Y-93541532D01*
X158630549Y-93972957D01*
X158396367Y-94536930D01*
X158395835Y-95147591D01*
X158629032Y-95711971D01*
X159030282Y-96113923D01*
X158630549Y-96512957D01*
X158396367Y-97076930D01*
X158395835Y-97687591D01*
X158629032Y-98251971D01*
X159030282Y-98653923D01*
X158630549Y-99052957D01*
X158396367Y-99616930D01*
X158395835Y-100227591D01*
X158629032Y-100791971D01*
X159030282Y-101193923D01*
X158630549Y-101592957D01*
X158396367Y-102156930D01*
X158395835Y-102767591D01*
X158629032Y-103331971D01*
X159030282Y-103733923D01*
X158630549Y-104132957D01*
X158396367Y-104696930D01*
X158395835Y-105307591D01*
X158629032Y-105871971D01*
X159030282Y-106273923D01*
X158630549Y-106672957D01*
X158396367Y-107236930D01*
X158395835Y-107847591D01*
X158629032Y-108411971D01*
X159030282Y-108813923D01*
X158630549Y-109212957D01*
X158396367Y-109776930D01*
X158395835Y-110387591D01*
X158629032Y-110951971D01*
X159060457Y-111384151D01*
X159081294Y-111392803D01*
X159030546Y-111543441D01*
X159931100Y-112443995D01*
X159945243Y-112429853D01*
X160124848Y-112609458D01*
X160110705Y-112623600D01*
X160124848Y-112637743D01*
X159945243Y-112817348D01*
X159931100Y-112803205D01*
X159030546Y-113703759D01*
X159116952Y-113960243D01*
X159690436Y-114170058D01*
X160300560Y-114144439D01*
X160690000Y-113983127D01*
X160690000Y-120690000D01*
X136110000Y-120690000D01*
X136110000Y-115300000D01*
X141452560Y-115300000D01*
X141452560Y-118300000D01*
X141496838Y-118535317D01*
X141635910Y-118751441D01*
X141848110Y-118896431D01*
X142100000Y-118947440D01*
X145100000Y-118947440D01*
X145335317Y-118903162D01*
X145551441Y-118764090D01*
X145696431Y-118551890D01*
X145747440Y-118300000D01*
X145747440Y-117222815D01*
X146544630Y-117222815D01*
X146868980Y-118007800D01*
X147469041Y-118608909D01*
X148253459Y-118934628D01*
X149102815Y-118935370D01*
X149887800Y-118611020D01*
X150488909Y-118010959D01*
X150814628Y-117226541D01*
X150814631Y-117222815D01*
X151624630Y-117222815D01*
X151948980Y-118007800D01*
X152549041Y-118608909D01*
X153333459Y-118934628D01*
X154182815Y-118935370D01*
X154967800Y-118611020D01*
X155568909Y-118010959D01*
X155894628Y-117226541D01*
X155895370Y-116377185D01*
X155571020Y-115592200D01*
X154970959Y-114991091D01*
X154186541Y-114665372D01*
X153337185Y-114664630D01*
X152552200Y-114988980D01*
X151951091Y-115589041D01*
X151625372Y-116373459D01*
X151624630Y-117222815D01*
X150814631Y-117222815D01*
X150815370Y-116377185D01*
X150491020Y-115592200D01*
X149890959Y-114991091D01*
X149106541Y-114665372D01*
X148257185Y-114664630D01*
X147472200Y-114988980D01*
X146871091Y-115589041D01*
X146545372Y-116373459D01*
X146544630Y-117222815D01*
X145747440Y-117222815D01*
X145747440Y-115300000D01*
X145703162Y-115064683D01*
X145564090Y-114848559D01*
X145351890Y-114703569D01*
X145100000Y-114652560D01*
X142100000Y-114652560D01*
X141864683Y-114696838D01*
X141648559Y-114835910D01*
X141503569Y-115048110D01*
X141452560Y-115300000D01*
X136110000Y-115300000D01*
X136110000Y-113833536D01*
X136200457Y-113924151D01*
X136764430Y-114158333D01*
X137375091Y-114158865D01*
X137939471Y-113925668D01*
X138371651Y-113494243D01*
X138605833Y-112930270D01*
X138606309Y-112382936D01*
X158384642Y-112382936D01*
X158410261Y-112993060D01*
X158594457Y-113437748D01*
X158850941Y-113524154D01*
X159751495Y-112623600D01*
X158850941Y-111723046D01*
X158594457Y-111809452D01*
X158384642Y-112382936D01*
X138606309Y-112382936D01*
X138606365Y-112319609D01*
X138373168Y-111755229D01*
X137971918Y-111353277D01*
X138371651Y-110954243D01*
X138605833Y-110390270D01*
X138606365Y-109779609D01*
X138373168Y-109215229D01*
X137971918Y-108813277D01*
X138371651Y-108414243D01*
X138605833Y-107850270D01*
X138606365Y-107239609D01*
X138373168Y-106675229D01*
X137971918Y-106273277D01*
X138371651Y-105874243D01*
X138605833Y-105310270D01*
X138606365Y-104699609D01*
X138373168Y-104135229D01*
X137971918Y-103733277D01*
X138371651Y-103334243D01*
X138605833Y-102770270D01*
X138606365Y-102159609D01*
X138373168Y-101595229D01*
X137971918Y-101193277D01*
X138371651Y-100794243D01*
X138605833Y-100230270D01*
X138606365Y-99619609D01*
X138373168Y-99055229D01*
X138268123Y-98950000D01*
X140702560Y-98950000D01*
X140702560Y-100650000D01*
X140746838Y-100885317D01*
X140885910Y-101101441D01*
X141098110Y-101246431D01*
X141350000Y-101297440D01*
X143050000Y-101297440D01*
X143285317Y-101253162D01*
X143501441Y-101114090D01*
X143646431Y-100901890D01*
X143660086Y-100834459D01*
X143689946Y-100879147D01*
X144171715Y-101201054D01*
X144740000Y-101314093D01*
X145308285Y-101201054D01*
X145790054Y-100879147D01*
X146017702Y-100538447D01*
X146084817Y-100681358D01*
X146513076Y-101071645D01*
X146923110Y-101241476D01*
X147153000Y-101120155D01*
X147153000Y-99927000D01*
X147407000Y-99927000D01*
X147407000Y-101120155D01*
X147636890Y-101241476D01*
X148046924Y-101071645D01*
X148475183Y-100681358D01*
X148721486Y-100156892D01*
X148600819Y-99927000D01*
X147407000Y-99927000D01*
X147153000Y-99927000D01*
X147133000Y-99927000D01*
X147133000Y-99770907D01*
X150975000Y-99770907D01*
X150975000Y-99829093D01*
X151088039Y-100397378D01*
X151409946Y-100879147D01*
X151891715Y-101201054D01*
X152460000Y-101314093D01*
X153028285Y-101201054D01*
X153510054Y-100879147D01*
X153537850Y-100837548D01*
X153546838Y-100885317D01*
X153685910Y-101101441D01*
X153898110Y-101246431D01*
X154150000Y-101297440D01*
X155850000Y-101297440D01*
X156085317Y-101253162D01*
X156301441Y-101114090D01*
X156446431Y-100901890D01*
X156497440Y-100650000D01*
X156497440Y-98950000D01*
X156453162Y-98714683D01*
X156314090Y-98498559D01*
X156101890Y-98353569D01*
X155850000Y-98302560D01*
X154150000Y-98302560D01*
X153914683Y-98346838D01*
X153698559Y-98485910D01*
X153553569Y-98698110D01*
X153539914Y-98765541D01*
X153510054Y-98720853D01*
X153028285Y-98398946D01*
X152460000Y-98285907D01*
X151891715Y-98398946D01*
X151409946Y-98720853D01*
X151088039Y-99202622D01*
X150975000Y-99770907D01*
X147133000Y-99770907D01*
X147133000Y-99673000D01*
X147153000Y-99673000D01*
X147153000Y-98479845D01*
X147407000Y-98479845D01*
X147407000Y-99673000D01*
X148600819Y-99673000D01*
X148721486Y-99443108D01*
X148475183Y-98918642D01*
X148046924Y-98528355D01*
X147636890Y-98358524D01*
X147407000Y-98479845D01*
X147153000Y-98479845D01*
X146923110Y-98358524D01*
X146513076Y-98528355D01*
X146084817Y-98918642D01*
X146017702Y-99061553D01*
X145790054Y-98720853D01*
X145308285Y-98398946D01*
X144740000Y-98285907D01*
X144171715Y-98398946D01*
X143689946Y-98720853D01*
X143662150Y-98762452D01*
X143653162Y-98714683D01*
X143514090Y-98498559D01*
X143301890Y-98353569D01*
X143050000Y-98302560D01*
X141350000Y-98302560D01*
X141114683Y-98346838D01*
X140898559Y-98485910D01*
X140753569Y-98698110D01*
X140702560Y-98950000D01*
X138268123Y-98950000D01*
X137971918Y-98653277D01*
X138371651Y-98254243D01*
X138605833Y-97690270D01*
X138606365Y-97079609D01*
X138373168Y-96515229D01*
X137971918Y-96113277D01*
X138371651Y-95714243D01*
X138605833Y-95150270D01*
X138606365Y-94539609D01*
X138373168Y-93975229D01*
X137941743Y-93543049D01*
X137377770Y-93308867D01*
X136767109Y-93308335D01*
X136202729Y-93541532D01*
X136110000Y-93634099D01*
X136110000Y-90485750D01*
X145515000Y-90485750D01*
X145515000Y-91176309D01*
X145611673Y-91409698D01*
X145790301Y-91588327D01*
X146023690Y-91685000D01*
X146714250Y-91685000D01*
X146873000Y-91526250D01*
X146873000Y-90327000D01*
X145673750Y-90327000D01*
X145515000Y-90485750D01*
X136110000Y-90485750D01*
X136110000Y-90069931D01*
X136278327Y-89223691D01*
X145515000Y-89223691D01*
X145515000Y-89914250D01*
X145673750Y-90073000D01*
X146873000Y-90073000D01*
X146873000Y-88873750D01*
X147127000Y-88873750D01*
X147127000Y-90073000D01*
X147147000Y-90073000D01*
X147147000Y-90327000D01*
X147127000Y-90327000D01*
X147127000Y-91526250D01*
X147285750Y-91685000D01*
X147976310Y-91685000D01*
X148209699Y-91588327D01*
X148388327Y-91409698D01*
X148460597Y-91235223D01*
X148489946Y-91279147D01*
X148971715Y-91601054D01*
X149540000Y-91714093D01*
X150108285Y-91601054D01*
X150590054Y-91279147D01*
X150810000Y-90949974D01*
X151029946Y-91279147D01*
X151511715Y-91601054D01*
X152080000Y-91714093D01*
X152648285Y-91601054D01*
X153130054Y-91279147D01*
X153451961Y-90797378D01*
X153565000Y-90229093D01*
X153565000Y-90170907D01*
X153451961Y-89602622D01*
X153130054Y-89120853D01*
X152648285Y-88798946D01*
X152080000Y-88685907D01*
X151511715Y-88798946D01*
X151029946Y-89120853D01*
X150810000Y-89450026D01*
X150590054Y-89120853D01*
X150108285Y-88798946D01*
X149540000Y-88685907D01*
X148971715Y-88798946D01*
X148489946Y-89120853D01*
X148460597Y-89164777D01*
X148388327Y-88990302D01*
X148209699Y-88811673D01*
X147976310Y-88715000D01*
X147285750Y-88715000D01*
X147127000Y-88873750D01*
X146873000Y-88873750D01*
X146714250Y-88715000D01*
X146023690Y-88715000D01*
X145790301Y-88811673D01*
X145611673Y-88990302D01*
X145515000Y-89223691D01*
X136278327Y-89223691D01*
X136327616Y-88975903D01*
X136907720Y-88107717D01*
X137775903Y-87527616D01*
X138869927Y-87310000D01*
X156947089Y-87310000D01*
X158377593Y-87524395D01*
M02*
