G04 #@! TF.FileFunction,Copper,L1,Top,Signal*
%FSLAX46Y46*%
G04 Gerber Fmt 4.6, Leading zero omitted, Abs format (unit mm)*
G04 Created by KiCad (PCBNEW 4.0.7) date 08/03/18 16:25:06*
%MOMM*%
%LPD*%
G01*
G04 APERTURE LIST*
%ADD10C,0.100000*%
%ADD11R,1.000000X1.600000*%
%ADD12R,2.000000X1.700000*%
%ADD13R,1.700000X1.700000*%
%ADD14O,1.700000X1.700000*%
%ADD15R,3.000000X3.000000*%
%ADD16C,3.000000*%
%ADD17C,1.800000*%
%ADD18C,0.685800*%
%ADD19C,0.254000*%
G04 APERTURE END LIST*
D10*
D11*
X143100000Y-108800000D03*
X146100000Y-108800000D03*
D12*
X142600000Y-104400000D03*
X146600000Y-104400000D03*
X151600000Y-108800000D03*
X155600000Y-108800000D03*
X155600000Y-104400000D03*
X151600000Y-104400000D03*
D13*
X155000000Y-99800000D03*
D14*
X152460000Y-99800000D03*
D13*
X142200000Y-99800000D03*
D14*
X144740000Y-99800000D03*
X147280000Y-99800000D03*
D13*
X147000000Y-90200000D03*
D14*
X149540000Y-90200000D03*
X152080000Y-90200000D03*
D15*
X143600000Y-116800000D03*
D16*
X148680000Y-116800000D03*
X153760000Y-116800000D03*
D17*
X137071100Y-94843600D03*
X137071100Y-97383600D03*
X137071100Y-99923600D03*
X137071100Y-102463600D03*
X137071100Y-105003600D03*
X137071100Y-107543600D03*
X137071100Y-110083600D03*
X137071100Y-112623600D03*
X159931100Y-112623600D03*
X159931100Y-110083600D03*
X159931100Y-107543600D03*
X159931100Y-105003600D03*
X159931100Y-102463600D03*
X159931100Y-99923600D03*
X159931100Y-97383600D03*
X159931100Y-94843600D03*
D18*
X150600000Y-106200000D03*
X147600000Y-106200000D03*
D19*
X146100000Y-108800000D02*
X151600000Y-108800000D01*
X142600000Y-104400000D02*
X142600000Y-104000000D01*
X142600000Y-104000000D02*
X144740000Y-101860000D01*
X144740000Y-101860000D02*
X144740000Y-99800000D01*
X137071100Y-102463600D02*
X138263600Y-102463600D01*
X140200000Y-104400000D02*
X142600000Y-104400000D01*
X138263600Y-102463600D02*
X140200000Y-104400000D01*
X151600000Y-104400000D02*
X151600000Y-105200000D01*
X151600000Y-105200000D02*
X150600000Y-106200000D01*
X146600000Y-104400000D02*
X146600000Y-105200000D01*
X146600000Y-105200000D02*
X147600000Y-106200000D01*
X155600000Y-108800000D02*
X156000000Y-108800000D01*
X156000000Y-108800000D02*
X157600000Y-107200000D01*
X157600000Y-107200000D02*
X157600000Y-106400000D01*
X157600000Y-106400000D02*
X158996400Y-105003600D01*
X158996400Y-105003600D02*
X159931100Y-105003600D01*
X155000000Y-99800000D02*
X155000000Y-101600000D01*
X155600000Y-102200000D02*
X155600000Y-104400000D01*
X155000000Y-101600000D02*
X155600000Y-102200000D01*
X155000000Y-99800000D02*
X156600000Y-99800000D01*
X158416400Y-97383600D02*
X159931100Y-97383600D01*
X157200000Y-98600000D02*
X158416400Y-97383600D01*
X157200000Y-99200000D02*
X157200000Y-98600000D01*
X156600000Y-99800000D02*
X157200000Y-99200000D01*
X148800000Y-94200000D02*
X149540000Y-93460000D01*
X137071100Y-99923600D02*
X138676400Y-99923600D01*
X141100000Y-94200000D02*
X148800000Y-94200000D01*
X139500000Y-95800000D02*
X141100000Y-94200000D01*
X139500000Y-99100000D02*
X139500000Y-95800000D01*
X138676400Y-99923600D02*
X139500000Y-99100000D01*
X149540000Y-93460000D02*
X149540000Y-90200000D01*
X137071100Y-112623600D02*
X137071100Y-112871100D01*
X137071100Y-112871100D02*
X139400000Y-115200000D01*
X139400000Y-115200000D02*
X139400000Y-116400000D01*
X139400000Y-116400000D02*
X139800000Y-116800000D01*
X139800000Y-116800000D02*
X143600000Y-116800000D01*
X148680000Y-116800000D02*
X148680000Y-113480000D01*
X158116400Y-110083600D02*
X159931100Y-110083600D01*
X158000000Y-110200000D02*
X158116400Y-110083600D01*
X158000000Y-110800000D02*
X158000000Y-110200000D01*
X156600000Y-112200000D02*
X158000000Y-110800000D01*
X149960000Y-112200000D02*
X156600000Y-112200000D01*
X148680000Y-113480000D02*
X149960000Y-112200000D01*
G36*
X158377593Y-87524395D02*
X159541472Y-88224379D01*
X160348885Y-89316480D01*
X160690000Y-90687028D01*
X160690000Y-93496649D01*
X160237770Y-93308867D01*
X159627109Y-93308335D01*
X159062729Y-93541532D01*
X158630549Y-93972957D01*
X158396367Y-94536930D01*
X158395835Y-95147591D01*
X158629032Y-95711971D01*
X159030282Y-96113923D01*
X158630549Y-96512957D01*
X158585436Y-96621600D01*
X158416400Y-96621600D01*
X158124795Y-96679604D01*
X157877584Y-96844785D01*
X156661185Y-98061185D01*
X156496004Y-98308395D01*
X156438000Y-98600000D01*
X156438000Y-98691121D01*
X156314090Y-98498559D01*
X156101890Y-98353569D01*
X155850000Y-98302560D01*
X154150000Y-98302560D01*
X153914683Y-98346838D01*
X153698559Y-98485910D01*
X153553569Y-98698110D01*
X153531699Y-98806107D01*
X153226924Y-98528355D01*
X152816890Y-98358524D01*
X152587000Y-98479845D01*
X152587000Y-99673000D01*
X152607000Y-99673000D01*
X152607000Y-99927000D01*
X152587000Y-99927000D01*
X152587000Y-101120155D01*
X152816890Y-101241476D01*
X153226924Y-101071645D01*
X153529937Y-100795499D01*
X153546838Y-100885317D01*
X153685910Y-101101441D01*
X153898110Y-101246431D01*
X154150000Y-101297440D01*
X154238000Y-101297440D01*
X154238000Y-101600000D01*
X154296004Y-101891605D01*
X154461185Y-102138815D01*
X154838000Y-102515630D01*
X154838000Y-102902560D01*
X154600000Y-102902560D01*
X154364683Y-102946838D01*
X154148559Y-103085910D01*
X154003569Y-103298110D01*
X153952560Y-103550000D01*
X153952560Y-105250000D01*
X153996838Y-105485317D01*
X154135910Y-105701441D01*
X154348110Y-105846431D01*
X154600000Y-105897440D01*
X156600000Y-105897440D01*
X156835317Y-105853162D01*
X157051441Y-105714090D01*
X157196431Y-105501890D01*
X157247440Y-105250000D01*
X157247440Y-103550000D01*
X157203162Y-103314683D01*
X157064090Y-103098559D01*
X156851890Y-102953569D01*
X156600000Y-102902560D01*
X156362000Y-102902560D01*
X156362000Y-102200000D01*
X156303996Y-101908395D01*
X156138815Y-101661185D01*
X155775070Y-101297440D01*
X155850000Y-101297440D01*
X156085317Y-101253162D01*
X156301441Y-101114090D01*
X156446431Y-100901890D01*
X156497440Y-100650000D01*
X156497440Y-100562000D01*
X156600000Y-100562000D01*
X156891605Y-100503996D01*
X157138815Y-100338815D01*
X157738815Y-99738815D01*
X157903996Y-99491605D01*
X157929776Y-99361999D01*
X157962000Y-99200000D01*
X157962000Y-98915630D01*
X158628046Y-98249585D01*
X158629032Y-98251971D01*
X159030282Y-98653923D01*
X158630549Y-99052957D01*
X158396367Y-99616930D01*
X158395835Y-100227591D01*
X158629032Y-100791971D01*
X159030282Y-101193923D01*
X158630549Y-101592957D01*
X158396367Y-102156930D01*
X158395835Y-102767591D01*
X158629032Y-103331971D01*
X159030282Y-103733923D01*
X158630549Y-104132957D01*
X158506270Y-104432255D01*
X158497670Y-104438001D01*
X158457585Y-104464785D01*
X157061185Y-105861185D01*
X156896004Y-106108395D01*
X156838000Y-106400000D01*
X156838000Y-106884369D01*
X156419809Y-107302560D01*
X154600000Y-107302560D01*
X154364683Y-107346838D01*
X154148559Y-107485910D01*
X154003569Y-107698110D01*
X153952560Y-107950000D01*
X153952560Y-109650000D01*
X153996838Y-109885317D01*
X154135910Y-110101441D01*
X154348110Y-110246431D01*
X154600000Y-110297440D01*
X156600000Y-110297440D01*
X156835317Y-110253162D01*
X157051441Y-110114090D01*
X157196431Y-109901890D01*
X157247440Y-109650000D01*
X157247440Y-108630190D01*
X158138816Y-107738815D01*
X158299349Y-107498559D01*
X158303996Y-107491605D01*
X158362000Y-107200000D01*
X158362000Y-106715630D01*
X158917093Y-106160537D01*
X159030282Y-106273923D01*
X158630549Y-106672957D01*
X158396367Y-107236930D01*
X158395835Y-107847591D01*
X158629032Y-108411971D01*
X159030282Y-108813923D01*
X158630549Y-109212957D01*
X158585436Y-109321600D01*
X158116400Y-109321600D01*
X157824795Y-109379604D01*
X157577584Y-109544785D01*
X157461185Y-109661185D01*
X157296004Y-109908395D01*
X157238000Y-110200000D01*
X157238000Y-110484370D01*
X156284370Y-111438000D01*
X149960000Y-111438000D01*
X149668395Y-111496004D01*
X149421184Y-111661185D01*
X148141185Y-112941185D01*
X147976004Y-113188395D01*
X147918000Y-113480000D01*
X147918000Y-114804779D01*
X147472200Y-114988980D01*
X146871091Y-115589041D01*
X146545372Y-116373459D01*
X146544630Y-117222815D01*
X146868980Y-118007800D01*
X147469041Y-118608909D01*
X148253459Y-118934628D01*
X149102815Y-118935370D01*
X149887800Y-118611020D01*
X150185368Y-118313970D01*
X152425635Y-118313970D01*
X152585418Y-118632739D01*
X153376187Y-118942723D01*
X154225387Y-118926497D01*
X154934582Y-118632739D01*
X155094365Y-118313970D01*
X153760000Y-116979605D01*
X152425635Y-118313970D01*
X150185368Y-118313970D01*
X150488909Y-118010959D01*
X150814628Y-117226541D01*
X150815335Y-116416187D01*
X151617277Y-116416187D01*
X151633503Y-117265387D01*
X151927261Y-117974582D01*
X152246030Y-118134365D01*
X153580395Y-116800000D01*
X153939605Y-116800000D01*
X155273970Y-118134365D01*
X155592739Y-117974582D01*
X155902723Y-117183813D01*
X155886497Y-116334613D01*
X155592739Y-115625418D01*
X155273970Y-115465635D01*
X153939605Y-116800000D01*
X153580395Y-116800000D01*
X152246030Y-115465635D01*
X151927261Y-115625418D01*
X151617277Y-116416187D01*
X150815335Y-116416187D01*
X150815370Y-116377185D01*
X150491020Y-115592200D01*
X150185384Y-115286030D01*
X152425635Y-115286030D01*
X153760000Y-116620395D01*
X155094365Y-115286030D01*
X154934582Y-114967261D01*
X154143813Y-114657277D01*
X153294613Y-114673503D01*
X152585418Y-114967261D01*
X152425635Y-115286030D01*
X150185384Y-115286030D01*
X149890959Y-114991091D01*
X149442000Y-114804667D01*
X149442000Y-113795630D01*
X150275631Y-112962000D01*
X156600000Y-112962000D01*
X156891605Y-112903996D01*
X157138815Y-112738815D01*
X158538815Y-111338815D01*
X158703996Y-111091605D01*
X158714701Y-111037790D01*
X159030282Y-111353923D01*
X158630549Y-111752957D01*
X158396367Y-112316930D01*
X158395835Y-112927591D01*
X158629032Y-113491971D01*
X159060457Y-113924151D01*
X159624430Y-114158333D01*
X160235091Y-114158865D01*
X160690000Y-113970900D01*
X160690000Y-120690000D01*
X136110000Y-120690000D01*
X136110000Y-113833536D01*
X136200457Y-113924151D01*
X136764430Y-114158333D01*
X137281153Y-114158783D01*
X138638000Y-115515630D01*
X138638000Y-116400000D01*
X138696004Y-116691605D01*
X138861185Y-116938815D01*
X139261184Y-117338815D01*
X139508395Y-117503996D01*
X139800000Y-117562000D01*
X141452560Y-117562000D01*
X141452560Y-118300000D01*
X141496838Y-118535317D01*
X141635910Y-118751441D01*
X141848110Y-118896431D01*
X142100000Y-118947440D01*
X145100000Y-118947440D01*
X145335317Y-118903162D01*
X145551441Y-118764090D01*
X145696431Y-118551890D01*
X145747440Y-118300000D01*
X145747440Y-115300000D01*
X145703162Y-115064683D01*
X145564090Y-114848559D01*
X145351890Y-114703569D01*
X145100000Y-114652560D01*
X142100000Y-114652560D01*
X141864683Y-114696838D01*
X141648559Y-114835910D01*
X141503569Y-115048110D01*
X141452560Y-115300000D01*
X141452560Y-116038000D01*
X140162000Y-116038000D01*
X140162000Y-115200000D01*
X140103996Y-114908395D01*
X139938815Y-114661185D01*
X138489078Y-113211448D01*
X138605833Y-112930270D01*
X138606365Y-112319609D01*
X138373168Y-111755229D01*
X137941743Y-111323049D01*
X137920906Y-111314397D01*
X137971654Y-111163759D01*
X137071100Y-110263205D01*
X137056958Y-110277348D01*
X136877353Y-110097743D01*
X136891495Y-110083600D01*
X137250705Y-110083600D01*
X138151259Y-110984154D01*
X138407743Y-110897748D01*
X138617558Y-110324264D01*
X138591939Y-109714140D01*
X138407743Y-109269452D01*
X138151259Y-109183046D01*
X137250705Y-110083600D01*
X136891495Y-110083600D01*
X136877353Y-110069458D01*
X137056958Y-109889853D01*
X137071100Y-109903995D01*
X137889345Y-109085750D01*
X141965000Y-109085750D01*
X141965000Y-109726310D01*
X142061673Y-109959699D01*
X142240302Y-110138327D01*
X142473691Y-110235000D01*
X142814250Y-110235000D01*
X142973000Y-110076250D01*
X142973000Y-108927000D01*
X143227000Y-108927000D01*
X143227000Y-110076250D01*
X143385750Y-110235000D01*
X143726309Y-110235000D01*
X143959698Y-110138327D01*
X144138327Y-109959699D01*
X144235000Y-109726310D01*
X144235000Y-109085750D01*
X144076250Y-108927000D01*
X143227000Y-108927000D01*
X142973000Y-108927000D01*
X142123750Y-108927000D01*
X141965000Y-109085750D01*
X137889345Y-109085750D01*
X137971654Y-109003441D01*
X137921065Y-108853273D01*
X137939471Y-108845668D01*
X138371651Y-108414243D01*
X138596108Y-107873690D01*
X141965000Y-107873690D01*
X141965000Y-108514250D01*
X142123750Y-108673000D01*
X142973000Y-108673000D01*
X142973000Y-107523750D01*
X143227000Y-107523750D01*
X143227000Y-108673000D01*
X144076250Y-108673000D01*
X144235000Y-108514250D01*
X144235000Y-108000000D01*
X144952560Y-108000000D01*
X144952560Y-109600000D01*
X144996838Y-109835317D01*
X145135910Y-110051441D01*
X145348110Y-110196431D01*
X145600000Y-110247440D01*
X146600000Y-110247440D01*
X146835317Y-110203162D01*
X147051441Y-110064090D01*
X147196431Y-109851890D01*
X147247440Y-109600000D01*
X147247440Y-109562000D01*
X149952560Y-109562000D01*
X149952560Y-109650000D01*
X149996838Y-109885317D01*
X150135910Y-110101441D01*
X150348110Y-110246431D01*
X150600000Y-110297440D01*
X152600000Y-110297440D01*
X152835317Y-110253162D01*
X153051441Y-110114090D01*
X153196431Y-109901890D01*
X153247440Y-109650000D01*
X153247440Y-107950000D01*
X153203162Y-107714683D01*
X153064090Y-107498559D01*
X152851890Y-107353569D01*
X152600000Y-107302560D01*
X150600000Y-107302560D01*
X150364683Y-107346838D01*
X150148559Y-107485910D01*
X150003569Y-107698110D01*
X149952560Y-107950000D01*
X149952560Y-108038000D01*
X147247440Y-108038000D01*
X147247440Y-108000000D01*
X147203162Y-107764683D01*
X147064090Y-107548559D01*
X146851890Y-107403569D01*
X146600000Y-107352560D01*
X145600000Y-107352560D01*
X145364683Y-107396838D01*
X145148559Y-107535910D01*
X145003569Y-107748110D01*
X144952560Y-108000000D01*
X144235000Y-108000000D01*
X144235000Y-107873690D01*
X144138327Y-107640301D01*
X143959698Y-107461673D01*
X143726309Y-107365000D01*
X143385750Y-107365000D01*
X143227000Y-107523750D01*
X142973000Y-107523750D01*
X142814250Y-107365000D01*
X142473691Y-107365000D01*
X142240302Y-107461673D01*
X142061673Y-107640301D01*
X141965000Y-107873690D01*
X138596108Y-107873690D01*
X138605833Y-107850270D01*
X138606365Y-107239609D01*
X138373168Y-106675229D01*
X137971918Y-106273277D01*
X138371651Y-105874243D01*
X138605833Y-105310270D01*
X138606365Y-104699609D01*
X138373168Y-104135229D01*
X137971918Y-103733277D01*
X138213994Y-103491624D01*
X139661185Y-104938815D01*
X139908395Y-105103996D01*
X140200000Y-105162000D01*
X140952560Y-105162000D01*
X140952560Y-105250000D01*
X140996838Y-105485317D01*
X141135910Y-105701441D01*
X141348110Y-105846431D01*
X141600000Y-105897440D01*
X143600000Y-105897440D01*
X143835317Y-105853162D01*
X144051441Y-105714090D01*
X144196431Y-105501890D01*
X144247440Y-105250000D01*
X144247440Y-103550000D01*
X144952560Y-103550000D01*
X144952560Y-105250000D01*
X144996838Y-105485317D01*
X145135910Y-105701441D01*
X145348110Y-105846431D01*
X145600000Y-105897440D01*
X146219810Y-105897440D01*
X146622013Y-106299643D01*
X146621931Y-106393663D01*
X146770493Y-106753212D01*
X147045341Y-107028540D01*
X147404630Y-107177730D01*
X147793663Y-107178069D01*
X148153212Y-107029507D01*
X148428540Y-106754659D01*
X148577730Y-106395370D01*
X148577731Y-106393663D01*
X149621931Y-106393663D01*
X149770493Y-106753212D01*
X150045341Y-107028540D01*
X150404630Y-107177730D01*
X150793663Y-107178069D01*
X151153212Y-107029507D01*
X151428540Y-106754659D01*
X151577730Y-106395370D01*
X151577813Y-106299817D01*
X151980191Y-105897440D01*
X152600000Y-105897440D01*
X152835317Y-105853162D01*
X153051441Y-105714090D01*
X153196431Y-105501890D01*
X153247440Y-105250000D01*
X153247440Y-103550000D01*
X153203162Y-103314683D01*
X153064090Y-103098559D01*
X152851890Y-102953569D01*
X152600000Y-102902560D01*
X150600000Y-102902560D01*
X150364683Y-102946838D01*
X150148559Y-103085910D01*
X150003569Y-103298110D01*
X149952560Y-103550000D01*
X149952560Y-105250000D01*
X149986548Y-105430628D01*
X149771460Y-105645341D01*
X149622270Y-106004630D01*
X149621931Y-106393663D01*
X148577731Y-106393663D01*
X148578069Y-106006337D01*
X148429507Y-105646788D01*
X148211345Y-105428245D01*
X148247440Y-105250000D01*
X148247440Y-103550000D01*
X148203162Y-103314683D01*
X148064090Y-103098559D01*
X147851890Y-102953569D01*
X147600000Y-102902560D01*
X145600000Y-102902560D01*
X145364683Y-102946838D01*
X145148559Y-103085910D01*
X145003569Y-103298110D01*
X144952560Y-103550000D01*
X144247440Y-103550000D01*
X144228466Y-103449164D01*
X145278815Y-102398815D01*
X145430371Y-102171996D01*
X145443996Y-102151605D01*
X145502000Y-101860000D01*
X145502000Y-101071618D01*
X145790054Y-100879147D01*
X146010000Y-100549974D01*
X146229946Y-100879147D01*
X146711715Y-101201054D01*
X147280000Y-101314093D01*
X147848285Y-101201054D01*
X148330054Y-100879147D01*
X148651961Y-100397378D01*
X148699796Y-100156892D01*
X151018514Y-100156892D01*
X151264817Y-100681358D01*
X151693076Y-101071645D01*
X152103110Y-101241476D01*
X152333000Y-101120155D01*
X152333000Y-99927000D01*
X151139181Y-99927000D01*
X151018514Y-100156892D01*
X148699796Y-100156892D01*
X148765000Y-99829093D01*
X148765000Y-99770907D01*
X148699797Y-99443108D01*
X151018514Y-99443108D01*
X151139181Y-99673000D01*
X152333000Y-99673000D01*
X152333000Y-98479845D01*
X152103110Y-98358524D01*
X151693076Y-98528355D01*
X151264817Y-98918642D01*
X151018514Y-99443108D01*
X148699797Y-99443108D01*
X148651961Y-99202622D01*
X148330054Y-98720853D01*
X147848285Y-98398946D01*
X147280000Y-98285907D01*
X146711715Y-98398946D01*
X146229946Y-98720853D01*
X146010000Y-99050026D01*
X145790054Y-98720853D01*
X145308285Y-98398946D01*
X144740000Y-98285907D01*
X144171715Y-98398946D01*
X143689946Y-98720853D01*
X143660597Y-98764777D01*
X143588327Y-98590302D01*
X143409699Y-98411673D01*
X143176310Y-98315000D01*
X142485750Y-98315000D01*
X142327000Y-98473750D01*
X142327000Y-99673000D01*
X142347000Y-99673000D01*
X142347000Y-99927000D01*
X142327000Y-99927000D01*
X142327000Y-101126250D01*
X142485750Y-101285000D01*
X143176310Y-101285000D01*
X143409699Y-101188327D01*
X143588327Y-101009698D01*
X143660597Y-100835223D01*
X143689946Y-100879147D01*
X143978000Y-101071618D01*
X143978000Y-101544370D01*
X142619810Y-102902560D01*
X141600000Y-102902560D01*
X141364683Y-102946838D01*
X141148559Y-103085910D01*
X141003569Y-103298110D01*
X140952560Y-103550000D01*
X140952560Y-103638000D01*
X140515630Y-103638000D01*
X138802415Y-101924785D01*
X138752756Y-101891604D01*
X138555205Y-101759604D01*
X138430867Y-101734872D01*
X138373168Y-101595229D01*
X137971918Y-101193277D01*
X138371651Y-100794243D01*
X138416764Y-100685600D01*
X138676400Y-100685600D01*
X138968005Y-100627596D01*
X139215215Y-100462415D01*
X139591880Y-100085750D01*
X140715000Y-100085750D01*
X140715000Y-100776309D01*
X140811673Y-101009698D01*
X140990301Y-101188327D01*
X141223690Y-101285000D01*
X141914250Y-101285000D01*
X142073000Y-101126250D01*
X142073000Y-99927000D01*
X140873750Y-99927000D01*
X140715000Y-100085750D01*
X139591880Y-100085750D01*
X140038815Y-99638816D01*
X140203996Y-99391605D01*
X140209885Y-99361999D01*
X140262000Y-99100000D01*
X140262000Y-98823691D01*
X140715000Y-98823691D01*
X140715000Y-99514250D01*
X140873750Y-99673000D01*
X142073000Y-99673000D01*
X142073000Y-98473750D01*
X141914250Y-98315000D01*
X141223690Y-98315000D01*
X140990301Y-98411673D01*
X140811673Y-98590302D01*
X140715000Y-98823691D01*
X140262000Y-98823691D01*
X140262000Y-96115630D01*
X141415631Y-94962000D01*
X148800000Y-94962000D01*
X149091605Y-94903996D01*
X149338815Y-94738815D01*
X150078815Y-93998815D01*
X150139232Y-93908395D01*
X150243996Y-93751605D01*
X150302000Y-93460000D01*
X150302000Y-91471618D01*
X150590054Y-91279147D01*
X150817702Y-90938447D01*
X150884817Y-91081358D01*
X151313076Y-91471645D01*
X151723110Y-91641476D01*
X151953000Y-91520155D01*
X151953000Y-90327000D01*
X152207000Y-90327000D01*
X152207000Y-91520155D01*
X152436890Y-91641476D01*
X152846924Y-91471645D01*
X153275183Y-91081358D01*
X153521486Y-90556892D01*
X153400819Y-90327000D01*
X152207000Y-90327000D01*
X151953000Y-90327000D01*
X151933000Y-90327000D01*
X151933000Y-90073000D01*
X151953000Y-90073000D01*
X151953000Y-88879845D01*
X152207000Y-88879845D01*
X152207000Y-90073000D01*
X153400819Y-90073000D01*
X153521486Y-89843108D01*
X153275183Y-89318642D01*
X152846924Y-88928355D01*
X152436890Y-88758524D01*
X152207000Y-88879845D01*
X151953000Y-88879845D01*
X151723110Y-88758524D01*
X151313076Y-88928355D01*
X150884817Y-89318642D01*
X150817702Y-89461553D01*
X150590054Y-89120853D01*
X150108285Y-88798946D01*
X149540000Y-88685907D01*
X148971715Y-88798946D01*
X148489946Y-89120853D01*
X148462150Y-89162452D01*
X148453162Y-89114683D01*
X148314090Y-88898559D01*
X148101890Y-88753569D01*
X147850000Y-88702560D01*
X146150000Y-88702560D01*
X145914683Y-88746838D01*
X145698559Y-88885910D01*
X145553569Y-89098110D01*
X145502560Y-89350000D01*
X145502560Y-91050000D01*
X145546838Y-91285317D01*
X145685910Y-91501441D01*
X145898110Y-91646431D01*
X146150000Y-91697440D01*
X147850000Y-91697440D01*
X148085317Y-91653162D01*
X148301441Y-91514090D01*
X148446431Y-91301890D01*
X148460086Y-91234459D01*
X148489946Y-91279147D01*
X148778000Y-91471618D01*
X148778000Y-93144370D01*
X148484370Y-93438000D01*
X141100000Y-93438000D01*
X140808395Y-93496004D01*
X140709377Y-93562166D01*
X140561185Y-93661184D01*
X138961185Y-95261185D01*
X138796004Y-95508395D01*
X138738000Y-95800000D01*
X138738000Y-98784369D01*
X138400644Y-99121726D01*
X138373168Y-99055229D01*
X137971918Y-98653277D01*
X138371651Y-98254243D01*
X138605833Y-97690270D01*
X138606365Y-97079609D01*
X138373168Y-96515229D01*
X137971918Y-96113277D01*
X138371651Y-95714243D01*
X138605833Y-95150270D01*
X138606365Y-94539609D01*
X138373168Y-93975229D01*
X137941743Y-93543049D01*
X137377770Y-93308867D01*
X136767109Y-93308335D01*
X136202729Y-93541532D01*
X136110000Y-93634099D01*
X136110000Y-90069931D01*
X136327616Y-88975903D01*
X136907720Y-88107717D01*
X137775903Y-87527616D01*
X138869927Y-87310000D01*
X156947089Y-87310000D01*
X158377593Y-87524395D01*
X158377593Y-87524395D01*
G37*
X158377593Y-87524395D02*
X159541472Y-88224379D01*
X160348885Y-89316480D01*
X160690000Y-90687028D01*
X160690000Y-93496649D01*
X160237770Y-93308867D01*
X159627109Y-93308335D01*
X159062729Y-93541532D01*
X158630549Y-93972957D01*
X158396367Y-94536930D01*
X158395835Y-95147591D01*
X158629032Y-95711971D01*
X159030282Y-96113923D01*
X158630549Y-96512957D01*
X158585436Y-96621600D01*
X158416400Y-96621600D01*
X158124795Y-96679604D01*
X157877584Y-96844785D01*
X156661185Y-98061185D01*
X156496004Y-98308395D01*
X156438000Y-98600000D01*
X156438000Y-98691121D01*
X156314090Y-98498559D01*
X156101890Y-98353569D01*
X155850000Y-98302560D01*
X154150000Y-98302560D01*
X153914683Y-98346838D01*
X153698559Y-98485910D01*
X153553569Y-98698110D01*
X153531699Y-98806107D01*
X153226924Y-98528355D01*
X152816890Y-98358524D01*
X152587000Y-98479845D01*
X152587000Y-99673000D01*
X152607000Y-99673000D01*
X152607000Y-99927000D01*
X152587000Y-99927000D01*
X152587000Y-101120155D01*
X152816890Y-101241476D01*
X153226924Y-101071645D01*
X153529937Y-100795499D01*
X153546838Y-100885317D01*
X153685910Y-101101441D01*
X153898110Y-101246431D01*
X154150000Y-101297440D01*
X154238000Y-101297440D01*
X154238000Y-101600000D01*
X154296004Y-101891605D01*
X154461185Y-102138815D01*
X154838000Y-102515630D01*
X154838000Y-102902560D01*
X154600000Y-102902560D01*
X154364683Y-102946838D01*
X154148559Y-103085910D01*
X154003569Y-103298110D01*
X153952560Y-103550000D01*
X153952560Y-105250000D01*
X153996838Y-105485317D01*
X154135910Y-105701441D01*
X154348110Y-105846431D01*
X154600000Y-105897440D01*
X156600000Y-105897440D01*
X156835317Y-105853162D01*
X157051441Y-105714090D01*
X157196431Y-105501890D01*
X157247440Y-105250000D01*
X157247440Y-103550000D01*
X157203162Y-103314683D01*
X157064090Y-103098559D01*
X156851890Y-102953569D01*
X156600000Y-102902560D01*
X156362000Y-102902560D01*
X156362000Y-102200000D01*
X156303996Y-101908395D01*
X156138815Y-101661185D01*
X155775070Y-101297440D01*
X155850000Y-101297440D01*
X156085317Y-101253162D01*
X156301441Y-101114090D01*
X156446431Y-100901890D01*
X156497440Y-100650000D01*
X156497440Y-100562000D01*
X156600000Y-100562000D01*
X156891605Y-100503996D01*
X157138815Y-100338815D01*
X157738815Y-99738815D01*
X157903996Y-99491605D01*
X157929776Y-99361999D01*
X157962000Y-99200000D01*
X157962000Y-98915630D01*
X158628046Y-98249585D01*
X158629032Y-98251971D01*
X159030282Y-98653923D01*
X158630549Y-99052957D01*
X158396367Y-99616930D01*
X158395835Y-100227591D01*
X158629032Y-100791971D01*
X159030282Y-101193923D01*
X158630549Y-101592957D01*
X158396367Y-102156930D01*
X158395835Y-102767591D01*
X158629032Y-103331971D01*
X159030282Y-103733923D01*
X158630549Y-104132957D01*
X158506270Y-104432255D01*
X158497670Y-104438001D01*
X158457585Y-104464785D01*
X157061185Y-105861185D01*
X156896004Y-106108395D01*
X156838000Y-106400000D01*
X156838000Y-106884369D01*
X156419809Y-107302560D01*
X154600000Y-107302560D01*
X154364683Y-107346838D01*
X154148559Y-107485910D01*
X154003569Y-107698110D01*
X153952560Y-107950000D01*
X153952560Y-109650000D01*
X153996838Y-109885317D01*
X154135910Y-110101441D01*
X154348110Y-110246431D01*
X154600000Y-110297440D01*
X156600000Y-110297440D01*
X156835317Y-110253162D01*
X157051441Y-110114090D01*
X157196431Y-109901890D01*
X157247440Y-109650000D01*
X157247440Y-108630190D01*
X158138816Y-107738815D01*
X158299349Y-107498559D01*
X158303996Y-107491605D01*
X158362000Y-107200000D01*
X158362000Y-106715630D01*
X158917093Y-106160537D01*
X159030282Y-106273923D01*
X158630549Y-106672957D01*
X158396367Y-107236930D01*
X158395835Y-107847591D01*
X158629032Y-108411971D01*
X159030282Y-108813923D01*
X158630549Y-109212957D01*
X158585436Y-109321600D01*
X158116400Y-109321600D01*
X157824795Y-109379604D01*
X157577584Y-109544785D01*
X157461185Y-109661185D01*
X157296004Y-109908395D01*
X157238000Y-110200000D01*
X157238000Y-110484370D01*
X156284370Y-111438000D01*
X149960000Y-111438000D01*
X149668395Y-111496004D01*
X149421184Y-111661185D01*
X148141185Y-112941185D01*
X147976004Y-113188395D01*
X147918000Y-113480000D01*
X147918000Y-114804779D01*
X147472200Y-114988980D01*
X146871091Y-115589041D01*
X146545372Y-116373459D01*
X146544630Y-117222815D01*
X146868980Y-118007800D01*
X147469041Y-118608909D01*
X148253459Y-118934628D01*
X149102815Y-118935370D01*
X149887800Y-118611020D01*
X150185368Y-118313970D01*
X152425635Y-118313970D01*
X152585418Y-118632739D01*
X153376187Y-118942723D01*
X154225387Y-118926497D01*
X154934582Y-118632739D01*
X155094365Y-118313970D01*
X153760000Y-116979605D01*
X152425635Y-118313970D01*
X150185368Y-118313970D01*
X150488909Y-118010959D01*
X150814628Y-117226541D01*
X150815335Y-116416187D01*
X151617277Y-116416187D01*
X151633503Y-117265387D01*
X151927261Y-117974582D01*
X152246030Y-118134365D01*
X153580395Y-116800000D01*
X153939605Y-116800000D01*
X155273970Y-118134365D01*
X155592739Y-117974582D01*
X155902723Y-117183813D01*
X155886497Y-116334613D01*
X155592739Y-115625418D01*
X155273970Y-115465635D01*
X153939605Y-116800000D01*
X153580395Y-116800000D01*
X152246030Y-115465635D01*
X151927261Y-115625418D01*
X151617277Y-116416187D01*
X150815335Y-116416187D01*
X150815370Y-116377185D01*
X150491020Y-115592200D01*
X150185384Y-115286030D01*
X152425635Y-115286030D01*
X153760000Y-116620395D01*
X155094365Y-115286030D01*
X154934582Y-114967261D01*
X154143813Y-114657277D01*
X153294613Y-114673503D01*
X152585418Y-114967261D01*
X152425635Y-115286030D01*
X150185384Y-115286030D01*
X149890959Y-114991091D01*
X149442000Y-114804667D01*
X149442000Y-113795630D01*
X150275631Y-112962000D01*
X156600000Y-112962000D01*
X156891605Y-112903996D01*
X157138815Y-112738815D01*
X158538815Y-111338815D01*
X158703996Y-111091605D01*
X158714701Y-111037790D01*
X159030282Y-111353923D01*
X158630549Y-111752957D01*
X158396367Y-112316930D01*
X158395835Y-112927591D01*
X158629032Y-113491971D01*
X159060457Y-113924151D01*
X159624430Y-114158333D01*
X160235091Y-114158865D01*
X160690000Y-113970900D01*
X160690000Y-120690000D01*
X136110000Y-120690000D01*
X136110000Y-113833536D01*
X136200457Y-113924151D01*
X136764430Y-114158333D01*
X137281153Y-114158783D01*
X138638000Y-115515630D01*
X138638000Y-116400000D01*
X138696004Y-116691605D01*
X138861185Y-116938815D01*
X139261184Y-117338815D01*
X139508395Y-117503996D01*
X139800000Y-117562000D01*
X141452560Y-117562000D01*
X141452560Y-118300000D01*
X141496838Y-118535317D01*
X141635910Y-118751441D01*
X141848110Y-118896431D01*
X142100000Y-118947440D01*
X145100000Y-118947440D01*
X145335317Y-118903162D01*
X145551441Y-118764090D01*
X145696431Y-118551890D01*
X145747440Y-118300000D01*
X145747440Y-115300000D01*
X145703162Y-115064683D01*
X145564090Y-114848559D01*
X145351890Y-114703569D01*
X145100000Y-114652560D01*
X142100000Y-114652560D01*
X141864683Y-114696838D01*
X141648559Y-114835910D01*
X141503569Y-115048110D01*
X141452560Y-115300000D01*
X141452560Y-116038000D01*
X140162000Y-116038000D01*
X140162000Y-115200000D01*
X140103996Y-114908395D01*
X139938815Y-114661185D01*
X138489078Y-113211448D01*
X138605833Y-112930270D01*
X138606365Y-112319609D01*
X138373168Y-111755229D01*
X137941743Y-111323049D01*
X137920906Y-111314397D01*
X137971654Y-111163759D01*
X137071100Y-110263205D01*
X137056958Y-110277348D01*
X136877353Y-110097743D01*
X136891495Y-110083600D01*
X137250705Y-110083600D01*
X138151259Y-110984154D01*
X138407743Y-110897748D01*
X138617558Y-110324264D01*
X138591939Y-109714140D01*
X138407743Y-109269452D01*
X138151259Y-109183046D01*
X137250705Y-110083600D01*
X136891495Y-110083600D01*
X136877353Y-110069458D01*
X137056958Y-109889853D01*
X137071100Y-109903995D01*
X137889345Y-109085750D01*
X141965000Y-109085750D01*
X141965000Y-109726310D01*
X142061673Y-109959699D01*
X142240302Y-110138327D01*
X142473691Y-110235000D01*
X142814250Y-110235000D01*
X142973000Y-110076250D01*
X142973000Y-108927000D01*
X143227000Y-108927000D01*
X143227000Y-110076250D01*
X143385750Y-110235000D01*
X143726309Y-110235000D01*
X143959698Y-110138327D01*
X144138327Y-109959699D01*
X144235000Y-109726310D01*
X144235000Y-109085750D01*
X144076250Y-108927000D01*
X143227000Y-108927000D01*
X142973000Y-108927000D01*
X142123750Y-108927000D01*
X141965000Y-109085750D01*
X137889345Y-109085750D01*
X137971654Y-109003441D01*
X137921065Y-108853273D01*
X137939471Y-108845668D01*
X138371651Y-108414243D01*
X138596108Y-107873690D01*
X141965000Y-107873690D01*
X141965000Y-108514250D01*
X142123750Y-108673000D01*
X142973000Y-108673000D01*
X142973000Y-107523750D01*
X143227000Y-107523750D01*
X143227000Y-108673000D01*
X144076250Y-108673000D01*
X144235000Y-108514250D01*
X144235000Y-108000000D01*
X144952560Y-108000000D01*
X144952560Y-109600000D01*
X144996838Y-109835317D01*
X145135910Y-110051441D01*
X145348110Y-110196431D01*
X145600000Y-110247440D01*
X146600000Y-110247440D01*
X146835317Y-110203162D01*
X147051441Y-110064090D01*
X147196431Y-109851890D01*
X147247440Y-109600000D01*
X147247440Y-109562000D01*
X149952560Y-109562000D01*
X149952560Y-109650000D01*
X149996838Y-109885317D01*
X150135910Y-110101441D01*
X150348110Y-110246431D01*
X150600000Y-110297440D01*
X152600000Y-110297440D01*
X152835317Y-110253162D01*
X153051441Y-110114090D01*
X153196431Y-109901890D01*
X153247440Y-109650000D01*
X153247440Y-107950000D01*
X153203162Y-107714683D01*
X153064090Y-107498559D01*
X152851890Y-107353569D01*
X152600000Y-107302560D01*
X150600000Y-107302560D01*
X150364683Y-107346838D01*
X150148559Y-107485910D01*
X150003569Y-107698110D01*
X149952560Y-107950000D01*
X149952560Y-108038000D01*
X147247440Y-108038000D01*
X147247440Y-108000000D01*
X147203162Y-107764683D01*
X147064090Y-107548559D01*
X146851890Y-107403569D01*
X146600000Y-107352560D01*
X145600000Y-107352560D01*
X145364683Y-107396838D01*
X145148559Y-107535910D01*
X145003569Y-107748110D01*
X144952560Y-108000000D01*
X144235000Y-108000000D01*
X144235000Y-107873690D01*
X144138327Y-107640301D01*
X143959698Y-107461673D01*
X143726309Y-107365000D01*
X143385750Y-107365000D01*
X143227000Y-107523750D01*
X142973000Y-107523750D01*
X142814250Y-107365000D01*
X142473691Y-107365000D01*
X142240302Y-107461673D01*
X142061673Y-107640301D01*
X141965000Y-107873690D01*
X138596108Y-107873690D01*
X138605833Y-107850270D01*
X138606365Y-107239609D01*
X138373168Y-106675229D01*
X137971918Y-106273277D01*
X138371651Y-105874243D01*
X138605833Y-105310270D01*
X138606365Y-104699609D01*
X138373168Y-104135229D01*
X137971918Y-103733277D01*
X138213994Y-103491624D01*
X139661185Y-104938815D01*
X139908395Y-105103996D01*
X140200000Y-105162000D01*
X140952560Y-105162000D01*
X140952560Y-105250000D01*
X140996838Y-105485317D01*
X141135910Y-105701441D01*
X141348110Y-105846431D01*
X141600000Y-105897440D01*
X143600000Y-105897440D01*
X143835317Y-105853162D01*
X144051441Y-105714090D01*
X144196431Y-105501890D01*
X144247440Y-105250000D01*
X144247440Y-103550000D01*
X144952560Y-103550000D01*
X144952560Y-105250000D01*
X144996838Y-105485317D01*
X145135910Y-105701441D01*
X145348110Y-105846431D01*
X145600000Y-105897440D01*
X146219810Y-105897440D01*
X146622013Y-106299643D01*
X146621931Y-106393663D01*
X146770493Y-106753212D01*
X147045341Y-107028540D01*
X147404630Y-107177730D01*
X147793663Y-107178069D01*
X148153212Y-107029507D01*
X148428540Y-106754659D01*
X148577730Y-106395370D01*
X148577731Y-106393663D01*
X149621931Y-106393663D01*
X149770493Y-106753212D01*
X150045341Y-107028540D01*
X150404630Y-107177730D01*
X150793663Y-107178069D01*
X151153212Y-107029507D01*
X151428540Y-106754659D01*
X151577730Y-106395370D01*
X151577813Y-106299817D01*
X151980191Y-105897440D01*
X152600000Y-105897440D01*
X152835317Y-105853162D01*
X153051441Y-105714090D01*
X153196431Y-105501890D01*
X153247440Y-105250000D01*
X153247440Y-103550000D01*
X153203162Y-103314683D01*
X153064090Y-103098559D01*
X152851890Y-102953569D01*
X152600000Y-102902560D01*
X150600000Y-102902560D01*
X150364683Y-102946838D01*
X150148559Y-103085910D01*
X150003569Y-103298110D01*
X149952560Y-103550000D01*
X149952560Y-105250000D01*
X149986548Y-105430628D01*
X149771460Y-105645341D01*
X149622270Y-106004630D01*
X149621931Y-106393663D01*
X148577731Y-106393663D01*
X148578069Y-106006337D01*
X148429507Y-105646788D01*
X148211345Y-105428245D01*
X148247440Y-105250000D01*
X148247440Y-103550000D01*
X148203162Y-103314683D01*
X148064090Y-103098559D01*
X147851890Y-102953569D01*
X147600000Y-102902560D01*
X145600000Y-102902560D01*
X145364683Y-102946838D01*
X145148559Y-103085910D01*
X145003569Y-103298110D01*
X144952560Y-103550000D01*
X144247440Y-103550000D01*
X144228466Y-103449164D01*
X145278815Y-102398815D01*
X145430371Y-102171996D01*
X145443996Y-102151605D01*
X145502000Y-101860000D01*
X145502000Y-101071618D01*
X145790054Y-100879147D01*
X146010000Y-100549974D01*
X146229946Y-100879147D01*
X146711715Y-101201054D01*
X147280000Y-101314093D01*
X147848285Y-101201054D01*
X148330054Y-100879147D01*
X148651961Y-100397378D01*
X148699796Y-100156892D01*
X151018514Y-100156892D01*
X151264817Y-100681358D01*
X151693076Y-101071645D01*
X152103110Y-101241476D01*
X152333000Y-101120155D01*
X152333000Y-99927000D01*
X151139181Y-99927000D01*
X151018514Y-100156892D01*
X148699796Y-100156892D01*
X148765000Y-99829093D01*
X148765000Y-99770907D01*
X148699797Y-99443108D01*
X151018514Y-99443108D01*
X151139181Y-99673000D01*
X152333000Y-99673000D01*
X152333000Y-98479845D01*
X152103110Y-98358524D01*
X151693076Y-98528355D01*
X151264817Y-98918642D01*
X151018514Y-99443108D01*
X148699797Y-99443108D01*
X148651961Y-99202622D01*
X148330054Y-98720853D01*
X147848285Y-98398946D01*
X147280000Y-98285907D01*
X146711715Y-98398946D01*
X146229946Y-98720853D01*
X146010000Y-99050026D01*
X145790054Y-98720853D01*
X145308285Y-98398946D01*
X144740000Y-98285907D01*
X144171715Y-98398946D01*
X143689946Y-98720853D01*
X143660597Y-98764777D01*
X143588327Y-98590302D01*
X143409699Y-98411673D01*
X143176310Y-98315000D01*
X142485750Y-98315000D01*
X142327000Y-98473750D01*
X142327000Y-99673000D01*
X142347000Y-99673000D01*
X142347000Y-99927000D01*
X142327000Y-99927000D01*
X142327000Y-101126250D01*
X142485750Y-101285000D01*
X143176310Y-101285000D01*
X143409699Y-101188327D01*
X143588327Y-101009698D01*
X143660597Y-100835223D01*
X143689946Y-100879147D01*
X143978000Y-101071618D01*
X143978000Y-101544370D01*
X142619810Y-102902560D01*
X141600000Y-102902560D01*
X141364683Y-102946838D01*
X141148559Y-103085910D01*
X141003569Y-103298110D01*
X140952560Y-103550000D01*
X140952560Y-103638000D01*
X140515630Y-103638000D01*
X138802415Y-101924785D01*
X138752756Y-101891604D01*
X138555205Y-101759604D01*
X138430867Y-101734872D01*
X138373168Y-101595229D01*
X137971918Y-101193277D01*
X138371651Y-100794243D01*
X138416764Y-100685600D01*
X138676400Y-100685600D01*
X138968005Y-100627596D01*
X139215215Y-100462415D01*
X139591880Y-100085750D01*
X140715000Y-100085750D01*
X140715000Y-100776309D01*
X140811673Y-101009698D01*
X140990301Y-101188327D01*
X141223690Y-101285000D01*
X141914250Y-101285000D01*
X142073000Y-101126250D01*
X142073000Y-99927000D01*
X140873750Y-99927000D01*
X140715000Y-100085750D01*
X139591880Y-100085750D01*
X140038815Y-99638816D01*
X140203996Y-99391605D01*
X140209885Y-99361999D01*
X140262000Y-99100000D01*
X140262000Y-98823691D01*
X140715000Y-98823691D01*
X140715000Y-99514250D01*
X140873750Y-99673000D01*
X142073000Y-99673000D01*
X142073000Y-98473750D01*
X141914250Y-98315000D01*
X141223690Y-98315000D01*
X140990301Y-98411673D01*
X140811673Y-98590302D01*
X140715000Y-98823691D01*
X140262000Y-98823691D01*
X140262000Y-96115630D01*
X141415631Y-94962000D01*
X148800000Y-94962000D01*
X149091605Y-94903996D01*
X149338815Y-94738815D01*
X150078815Y-93998815D01*
X150139232Y-93908395D01*
X150243996Y-93751605D01*
X150302000Y-93460000D01*
X150302000Y-91471618D01*
X150590054Y-91279147D01*
X150817702Y-90938447D01*
X150884817Y-91081358D01*
X151313076Y-91471645D01*
X151723110Y-91641476D01*
X151953000Y-91520155D01*
X151953000Y-90327000D01*
X152207000Y-90327000D01*
X152207000Y-91520155D01*
X152436890Y-91641476D01*
X152846924Y-91471645D01*
X153275183Y-91081358D01*
X153521486Y-90556892D01*
X153400819Y-90327000D01*
X152207000Y-90327000D01*
X151953000Y-90327000D01*
X151933000Y-90327000D01*
X151933000Y-90073000D01*
X151953000Y-90073000D01*
X151953000Y-88879845D01*
X152207000Y-88879845D01*
X152207000Y-90073000D01*
X153400819Y-90073000D01*
X153521486Y-89843108D01*
X153275183Y-89318642D01*
X152846924Y-88928355D01*
X152436890Y-88758524D01*
X152207000Y-88879845D01*
X151953000Y-88879845D01*
X151723110Y-88758524D01*
X151313076Y-88928355D01*
X150884817Y-89318642D01*
X150817702Y-89461553D01*
X150590054Y-89120853D01*
X150108285Y-88798946D01*
X149540000Y-88685907D01*
X148971715Y-88798946D01*
X148489946Y-89120853D01*
X148462150Y-89162452D01*
X148453162Y-89114683D01*
X148314090Y-88898559D01*
X148101890Y-88753569D01*
X147850000Y-88702560D01*
X146150000Y-88702560D01*
X145914683Y-88746838D01*
X145698559Y-88885910D01*
X145553569Y-89098110D01*
X145502560Y-89350000D01*
X145502560Y-91050000D01*
X145546838Y-91285317D01*
X145685910Y-91501441D01*
X145898110Y-91646431D01*
X146150000Y-91697440D01*
X147850000Y-91697440D01*
X148085317Y-91653162D01*
X148301441Y-91514090D01*
X148446431Y-91301890D01*
X148460086Y-91234459D01*
X148489946Y-91279147D01*
X148778000Y-91471618D01*
X148778000Y-93144370D01*
X148484370Y-93438000D01*
X141100000Y-93438000D01*
X140808395Y-93496004D01*
X140709377Y-93562166D01*
X140561185Y-93661184D01*
X138961185Y-95261185D01*
X138796004Y-95508395D01*
X138738000Y-95800000D01*
X138738000Y-98784369D01*
X138400644Y-99121726D01*
X138373168Y-99055229D01*
X137971918Y-98653277D01*
X138371651Y-98254243D01*
X138605833Y-97690270D01*
X138606365Y-97079609D01*
X138373168Y-96515229D01*
X137971918Y-96113277D01*
X138371651Y-95714243D01*
X138605833Y-95150270D01*
X138606365Y-94539609D01*
X138373168Y-93975229D01*
X137941743Y-93543049D01*
X137377770Y-93308867D01*
X136767109Y-93308335D01*
X136202729Y-93541532D01*
X136110000Y-93634099D01*
X136110000Y-90069931D01*
X136327616Y-88975903D01*
X136907720Y-88107717D01*
X137775903Y-87527616D01*
X138869927Y-87310000D01*
X156947089Y-87310000D01*
X158377593Y-87524395D01*
M02*
