M48
;DRILL file {KiCad 4.0.7} date 08/03/18 16:25:08
;FORMAT={2:4/ absolute / inch / suppress trailing zeros}
FMAT,2
INCH,LZ
T1C0.013
T2C0.039
T3C0.040
T4C0.060
%
G90
G05
M72
T1
X05811Y-041811
X059291Y-041811
T2
X055984Y-039291
X056984Y-039291
X057874Y-035512
X057984Y-039291
X058874Y-035512
X059874Y-035512
X060024Y-039291
X061024Y-039291
T3
X053965Y-03734
X053965Y-03834
X053965Y-03934
X053965Y-04034
X053965Y-04134
X053965Y-04234
X053965Y-04334
X053965Y-04434
X062965Y-03734
X062965Y-03834
X062965Y-03934
X062965Y-04034
X062965Y-04134
X062965Y-04234
X062965Y-04334
X062965Y-04434
T4
X056535Y-045984
X058535Y-045984
X060535Y-045984
T0
M30
