G04 #@! TF.FileFunction,Legend,Bot*
%FSLAX46Y46*%
G04 Gerber Fmt 4.6, Leading zero omitted, Abs format (unit mm)*
G04 Created by KiCad (PCBNEW 4.0.7) date 08/03/18 16:25:06*
%MOMM*%
%LPD*%
G01*
G04 APERTURE LIST*
%ADD10C,0.100000*%
%ADD11C,0.250000*%
%ADD12C,0.300000*%
%ADD13C,0.010000*%
%ADD14R,2.100000X2.100000*%
%ADD15O,2.100000X2.100000*%
%ADD16R,3.400000X3.400000*%
%ADD17C,3.400000*%
%ADD18C,2.200000*%
G04 APERTURE END LIST*
D10*
D11*
X155304287Y-94573381D02*
X155304287Y-93573381D01*
X154970953Y-94287667D01*
X154637620Y-93573381D01*
X154637620Y-94573381D01*
X153732858Y-93906714D02*
X153732858Y-94573381D01*
X154161430Y-93906714D02*
X154161430Y-94430524D01*
X154113811Y-94525762D01*
X154018573Y-94573381D01*
X153875715Y-94573381D01*
X153780477Y-94525762D01*
X153732858Y-94478143D01*
X153113811Y-94573381D02*
X153209049Y-94525762D01*
X153256668Y-94430524D01*
X153256668Y-93573381D01*
X152875715Y-93906714D02*
X152494763Y-93906714D01*
X152732858Y-93573381D02*
X152732858Y-94430524D01*
X152685239Y-94525762D01*
X152590001Y-94573381D01*
X152494763Y-94573381D01*
X152161429Y-94573381D02*
X152161429Y-93906714D01*
X152161429Y-93573381D02*
X152209048Y-93621000D01*
X152161429Y-93668619D01*
X152113810Y-93621000D01*
X152161429Y-93573381D01*
X152161429Y-93668619D01*
X151732858Y-94525762D02*
X151637620Y-94573381D01*
X151447144Y-94573381D01*
X151351905Y-94525762D01*
X151304286Y-94430524D01*
X151304286Y-94382905D01*
X151351905Y-94287667D01*
X151447144Y-94240048D01*
X151590001Y-94240048D01*
X151685239Y-94192429D01*
X151732858Y-94097190D01*
X151732858Y-94049571D01*
X151685239Y-93954333D01*
X151590001Y-93906714D01*
X151447144Y-93906714D01*
X151351905Y-93954333D01*
X150494762Y-94525762D02*
X150590000Y-94573381D01*
X150780477Y-94573381D01*
X150875715Y-94525762D01*
X150923334Y-94430524D01*
X150923334Y-94049571D01*
X150875715Y-93954333D01*
X150780477Y-93906714D01*
X150590000Y-93906714D01*
X150494762Y-93954333D01*
X150447143Y-94049571D01*
X150447143Y-94144810D01*
X150923334Y-94240048D01*
X150018572Y-93906714D02*
X150018572Y-94573381D01*
X150018572Y-94001952D02*
X149970953Y-93954333D01*
X149875715Y-93906714D01*
X149732857Y-93906714D01*
X149637619Y-93954333D01*
X149590000Y-94049571D01*
X149590000Y-94573381D01*
X149161429Y-94525762D02*
X149066191Y-94573381D01*
X148875715Y-94573381D01*
X148780476Y-94525762D01*
X148732857Y-94430524D01*
X148732857Y-94382905D01*
X148780476Y-94287667D01*
X148875715Y-94240048D01*
X149018572Y-94240048D01*
X149113810Y-94192429D01*
X149161429Y-94097190D01*
X149161429Y-94049571D01*
X149113810Y-93954333D01*
X149018572Y-93906714D01*
X148875715Y-93906714D01*
X148780476Y-93954333D01*
X148161429Y-94573381D02*
X148256667Y-94525762D01*
X148304286Y-94478143D01*
X148351905Y-94382905D01*
X148351905Y-94097190D01*
X148304286Y-94001952D01*
X148256667Y-93954333D01*
X148161429Y-93906714D01*
X148018571Y-93906714D01*
X147923333Y-93954333D01*
X147875714Y-94001952D01*
X147828095Y-94097190D01*
X147828095Y-94382905D01*
X147875714Y-94478143D01*
X147923333Y-94525762D01*
X148018571Y-94573381D01*
X148161429Y-94573381D01*
X147399524Y-94573381D02*
X147399524Y-93906714D01*
X147399524Y-94097190D02*
X147351905Y-94001952D01*
X147304286Y-93954333D01*
X147209048Y-93906714D01*
X147113809Y-93906714D01*
X146066190Y-94525762D02*
X145923333Y-94573381D01*
X145685237Y-94573381D01*
X145589999Y-94525762D01*
X145542380Y-94478143D01*
X145494761Y-94382905D01*
X145494761Y-94287667D01*
X145542380Y-94192429D01*
X145589999Y-94144810D01*
X145685237Y-94097190D01*
X145875714Y-94049571D01*
X145970952Y-94001952D01*
X146018571Y-93954333D01*
X146066190Y-93859095D01*
X146066190Y-93763857D01*
X146018571Y-93668619D01*
X145970952Y-93621000D01*
X145875714Y-93573381D01*
X145637618Y-93573381D01*
X145494761Y-93621000D01*
X145066190Y-94573381D02*
X145066190Y-93573381D01*
X144637618Y-94573381D02*
X144637618Y-94049571D01*
X144685237Y-93954333D01*
X144780475Y-93906714D01*
X144923333Y-93906714D01*
X145018571Y-93954333D01*
X145066190Y-94001952D01*
X144161428Y-94573381D02*
X144161428Y-93906714D01*
X144161428Y-93573381D02*
X144209047Y-93621000D01*
X144161428Y-93668619D01*
X144113809Y-93621000D01*
X144161428Y-93573381D01*
X144161428Y-93668619D01*
X143304285Y-94525762D02*
X143399523Y-94573381D01*
X143590000Y-94573381D01*
X143685238Y-94525762D01*
X143732857Y-94430524D01*
X143732857Y-94049571D01*
X143685238Y-93954333D01*
X143590000Y-93906714D01*
X143399523Y-93906714D01*
X143304285Y-93954333D01*
X143256666Y-94049571D01*
X143256666Y-94144810D01*
X143732857Y-94240048D01*
X142685238Y-94573381D02*
X142780476Y-94525762D01*
X142828095Y-94430524D01*
X142828095Y-93573381D01*
X141875713Y-94573381D02*
X141875713Y-93573381D01*
X141875713Y-94525762D02*
X141970951Y-94573381D01*
X142161428Y-94573381D01*
X142256666Y-94525762D01*
X142304285Y-94478143D01*
X142351904Y-94382905D01*
X142351904Y-94097190D01*
X142304285Y-94001952D01*
X142256666Y-93954333D01*
X142161428Y-93906714D01*
X141970951Y-93906714D01*
X141875713Y-93954333D01*
X151685238Y-95323381D02*
X151351905Y-96323381D01*
X151018571Y-95323381D01*
X150161428Y-96323381D02*
X150732857Y-96323381D01*
X150447143Y-96323381D02*
X150447143Y-95323381D01*
X150542381Y-95466238D01*
X150637619Y-95561476D01*
X150732857Y-95609095D01*
X149018571Y-95418619D02*
X148970952Y-95371000D01*
X148875714Y-95323381D01*
X148637618Y-95323381D01*
X148542380Y-95371000D01*
X148494761Y-95418619D01*
X148447142Y-95513857D01*
X148447142Y-95609095D01*
X148494761Y-95751952D01*
X149066190Y-96323381D01*
X148447142Y-96323381D01*
X147828095Y-95323381D02*
X147732856Y-95323381D01*
X147637618Y-95371000D01*
X147589999Y-95418619D01*
X147542380Y-95513857D01*
X147494761Y-95704333D01*
X147494761Y-95942429D01*
X147542380Y-96132905D01*
X147589999Y-96228143D01*
X147637618Y-96275762D01*
X147732856Y-96323381D01*
X147828095Y-96323381D01*
X147923333Y-96275762D01*
X147970952Y-96228143D01*
X148018571Y-96132905D01*
X148066190Y-95942429D01*
X148066190Y-95704333D01*
X148018571Y-95513857D01*
X147970952Y-95418619D01*
X147923333Y-95371000D01*
X147828095Y-95323381D01*
X146542380Y-96323381D02*
X147113809Y-96323381D01*
X146828095Y-96323381D02*
X146828095Y-95323381D01*
X146923333Y-95466238D01*
X147018571Y-95561476D01*
X147113809Y-95609095D01*
X145970952Y-95751952D02*
X146066190Y-95704333D01*
X146113809Y-95656714D01*
X146161428Y-95561476D01*
X146161428Y-95513857D01*
X146113809Y-95418619D01*
X146066190Y-95371000D01*
X145970952Y-95323381D01*
X145780475Y-95323381D01*
X145685237Y-95371000D01*
X145637618Y-95418619D01*
X145589999Y-95513857D01*
X145589999Y-95561476D01*
X145637618Y-95656714D01*
X145685237Y-95704333D01*
X145780475Y-95751952D01*
X145970952Y-95751952D01*
X146066190Y-95799571D01*
X146113809Y-95847190D01*
X146161428Y-95942429D01*
X146161428Y-96132905D01*
X146113809Y-96228143D01*
X146066190Y-96275762D01*
X145970952Y-96323381D01*
X145780475Y-96323381D01*
X145685237Y-96275762D01*
X145637618Y-96228143D01*
X145589999Y-96132905D01*
X145589999Y-95942429D01*
X145637618Y-95847190D01*
X145685237Y-95799571D01*
X145780475Y-95751952D01*
D12*
X154982857Y-111417571D02*
X155482857Y-110703286D01*
X155840000Y-111417571D02*
X155840000Y-109917571D01*
X155268572Y-109917571D01*
X155125714Y-109989000D01*
X155054286Y-110060429D01*
X154982857Y-110203286D01*
X154982857Y-110417571D01*
X155054286Y-110560429D01*
X155125714Y-110631857D01*
X155268572Y-110703286D01*
X155840000Y-110703286D01*
X153697143Y-111417571D02*
X153697143Y-110631857D01*
X153768572Y-110489000D01*
X153911429Y-110417571D01*
X154197143Y-110417571D01*
X154340000Y-110489000D01*
X153697143Y-111346143D02*
X153840000Y-111417571D01*
X154197143Y-111417571D01*
X154340000Y-111346143D01*
X154411429Y-111203286D01*
X154411429Y-111060429D01*
X154340000Y-110917571D01*
X154197143Y-110846143D01*
X153840000Y-110846143D01*
X153697143Y-110774714D01*
X152982857Y-110417571D02*
X152982857Y-111417571D01*
X152982857Y-110560429D02*
X152911429Y-110489000D01*
X152768571Y-110417571D01*
X152554286Y-110417571D01*
X152411429Y-110489000D01*
X152340000Y-110631857D01*
X152340000Y-111417571D01*
X150982857Y-111417571D02*
X150982857Y-109917571D01*
X150982857Y-111346143D02*
X151125714Y-111417571D01*
X151411428Y-111417571D01*
X151554286Y-111346143D01*
X151625714Y-111274714D01*
X151697143Y-111131857D01*
X151697143Y-110703286D01*
X151625714Y-110560429D01*
X151554286Y-110489000D01*
X151411428Y-110417571D01*
X151125714Y-110417571D01*
X150982857Y-110489000D01*
X150054285Y-111417571D02*
X150197143Y-111346143D01*
X150268571Y-111274714D01*
X150340000Y-111131857D01*
X150340000Y-110703286D01*
X150268571Y-110560429D01*
X150197143Y-110489000D01*
X150054285Y-110417571D01*
X149840000Y-110417571D01*
X149697143Y-110489000D01*
X149625714Y-110560429D01*
X149554285Y-110703286D01*
X149554285Y-111131857D01*
X149625714Y-111274714D01*
X149697143Y-111346143D01*
X149840000Y-111417571D01*
X150054285Y-111417571D01*
X148911428Y-111417571D02*
X148911428Y-110417571D01*
X148911428Y-110560429D02*
X148840000Y-110489000D01*
X148697142Y-110417571D01*
X148482857Y-110417571D01*
X148340000Y-110489000D01*
X148268571Y-110631857D01*
X148268571Y-111417571D01*
X148268571Y-110631857D02*
X148197142Y-110489000D01*
X148054285Y-110417571D01*
X147840000Y-110417571D01*
X147697142Y-110489000D01*
X147625714Y-110631857D01*
X147625714Y-111417571D01*
X145768571Y-111417571D02*
X145768571Y-109917571D01*
X144911428Y-111417571D01*
X144911428Y-109917571D01*
X143625714Y-111346143D02*
X143768571Y-111417571D01*
X144054285Y-111417571D01*
X144197142Y-111346143D01*
X144268571Y-111203286D01*
X144268571Y-110631857D01*
X144197142Y-110489000D01*
X144054285Y-110417571D01*
X143768571Y-110417571D01*
X143625714Y-110489000D01*
X143554285Y-110631857D01*
X143554285Y-110774714D01*
X144268571Y-110917571D01*
X142911428Y-111417571D02*
X142911428Y-110417571D01*
X142911428Y-110703286D02*
X142840000Y-110560429D01*
X142768571Y-110489000D01*
X142625714Y-110417571D01*
X142482857Y-110417571D01*
X141340000Y-111417571D02*
X141340000Y-109917571D01*
X141340000Y-111346143D02*
X141482857Y-111417571D01*
X141768571Y-111417571D01*
X141911429Y-111346143D01*
X141982857Y-111274714D01*
X142054286Y-111131857D01*
X142054286Y-110703286D01*
X141982857Y-110560429D01*
X141911429Y-110489000D01*
X141768571Y-110417571D01*
X141482857Y-110417571D01*
X141340000Y-110489000D01*
X153304286Y-112467571D02*
X152447143Y-112467571D01*
X152875714Y-113967571D02*
X152875714Y-112467571D01*
X151304286Y-112967571D02*
X151304286Y-113967571D01*
X151947143Y-112967571D02*
X151947143Y-113753286D01*
X151875715Y-113896143D01*
X151732857Y-113967571D01*
X151518572Y-113967571D01*
X151375715Y-113896143D01*
X151304286Y-113824714D01*
X150804286Y-112967571D02*
X150232857Y-112967571D01*
X150590000Y-112467571D02*
X150590000Y-113753286D01*
X150518572Y-113896143D01*
X150375714Y-113967571D01*
X150232857Y-113967571D01*
X149518571Y-113967571D02*
X149661429Y-113896143D01*
X149732857Y-113824714D01*
X149804286Y-113681857D01*
X149804286Y-113253286D01*
X149732857Y-113110429D01*
X149661429Y-113039000D01*
X149518571Y-112967571D01*
X149304286Y-112967571D01*
X149161429Y-113039000D01*
X149090000Y-113110429D01*
X149018571Y-113253286D01*
X149018571Y-113681857D01*
X149090000Y-113824714D01*
X149161429Y-113896143D01*
X149304286Y-113967571D01*
X149518571Y-113967571D01*
X148375714Y-113967571D02*
X148375714Y-112967571D01*
X148375714Y-113253286D02*
X148304286Y-113110429D01*
X148232857Y-113039000D01*
X148090000Y-112967571D01*
X147947143Y-112967571D01*
X147447143Y-113967571D02*
X147447143Y-112967571D01*
X147447143Y-112467571D02*
X147518572Y-112539000D01*
X147447143Y-112610429D01*
X147375715Y-112539000D01*
X147447143Y-112467571D01*
X147447143Y-112610429D01*
X146090000Y-113967571D02*
X146090000Y-113181857D01*
X146161429Y-113039000D01*
X146304286Y-112967571D01*
X146590000Y-112967571D01*
X146732857Y-113039000D01*
X146090000Y-113896143D02*
X146232857Y-113967571D01*
X146590000Y-113967571D01*
X146732857Y-113896143D01*
X146804286Y-113753286D01*
X146804286Y-113610429D01*
X146732857Y-113467571D01*
X146590000Y-113396143D01*
X146232857Y-113396143D01*
X146090000Y-113324714D01*
X145161428Y-113967571D02*
X145304286Y-113896143D01*
X145375714Y-113753286D01*
X145375714Y-112467571D01*
X144661429Y-113896143D02*
X144518572Y-113967571D01*
X144232857Y-113967571D01*
X144090000Y-113896143D01*
X144018572Y-113753286D01*
X144018572Y-113681857D01*
X144090000Y-113539000D01*
X144232857Y-113467571D01*
X144447143Y-113467571D01*
X144590000Y-113396143D01*
X144661429Y-113253286D01*
X144661429Y-113181857D01*
X144590000Y-113039000D01*
X144447143Y-112967571D01*
X144232857Y-112967571D01*
X144090000Y-113039000D01*
D13*
G36*
X150286324Y-101873987D02*
X150285444Y-101920214D01*
X150283908Y-101959685D01*
X150282027Y-101984784D01*
X150281745Y-101986772D01*
X150280071Y-102005661D01*
X150277803Y-102043255D01*
X150275169Y-102095184D01*
X150272394Y-102157075D01*
X150270446Y-102205060D01*
X150267565Y-102275495D01*
X150264536Y-102343030D01*
X150261631Y-102402061D01*
X150259120Y-102446983D01*
X150257914Y-102464832D01*
X150255386Y-102502177D01*
X150252222Y-102555336D01*
X150248839Y-102617058D01*
X150245817Y-102676613D01*
X150238675Y-102823818D01*
X149963909Y-102823818D01*
X149963909Y-103632383D01*
X149357773Y-103626227D01*
X149356457Y-103227909D01*
X149355811Y-103032502D01*
X149155728Y-103032502D01*
X149155728Y-103597363D01*
X148451455Y-103597363D01*
X148451455Y-103031636D01*
X148715585Y-103031636D01*
X148721549Y-102982568D01*
X148723577Y-102958109D01*
X148726254Y-102914158D01*
X148729403Y-102854295D01*
X148732844Y-102782106D01*
X148736399Y-102701171D01*
X148739852Y-102616000D01*
X148745378Y-102475344D01*
X148750193Y-102356309D01*
X148754367Y-102257434D01*
X148757972Y-102177262D01*
X148761078Y-102114335D01*
X148763757Y-102067193D01*
X148766079Y-102034380D01*
X148768117Y-102014437D01*
X148769522Y-102006977D01*
X148783897Y-101997488D01*
X148817366Y-101992861D01*
X148831873Y-101992545D01*
X148866945Y-101993848D01*
X148885393Y-101999508D01*
X148893614Y-102012149D01*
X148895222Y-102018522D01*
X148897312Y-102037759D01*
X148900145Y-102078235D01*
X148903634Y-102138116D01*
X148907690Y-102215565D01*
X148912223Y-102308747D01*
X148917144Y-102415826D01*
X148922366Y-102534966D01*
X148927799Y-102664332D01*
X148933355Y-102802087D01*
X148934438Y-102829591D01*
X148942137Y-103025863D01*
X149048932Y-103029183D01*
X149155728Y-103032502D01*
X149355811Y-103032502D01*
X149355140Y-102829591D01*
X149249773Y-102826272D01*
X149199860Y-102824304D01*
X149168419Y-102821419D01*
X149150835Y-102816412D01*
X149142490Y-102808077D01*
X149139201Y-102797409D01*
X149137126Y-102777797D01*
X149134636Y-102739444D01*
X149131956Y-102686692D01*
X149129311Y-102623882D01*
X149127388Y-102569818D01*
X149124923Y-102499078D01*
X149121865Y-102418544D01*
X149118366Y-102331630D01*
X149114582Y-102241752D01*
X149110667Y-102152323D01*
X149106774Y-102066758D01*
X149103059Y-101988472D01*
X149099674Y-101920880D01*
X149096775Y-101867395D01*
X149094516Y-101831433D01*
X149093496Y-101819363D01*
X149090300Y-101790500D01*
X148835225Y-101787395D01*
X148751883Y-101786502D01*
X148688751Y-101786248D01*
X148642953Y-101786825D01*
X148611613Y-101788423D01*
X148591855Y-101791233D01*
X148580802Y-101795446D01*
X148575578Y-101801253D01*
X148574282Y-101804713D01*
X148571859Y-101822850D01*
X148568991Y-101859616D01*
X148565958Y-101910559D01*
X148563036Y-101971227D01*
X148561473Y-102009863D01*
X148558743Y-102077396D01*
X148555826Y-102140931D01*
X148552996Y-102195021D01*
X148550530Y-102234213D01*
X148549517Y-102246545D01*
X148547662Y-102273848D01*
X148545402Y-102319829D01*
X148542915Y-102380085D01*
X148540382Y-102450210D01*
X148537981Y-102525800D01*
X148537539Y-102540954D01*
X148535191Y-102614524D01*
X148532620Y-102681070D01*
X148530008Y-102736837D01*
X148527537Y-102778068D01*
X148525387Y-102801007D01*
X148524875Y-102803613D01*
X148519987Y-102812258D01*
X148508502Y-102818048D01*
X148486498Y-102821534D01*
X148450054Y-102823270D01*
X148395249Y-102823806D01*
X148381404Y-102823818D01*
X148243637Y-102823818D01*
X148243637Y-103632000D01*
X147574000Y-103632000D01*
X147574000Y-103031636D01*
X147366182Y-103031636D01*
X147366182Y-103597363D01*
X146661909Y-103597363D01*
X146661909Y-103031636D01*
X146936040Y-103031636D01*
X146943580Y-102867113D01*
X146948305Y-102766055D01*
X146953282Y-102663253D01*
X146958333Y-102562082D01*
X146963281Y-102465915D01*
X146967949Y-102378126D01*
X146972159Y-102302089D01*
X146975734Y-102241177D01*
X146978497Y-102198764D01*
X146979247Y-102188818D01*
X146982366Y-102137904D01*
X146984401Y-102081949D01*
X146984766Y-102058931D01*
X146985182Y-101992545D01*
X147048682Y-101992545D01*
X147085225Y-101993433D01*
X147104375Y-101997625D01*
X147111807Y-102007410D01*
X147113065Y-102018522D01*
X147115236Y-102047551D01*
X147117243Y-102061818D01*
X147118717Y-102078530D01*
X147120782Y-102114264D01*
X147123240Y-102164964D01*
X147125894Y-102226575D01*
X147128246Y-102286954D01*
X147132594Y-102400338D01*
X147137115Y-102511242D01*
X147141689Y-102617223D01*
X147146195Y-102715839D01*
X147150512Y-102804650D01*
X147154520Y-102881212D01*
X147158098Y-102943084D01*
X147161127Y-102987824D01*
X147163485Y-103012990D01*
X147164269Y-103017204D01*
X147176575Y-103025176D01*
X147208080Y-103029899D01*
X147260550Y-103031619D01*
X147267683Y-103031636D01*
X147366182Y-103031636D01*
X147574000Y-103031636D01*
X147574000Y-102824684D01*
X147467205Y-102821365D01*
X147360409Y-102818045D01*
X147353331Y-102714136D01*
X147348293Y-102631790D01*
X147342868Y-102527145D01*
X147337092Y-102400989D01*
X147331001Y-102254108D01*
X147324630Y-102087293D01*
X147324330Y-102079136D01*
X147321700Y-102011251D01*
X147319090Y-101950687D01*
X147316697Y-101901501D01*
X147314716Y-101867746D01*
X147313463Y-101854000D01*
X147310400Y-101828331D01*
X147309338Y-101810704D01*
X147308455Y-101784727D01*
X146788909Y-101784727D01*
X146788909Y-101817343D01*
X146788315Y-101837252D01*
X146786639Y-101876855D01*
X146784041Y-101932789D01*
X146780683Y-102001690D01*
X146776725Y-102080195D01*
X146772326Y-102164941D01*
X146772239Y-102166593D01*
X146767309Y-102261250D01*
X146762328Y-102358690D01*
X146757570Y-102453431D01*
X146753309Y-102539990D01*
X146749818Y-102612887D01*
X146747948Y-102653522D01*
X146740327Y-102823818D01*
X146604217Y-102823818D01*
X146540385Y-102824623D01*
X146497201Y-102827203D01*
X146472272Y-102831802D01*
X146463326Y-102838250D01*
X146462205Y-102852883D01*
X146461217Y-102887802D01*
X146460390Y-102940202D01*
X146459754Y-103007278D01*
X146459338Y-103086224D01*
X146459169Y-103174235D01*
X146459213Y-103239454D01*
X146459882Y-103626227D01*
X146003827Y-103632000D01*
X145547773Y-103637772D01*
X145478500Y-103670185D01*
X145405554Y-103715465D01*
X145341178Y-103776781D01*
X145291225Y-103848014D01*
X145274131Y-103883826D01*
X145247591Y-103949500D01*
X145247591Y-107390045D01*
X145285024Y-107466552D01*
X145335702Y-107547154D01*
X145401499Y-107611120D01*
X145482887Y-107659803D01*
X145547773Y-107690227D01*
X146003818Y-107696000D01*
X146459864Y-107701772D01*
X146459864Y-108498409D01*
X146601296Y-108501650D01*
X146742728Y-108504892D01*
X146742944Y-108547832D01*
X146743124Y-108562692D01*
X146743593Y-108581072D01*
X146744454Y-108605086D01*
X146745810Y-108636845D01*
X146747763Y-108678462D01*
X146750417Y-108732048D01*
X146753875Y-108799715D01*
X146758238Y-108883577D01*
X146763611Y-108985744D01*
X146770096Y-109108329D01*
X146771901Y-109142382D01*
X146776379Y-109228229D01*
X146780415Y-109308338D01*
X146783848Y-109379272D01*
X146786516Y-109437599D01*
X146788257Y-109479883D01*
X146788908Y-109502691D01*
X146788909Y-109503177D01*
X146788909Y-109543272D01*
X147306617Y-109543272D01*
X147313208Y-109471113D01*
X147315343Y-109440871D01*
X147318103Y-109391255D01*
X147321315Y-109325971D01*
X147324806Y-109248723D01*
X147328403Y-109163214D01*
X147331933Y-109073149D01*
X147332487Y-109058363D01*
X147336065Y-108965820D01*
X147339804Y-108875348D01*
X147343514Y-108791071D01*
X147347008Y-108717111D01*
X147350097Y-108657591D01*
X147352594Y-108616635D01*
X147352793Y-108613863D01*
X147360409Y-108509954D01*
X147467205Y-108506635D01*
X147574000Y-108503315D01*
X147574000Y-107730636D01*
X147366182Y-107730636D01*
X147366182Y-108296363D01*
X147267683Y-108296363D01*
X147213033Y-108297744D01*
X147179474Y-108302060D01*
X147165164Y-108309569D01*
X147164620Y-108310795D01*
X147161907Y-108327842D01*
X147158830Y-108363386D01*
X147155352Y-108418164D01*
X147151433Y-108492912D01*
X147147037Y-108588367D01*
X147142126Y-108705263D01*
X147136661Y-108844338D01*
X147135326Y-108879409D01*
X147131894Y-108966308D01*
X147128341Y-109049471D01*
X147124858Y-109124936D01*
X147121635Y-109188741D01*
X147118860Y-109236924D01*
X147116937Y-109263295D01*
X147110344Y-109335454D01*
X146985182Y-109335454D01*
X146985158Y-109292159D01*
X146984546Y-109269211D01*
X146982834Y-109226750D01*
X146980187Y-109168318D01*
X146976771Y-109097460D01*
X146972753Y-109017717D01*
X146968538Y-108937136D01*
X146963590Y-108843445D01*
X146958579Y-108747241D01*
X146953786Y-108653991D01*
X146949490Y-108569165D01*
X146945971Y-108498228D01*
X146944173Y-108460886D01*
X146936404Y-108296363D01*
X146661909Y-108296363D01*
X146661909Y-107730636D01*
X147366182Y-107730636D01*
X147574000Y-107730636D01*
X147574000Y-107696000D01*
X148243637Y-107696000D01*
X148243637Y-108504181D01*
X148381962Y-108504181D01*
X148440373Y-108504370D01*
X148479689Y-108505420D01*
X148503906Y-108508052D01*
X148517021Y-108512993D01*
X148523028Y-108520964D01*
X148525432Y-108530159D01*
X148527007Y-108547086D01*
X148529340Y-108584482D01*
X148532306Y-108639738D01*
X148535777Y-108710250D01*
X148539626Y-108793411D01*
X148543727Y-108886614D01*
X148547953Y-108987254D01*
X148549474Y-109024635D01*
X148553664Y-109127122D01*
X148557691Y-109222953D01*
X148561438Y-109309547D01*
X148564788Y-109384326D01*
X148567626Y-109444712D01*
X148569834Y-109488124D01*
X148571296Y-109511984D01*
X148571621Y-109515317D01*
X148573837Y-109522555D01*
X148579992Y-109528082D01*
X148592947Y-109532177D01*
X148615562Y-109535119D01*
X148650696Y-109537189D01*
X148701210Y-109538666D01*
X148769964Y-109539831D01*
X148830098Y-109540605D01*
X149085326Y-109543711D01*
X149091107Y-109505969D01*
X149094123Y-109481398D01*
X149097174Y-109446041D01*
X149100348Y-109398153D01*
X149103734Y-109335989D01*
X149107418Y-109257806D01*
X149111488Y-109161859D01*
X149116031Y-109046403D01*
X149121136Y-108909695D01*
X149121399Y-108902500D01*
X149124766Y-108814211D01*
X149128151Y-108732485D01*
X149131404Y-108660432D01*
X149134374Y-108601160D01*
X149136913Y-108557777D01*
X149138871Y-108533392D01*
X149139339Y-108530159D01*
X149143299Y-108517755D01*
X149152151Y-108510090D01*
X149170597Y-108506029D01*
X149203341Y-108504438D01*
X149247076Y-108504181D01*
X149302597Y-108502905D01*
X149337163Y-108498894D01*
X149352780Y-108491878D01*
X149353922Y-108489750D01*
X149354957Y-108475127D01*
X149355889Y-108440208D01*
X149356688Y-108387785D01*
X149357327Y-108320652D01*
X149357776Y-108241603D01*
X149358008Y-108153432D01*
X149358025Y-108085659D01*
X149357762Y-107730636D01*
X149155728Y-107730636D01*
X149155728Y-108295497D01*
X149048932Y-108298816D01*
X148942137Y-108302136D01*
X148939687Y-108359863D01*
X148938548Y-108387182D01*
X148936630Y-108433719D01*
X148934091Y-108495619D01*
X148931089Y-108569028D01*
X148927783Y-108650091D01*
X148925027Y-108717772D01*
X148919562Y-108851061D01*
X148914860Y-108963112D01*
X148910827Y-109055763D01*
X148907370Y-109130850D01*
X148904397Y-109190212D01*
X148901813Y-109235685D01*
X148899524Y-109269108D01*
X148897439Y-109292317D01*
X148895462Y-109307149D01*
X148894913Y-109310067D01*
X148889491Y-109325535D01*
X148877371Y-109332846D01*
X148852253Y-109334216D01*
X148829200Y-109333158D01*
X148768955Y-109329681D01*
X148761604Y-109196909D01*
X148759165Y-109149486D01*
X148756043Y-109083588D01*
X148752441Y-109003813D01*
X148748564Y-108914759D01*
X148744615Y-108821024D01*
X148740882Y-108729318D01*
X148737335Y-108641247D01*
X148733951Y-108558601D01*
X148730873Y-108484798D01*
X148728245Y-108423257D01*
X148726213Y-108377396D01*
X148724921Y-108350633D01*
X148724790Y-108348318D01*
X148722068Y-108302136D01*
X148586762Y-108298883D01*
X148451455Y-108295630D01*
X148451455Y-107730636D01*
X149155728Y-107730636D01*
X149357762Y-107730636D01*
X149357736Y-107696000D01*
X149963909Y-107696000D01*
X149963909Y-108504181D01*
X150102455Y-108504181D01*
X150161274Y-108504492D01*
X150200767Y-108505791D01*
X150224694Y-108508624D01*
X150236815Y-108513541D01*
X150240890Y-108521089D01*
X150241111Y-108524386D01*
X150241771Y-108546050D01*
X150243489Y-108586488D01*
X150246044Y-108641416D01*
X150249219Y-108706552D01*
X150252794Y-108777614D01*
X150256550Y-108850320D01*
X150260270Y-108920387D01*
X150263733Y-108983532D01*
X150266721Y-109035473D01*
X150269016Y-109071928D01*
X150269279Y-109075681D01*
X150271747Y-109115621D01*
X150274744Y-109172444D01*
X150277970Y-109239959D01*
X150281121Y-109311973D01*
X150282660Y-109349886D01*
X150290269Y-109543272D01*
X150806288Y-109543272D01*
X150811548Y-109517295D01*
X150813632Y-109497534D01*
X150816113Y-109459043D01*
X150818766Y-109406175D01*
X150821369Y-109343284D01*
X150823245Y-109289272D01*
X150826113Y-109205377D01*
X150829542Y-109115053D01*
X150833382Y-109021429D01*
X150837480Y-108927630D01*
X150841687Y-108836783D01*
X150845851Y-108752016D01*
X150849822Y-108676453D01*
X150853447Y-108613224D01*
X150856577Y-108565453D01*
X150859060Y-108536268D01*
X150859902Y-108530159D01*
X150863679Y-108517817D01*
X150872328Y-108510163D01*
X150890509Y-108506081D01*
X150922881Y-108504459D01*
X150968584Y-108504181D01*
X151072273Y-108504181D01*
X151072273Y-107730636D01*
X150864455Y-107730636D01*
X150864455Y-108296363D01*
X150766538Y-108296363D01*
X150718838Y-108296765D01*
X150689409Y-108298777D01*
X150673433Y-108303615D01*
X150666095Y-108312491D01*
X150663399Y-108322341D01*
X150661240Y-108342148D01*
X150658384Y-108382013D01*
X150654976Y-108438920D01*
X150651160Y-108509851D01*
X150647081Y-108591788D01*
X150642883Y-108681716D01*
X150638709Y-108776616D01*
X150634705Y-108873471D01*
X150631014Y-108969265D01*
X150627781Y-109060980D01*
X150627109Y-109081454D01*
X150624488Y-109164315D01*
X150622104Y-109226935D01*
X150619065Y-109272135D01*
X150614477Y-109302738D01*
X150607449Y-109321565D01*
X150597086Y-109331438D01*
X150582497Y-109335180D01*
X150562787Y-109335612D01*
X150546735Y-109335454D01*
X150483455Y-109335454D01*
X150482597Y-109251750D01*
X150481670Y-109206867D01*
X150480053Y-109168718D01*
X150478091Y-109145356D01*
X150478028Y-109144954D01*
X150476354Y-109125974D01*
X150474114Y-109088358D01*
X150471535Y-109036547D01*
X150468843Y-108974981D01*
X150467122Y-108931363D01*
X150463647Y-108846992D01*
X150459246Y-108751410D01*
X150454443Y-108655395D01*
X150449758Y-108569726D01*
X150448962Y-108556136D01*
X150445160Y-108490144D01*
X150441882Y-108429581D01*
X150439381Y-108379416D01*
X150437912Y-108344618D01*
X150437635Y-108333886D01*
X150437273Y-108296363D01*
X150171728Y-108296363D01*
X150171728Y-107730636D01*
X150864455Y-107730636D01*
X151072273Y-107730636D01*
X151072273Y-107696889D01*
X152117137Y-107690227D01*
X152186409Y-107657814D01*
X152259356Y-107612534D01*
X152323731Y-107551218D01*
X152373685Y-107479985D01*
X152390778Y-107444173D01*
X152417318Y-107378500D01*
X152417318Y-106620816D01*
X151473447Y-106620816D01*
X151473383Y-106677079D01*
X151454574Y-106730733D01*
X151418447Y-106776395D01*
X151392765Y-106795517D01*
X151384138Y-106800353D01*
X151374155Y-106804458D01*
X151360966Y-106807892D01*
X151342722Y-106810714D01*
X151317573Y-106812984D01*
X151283669Y-106814764D01*
X151239160Y-106816112D01*
X151182198Y-106817088D01*
X151110932Y-106817754D01*
X151023513Y-106818168D01*
X150918090Y-106818391D01*
X150792816Y-106818483D01*
X150684593Y-106818502D01*
X150014050Y-106818545D01*
X149963002Y-106784341D01*
X149948106Y-106771693D01*
X149918037Y-106743776D01*
X149873911Y-106701688D01*
X149816847Y-106646527D01*
X149747961Y-106579391D01*
X149668369Y-106501376D01*
X149579188Y-106413581D01*
X149481536Y-106317103D01*
X149376529Y-106213040D01*
X149283133Y-106120226D01*
X148888033Y-106120226D01*
X148887442Y-106127178D01*
X148881790Y-106185999D01*
X148582918Y-106485718D01*
X148513512Y-106554928D01*
X148448107Y-106619399D01*
X148388749Y-106677172D01*
X148337482Y-106726287D01*
X148296350Y-106764785D01*
X148267399Y-106790706D01*
X148252869Y-106801991D01*
X148243264Y-106805458D01*
X148227392Y-106808422D01*
X148203596Y-106810920D01*
X148170219Y-106812990D01*
X148125602Y-106814667D01*
X148068087Y-106815988D01*
X147996018Y-106816990D01*
X147907735Y-106817710D01*
X147801582Y-106818184D01*
X147675900Y-106818450D01*
X147529031Y-106818544D01*
X147505301Y-106818545D01*
X147379043Y-106818693D01*
X147259878Y-106819119D01*
X147149770Y-106819797D01*
X147050679Y-106820702D01*
X146964569Y-106821807D01*
X146893401Y-106823087D01*
X146839138Y-106824516D01*
X146803743Y-106826069D01*
X146789177Y-106827719D01*
X146788909Y-106827977D01*
X146796787Y-106838639D01*
X146818713Y-106862681D01*
X146852127Y-106897441D01*
X146894469Y-106940258D01*
X146943177Y-106988471D01*
X146945483Y-106990730D01*
X146995479Y-107040606D01*
X147040049Y-107086807D01*
X147076366Y-107126260D01*
X147101601Y-107155894D01*
X147112892Y-107172549D01*
X147123973Y-107232038D01*
X147114412Y-107290807D01*
X147086134Y-107343249D01*
X147041064Y-107383760D01*
X147040129Y-107384335D01*
X146985348Y-107405008D01*
X146926967Y-107403607D01*
X146867649Y-107380280D01*
X146857556Y-107374076D01*
X146837583Y-107358217D01*
X146803684Y-107327971D01*
X146758080Y-107285457D01*
X146702991Y-107232795D01*
X146640637Y-107172106D01*
X146573238Y-107105510D01*
X146509971Y-107042144D01*
X146430077Y-106961338D01*
X146365120Y-106894941D01*
X146313540Y-106841206D01*
X146273774Y-106798387D01*
X146244262Y-106764737D01*
X146223442Y-106738510D01*
X146209752Y-106717960D01*
X146201631Y-106701341D01*
X146199416Y-106694811D01*
X146193335Y-106671044D01*
X146190771Y-106648950D01*
X146193038Y-106626726D01*
X146201450Y-106602571D01*
X146217323Y-106574683D01*
X146241969Y-106541259D01*
X146276705Y-106500498D01*
X146322843Y-106450598D01*
X146381698Y-106389755D01*
X146454585Y-106316169D01*
X146531961Y-106238858D01*
X146602605Y-106168961D01*
X146669287Y-106103978D01*
X146729990Y-106045802D01*
X146782698Y-105996323D01*
X146825392Y-105957434D01*
X146856057Y-105931026D01*
X146872675Y-105918990D01*
X146873366Y-105918694D01*
X146932711Y-105906912D01*
X146989703Y-105914357D01*
X147040219Y-105938391D01*
X147080139Y-105976377D01*
X147105342Y-106025676D01*
X147112139Y-106071550D01*
X147110643Y-106097584D01*
X147104726Y-106121909D01*
X147092330Y-106147418D01*
X147071394Y-106177008D01*
X147039859Y-106213572D01*
X146995667Y-106260007D01*
X146936757Y-106319206D01*
X146934028Y-106321917D01*
X146887172Y-106368934D01*
X146846613Y-106410540D01*
X146814984Y-106443959D01*
X146794916Y-106466418D01*
X146788909Y-106474895D01*
X146800113Y-106476520D01*
X146832355Y-106478049D01*
X146883585Y-106479453D01*
X146951751Y-106480706D01*
X147034801Y-106481778D01*
X147130683Y-106482643D01*
X147237346Y-106483273D01*
X147352738Y-106483640D01*
X147444210Y-106483727D01*
X148099511Y-106483727D01*
X148359187Y-106223825D01*
X148439044Y-106144266D01*
X148504852Y-106079894D01*
X148558612Y-106029292D01*
X148602322Y-105991046D01*
X148637984Y-105963740D01*
X148667598Y-105945958D01*
X148693163Y-105936286D01*
X148716681Y-105933308D01*
X148740150Y-105935608D01*
X148759950Y-105940220D01*
X148820330Y-105965428D01*
X148861642Y-106003595D01*
X148884129Y-106055075D01*
X148888033Y-106120226D01*
X149283133Y-106120226D01*
X149265284Y-106102489D01*
X149148917Y-105986548D01*
X149028547Y-105866314D01*
X149011409Y-105849172D01*
X148110864Y-104948206D01*
X147447161Y-104948194D01*
X146783457Y-104948181D01*
X146935028Y-105101159D01*
X146983945Y-105151173D01*
X147027709Y-105197131D01*
X147063471Y-105235942D01*
X147088381Y-105264518D01*
X147099390Y-105279354D01*
X147112853Y-105329993D01*
X147106916Y-105384923D01*
X147083000Y-105438443D01*
X147049868Y-105478315D01*
X147012764Y-105499863D01*
X146963726Y-105511485D01*
X146912126Y-105512159D01*
X146867334Y-105500863D01*
X146862957Y-105498705D01*
X146847432Y-105486689D01*
X146817724Y-105460118D01*
X146775831Y-105420910D01*
X146723750Y-105370983D01*
X146663481Y-105312254D01*
X146597020Y-105246642D01*
X146526366Y-105176064D01*
X146515860Y-105165500D01*
X146435488Y-105084472D01*
X146369955Y-105017961D01*
X146317712Y-104964219D01*
X146277213Y-104921494D01*
X146246909Y-104888036D01*
X146225251Y-104862097D01*
X146210693Y-104841925D01*
X146201685Y-104825770D01*
X146196679Y-104811882D01*
X146194707Y-104802442D01*
X146195410Y-104742107D01*
X146203824Y-104714601D01*
X146215786Y-104697471D01*
X146242230Y-104666618D01*
X146280934Y-104624264D01*
X146329676Y-104572630D01*
X146386235Y-104513936D01*
X146448389Y-104450404D01*
X146513917Y-104384255D01*
X146580598Y-104317711D01*
X146646210Y-104252992D01*
X146708531Y-104192319D01*
X146765341Y-104137914D01*
X146814417Y-104091998D01*
X146853538Y-104056792D01*
X146880483Y-104034517D01*
X146890575Y-104027952D01*
X146944174Y-104014540D01*
X146999521Y-104022679D01*
X147032277Y-104036556D01*
X147081017Y-104073235D01*
X147112073Y-104122322D01*
X147123949Y-104179764D01*
X147115151Y-104241506D01*
X147111612Y-104251816D01*
X147099845Y-104270001D01*
X147074344Y-104301167D01*
X147037905Y-104342173D01*
X146993324Y-104389875D01*
X146943396Y-104441133D01*
X146941471Y-104443068D01*
X146783446Y-104601818D01*
X148205368Y-104601818D01*
X148253207Y-104627795D01*
X148268664Y-104639927D01*
X148299590Y-104667711D01*
X148345209Y-104710391D01*
X148404744Y-104767209D01*
X148477420Y-104837407D01*
X148562460Y-104920229D01*
X148659087Y-105014917D01*
X148766527Y-105120714D01*
X148884001Y-105236863D01*
X149010735Y-105362606D01*
X149145952Y-105497187D01*
X149217697Y-105568750D01*
X150134349Y-106483727D01*
X150744743Y-106483770D01*
X150879195Y-106483808D01*
X150992505Y-106483946D01*
X151086623Y-106484254D01*
X151163498Y-106484802D01*
X151225079Y-106485657D01*
X151273316Y-106486890D01*
X151310157Y-106488569D01*
X151337552Y-106490764D01*
X151357450Y-106493544D01*
X151371800Y-106496978D01*
X151382552Y-106501134D01*
X151391655Y-106506083D01*
X151392765Y-106506755D01*
X151425406Y-106533341D01*
X151452545Y-106566052D01*
X151453335Y-106567326D01*
X151473447Y-106620816D01*
X152417318Y-106620816D01*
X152417318Y-104775000D01*
X151470591Y-104775000D01*
X151463507Y-104833805D01*
X151440268Y-104879037D01*
X151397896Y-104916086D01*
X151389773Y-104921230D01*
X151380901Y-104925910D01*
X151369564Y-104929870D01*
X151353831Y-104933183D01*
X151331771Y-104935922D01*
X151301453Y-104938161D01*
X151260948Y-104939971D01*
X151208324Y-104941427D01*
X151141651Y-104942601D01*
X151058998Y-104943567D01*
X150958434Y-104944396D01*
X150838030Y-104945163D01*
X150743360Y-104945689D01*
X150131584Y-104948970D01*
X149865906Y-105213065D01*
X149787423Y-105290768D01*
X149723074Y-105353452D01*
X149670847Y-105402602D01*
X149628727Y-105439704D01*
X149594701Y-105466244D01*
X149566756Y-105483707D01*
X149542878Y-105493580D01*
X149521052Y-105497347D01*
X149499266Y-105496495D01*
X149484773Y-105494276D01*
X149447329Y-105483850D01*
X149418495Y-105471869D01*
X149377655Y-105438587D01*
X149349247Y-105388913D01*
X149341013Y-105360642D01*
X149337070Y-105338557D01*
X149336208Y-105318063D01*
X149339819Y-105297295D01*
X149349294Y-105274386D01*
X149366025Y-105247470D01*
X149391403Y-105214682D01*
X149426821Y-105174156D01*
X149473669Y-105124025D01*
X149533341Y-105062425D01*
X149607227Y-104987488D01*
X149655967Y-104938361D01*
X149725908Y-104868506D01*
X149792133Y-104803428D01*
X149852577Y-104745080D01*
X149905171Y-104695413D01*
X149947849Y-104656380D01*
X149978543Y-104629931D01*
X149995187Y-104618020D01*
X149995289Y-104617975D01*
X150007106Y-104614412D01*
X150026018Y-104611390D01*
X150053744Y-104608867D01*
X150091999Y-104606804D01*
X150142503Y-104605161D01*
X150206973Y-104603896D01*
X150287127Y-104602970D01*
X150384683Y-104602344D01*
X150501357Y-104601976D01*
X150638869Y-104601826D01*
X150686271Y-104601818D01*
X150831325Y-104601820D01*
X150955115Y-104601947D01*
X151059464Y-104602373D01*
X151146199Y-104603278D01*
X151217145Y-104604837D01*
X151274128Y-104607227D01*
X151318973Y-104610627D01*
X151353506Y-104615212D01*
X151379553Y-104621161D01*
X151398938Y-104628649D01*
X151413487Y-104637855D01*
X151425027Y-104648955D01*
X151435381Y-104662126D01*
X151444841Y-104675400D01*
X151462546Y-104709568D01*
X151469952Y-104752087D01*
X151470591Y-104775000D01*
X152417318Y-104775000D01*
X152417318Y-103937954D01*
X152386982Y-103874454D01*
X152337799Y-103792119D01*
X152276475Y-103727809D01*
X152199885Y-103678293D01*
X152194853Y-103675780D01*
X152117675Y-103637772D01*
X151072273Y-103631110D01*
X151072273Y-103031636D01*
X150864455Y-103031636D01*
X150864455Y-103597363D01*
X150172514Y-103597363D01*
X150169234Y-103314491D01*
X150165955Y-103031618D01*
X150437273Y-103031636D01*
X150437286Y-102999886D01*
X150437914Y-102979995D01*
X150439674Y-102940516D01*
X150442394Y-102884914D01*
X150445899Y-102816655D01*
X150450015Y-102739203D01*
X150453909Y-102667954D01*
X150459030Y-102573525D01*
X150464222Y-102474421D01*
X150469177Y-102376803D01*
X150473582Y-102286830D01*
X150477130Y-102210664D01*
X150478487Y-102179627D01*
X150486457Y-101991482D01*
X150551342Y-101994900D01*
X150616228Y-101998318D01*
X150623675Y-102194591D01*
X150626813Y-102274849D01*
X150630354Y-102361449D01*
X150633930Y-102445652D01*
X150637175Y-102518717D01*
X150638208Y-102540954D01*
X150641678Y-102614511D01*
X150645516Y-102695884D01*
X150649193Y-102773872D01*
X150651546Y-102823818D01*
X150654576Y-102880898D01*
X150657955Y-102933030D01*
X150661232Y-102973776D01*
X150663515Y-102994113D01*
X150669228Y-103031636D01*
X150864455Y-103031636D01*
X151072273Y-103031636D01*
X151072273Y-102824684D01*
X150965511Y-102821365D01*
X150858749Y-102818045D01*
X150856218Y-102760318D01*
X150854810Y-102730484D01*
X150852425Y-102682383D01*
X150849305Y-102620809D01*
X150845693Y-102550553D01*
X150841886Y-102477454D01*
X150837369Y-102387026D01*
X150832640Y-102285082D01*
X150828128Y-102181327D01*
X150824260Y-102085469D01*
X150822531Y-102038727D01*
X150820007Y-101969906D01*
X150817582Y-101908391D01*
X150815427Y-101858172D01*
X150813712Y-101823237D01*
X150812644Y-101807818D01*
X150808949Y-101802110D01*
X150797817Y-101797670D01*
X150776589Y-101794290D01*
X150742604Y-101791766D01*
X150693203Y-101789891D01*
X150625726Y-101788459D01*
X150548747Y-101787396D01*
X150287182Y-101784293D01*
X150286324Y-101873987D01*
X150286324Y-101873987D01*
G37*
X150286324Y-101873987D02*
X150285444Y-101920214D01*
X150283908Y-101959685D01*
X150282027Y-101984784D01*
X150281745Y-101986772D01*
X150280071Y-102005661D01*
X150277803Y-102043255D01*
X150275169Y-102095184D01*
X150272394Y-102157075D01*
X150270446Y-102205060D01*
X150267565Y-102275495D01*
X150264536Y-102343030D01*
X150261631Y-102402061D01*
X150259120Y-102446983D01*
X150257914Y-102464832D01*
X150255386Y-102502177D01*
X150252222Y-102555336D01*
X150248839Y-102617058D01*
X150245817Y-102676613D01*
X150238675Y-102823818D01*
X149963909Y-102823818D01*
X149963909Y-103632383D01*
X149357773Y-103626227D01*
X149356457Y-103227909D01*
X149355811Y-103032502D01*
X149155728Y-103032502D01*
X149155728Y-103597363D01*
X148451455Y-103597363D01*
X148451455Y-103031636D01*
X148715585Y-103031636D01*
X148721549Y-102982568D01*
X148723577Y-102958109D01*
X148726254Y-102914158D01*
X148729403Y-102854295D01*
X148732844Y-102782106D01*
X148736399Y-102701171D01*
X148739852Y-102616000D01*
X148745378Y-102475344D01*
X148750193Y-102356309D01*
X148754367Y-102257434D01*
X148757972Y-102177262D01*
X148761078Y-102114335D01*
X148763757Y-102067193D01*
X148766079Y-102034380D01*
X148768117Y-102014437D01*
X148769522Y-102006977D01*
X148783897Y-101997488D01*
X148817366Y-101992861D01*
X148831873Y-101992545D01*
X148866945Y-101993848D01*
X148885393Y-101999508D01*
X148893614Y-102012149D01*
X148895222Y-102018522D01*
X148897312Y-102037759D01*
X148900145Y-102078235D01*
X148903634Y-102138116D01*
X148907690Y-102215565D01*
X148912223Y-102308747D01*
X148917144Y-102415826D01*
X148922366Y-102534966D01*
X148927799Y-102664332D01*
X148933355Y-102802087D01*
X148934438Y-102829591D01*
X148942137Y-103025863D01*
X149048932Y-103029183D01*
X149155728Y-103032502D01*
X149355811Y-103032502D01*
X149355140Y-102829591D01*
X149249773Y-102826272D01*
X149199860Y-102824304D01*
X149168419Y-102821419D01*
X149150835Y-102816412D01*
X149142490Y-102808077D01*
X149139201Y-102797409D01*
X149137126Y-102777797D01*
X149134636Y-102739444D01*
X149131956Y-102686692D01*
X149129311Y-102623882D01*
X149127388Y-102569818D01*
X149124923Y-102499078D01*
X149121865Y-102418544D01*
X149118366Y-102331630D01*
X149114582Y-102241752D01*
X149110667Y-102152323D01*
X149106774Y-102066758D01*
X149103059Y-101988472D01*
X149099674Y-101920880D01*
X149096775Y-101867395D01*
X149094516Y-101831433D01*
X149093496Y-101819363D01*
X149090300Y-101790500D01*
X148835225Y-101787395D01*
X148751883Y-101786502D01*
X148688751Y-101786248D01*
X148642953Y-101786825D01*
X148611613Y-101788423D01*
X148591855Y-101791233D01*
X148580802Y-101795446D01*
X148575578Y-101801253D01*
X148574282Y-101804713D01*
X148571859Y-101822850D01*
X148568991Y-101859616D01*
X148565958Y-101910559D01*
X148563036Y-101971227D01*
X148561473Y-102009863D01*
X148558743Y-102077396D01*
X148555826Y-102140931D01*
X148552996Y-102195021D01*
X148550530Y-102234213D01*
X148549517Y-102246545D01*
X148547662Y-102273848D01*
X148545402Y-102319829D01*
X148542915Y-102380085D01*
X148540382Y-102450210D01*
X148537981Y-102525800D01*
X148537539Y-102540954D01*
X148535191Y-102614524D01*
X148532620Y-102681070D01*
X148530008Y-102736837D01*
X148527537Y-102778068D01*
X148525387Y-102801007D01*
X148524875Y-102803613D01*
X148519987Y-102812258D01*
X148508502Y-102818048D01*
X148486498Y-102821534D01*
X148450054Y-102823270D01*
X148395249Y-102823806D01*
X148381404Y-102823818D01*
X148243637Y-102823818D01*
X148243637Y-103632000D01*
X147574000Y-103632000D01*
X147574000Y-103031636D01*
X147366182Y-103031636D01*
X147366182Y-103597363D01*
X146661909Y-103597363D01*
X146661909Y-103031636D01*
X146936040Y-103031636D01*
X146943580Y-102867113D01*
X146948305Y-102766055D01*
X146953282Y-102663253D01*
X146958333Y-102562082D01*
X146963281Y-102465915D01*
X146967949Y-102378126D01*
X146972159Y-102302089D01*
X146975734Y-102241177D01*
X146978497Y-102198764D01*
X146979247Y-102188818D01*
X146982366Y-102137904D01*
X146984401Y-102081949D01*
X146984766Y-102058931D01*
X146985182Y-101992545D01*
X147048682Y-101992545D01*
X147085225Y-101993433D01*
X147104375Y-101997625D01*
X147111807Y-102007410D01*
X147113065Y-102018522D01*
X147115236Y-102047551D01*
X147117243Y-102061818D01*
X147118717Y-102078530D01*
X147120782Y-102114264D01*
X147123240Y-102164964D01*
X147125894Y-102226575D01*
X147128246Y-102286954D01*
X147132594Y-102400338D01*
X147137115Y-102511242D01*
X147141689Y-102617223D01*
X147146195Y-102715839D01*
X147150512Y-102804650D01*
X147154520Y-102881212D01*
X147158098Y-102943084D01*
X147161127Y-102987824D01*
X147163485Y-103012990D01*
X147164269Y-103017204D01*
X147176575Y-103025176D01*
X147208080Y-103029899D01*
X147260550Y-103031619D01*
X147267683Y-103031636D01*
X147366182Y-103031636D01*
X147574000Y-103031636D01*
X147574000Y-102824684D01*
X147467205Y-102821365D01*
X147360409Y-102818045D01*
X147353331Y-102714136D01*
X147348293Y-102631790D01*
X147342868Y-102527145D01*
X147337092Y-102400989D01*
X147331001Y-102254108D01*
X147324630Y-102087293D01*
X147324330Y-102079136D01*
X147321700Y-102011251D01*
X147319090Y-101950687D01*
X147316697Y-101901501D01*
X147314716Y-101867746D01*
X147313463Y-101854000D01*
X147310400Y-101828331D01*
X147309338Y-101810704D01*
X147308455Y-101784727D01*
X146788909Y-101784727D01*
X146788909Y-101817343D01*
X146788315Y-101837252D01*
X146786639Y-101876855D01*
X146784041Y-101932789D01*
X146780683Y-102001690D01*
X146776725Y-102080195D01*
X146772326Y-102164941D01*
X146772239Y-102166593D01*
X146767309Y-102261250D01*
X146762328Y-102358690D01*
X146757570Y-102453431D01*
X146753309Y-102539990D01*
X146749818Y-102612887D01*
X146747948Y-102653522D01*
X146740327Y-102823818D01*
X146604217Y-102823818D01*
X146540385Y-102824623D01*
X146497201Y-102827203D01*
X146472272Y-102831802D01*
X146463326Y-102838250D01*
X146462205Y-102852883D01*
X146461217Y-102887802D01*
X146460390Y-102940202D01*
X146459754Y-103007278D01*
X146459338Y-103086224D01*
X146459169Y-103174235D01*
X146459213Y-103239454D01*
X146459882Y-103626227D01*
X146003827Y-103632000D01*
X145547773Y-103637772D01*
X145478500Y-103670185D01*
X145405554Y-103715465D01*
X145341178Y-103776781D01*
X145291225Y-103848014D01*
X145274131Y-103883826D01*
X145247591Y-103949500D01*
X145247591Y-107390045D01*
X145285024Y-107466552D01*
X145335702Y-107547154D01*
X145401499Y-107611120D01*
X145482887Y-107659803D01*
X145547773Y-107690227D01*
X146003818Y-107696000D01*
X146459864Y-107701772D01*
X146459864Y-108498409D01*
X146601296Y-108501650D01*
X146742728Y-108504892D01*
X146742944Y-108547832D01*
X146743124Y-108562692D01*
X146743593Y-108581072D01*
X146744454Y-108605086D01*
X146745810Y-108636845D01*
X146747763Y-108678462D01*
X146750417Y-108732048D01*
X146753875Y-108799715D01*
X146758238Y-108883577D01*
X146763611Y-108985744D01*
X146770096Y-109108329D01*
X146771901Y-109142382D01*
X146776379Y-109228229D01*
X146780415Y-109308338D01*
X146783848Y-109379272D01*
X146786516Y-109437599D01*
X146788257Y-109479883D01*
X146788908Y-109502691D01*
X146788909Y-109503177D01*
X146788909Y-109543272D01*
X147306617Y-109543272D01*
X147313208Y-109471113D01*
X147315343Y-109440871D01*
X147318103Y-109391255D01*
X147321315Y-109325971D01*
X147324806Y-109248723D01*
X147328403Y-109163214D01*
X147331933Y-109073149D01*
X147332487Y-109058363D01*
X147336065Y-108965820D01*
X147339804Y-108875348D01*
X147343514Y-108791071D01*
X147347008Y-108717111D01*
X147350097Y-108657591D01*
X147352594Y-108616635D01*
X147352793Y-108613863D01*
X147360409Y-108509954D01*
X147467205Y-108506635D01*
X147574000Y-108503315D01*
X147574000Y-107730636D01*
X147366182Y-107730636D01*
X147366182Y-108296363D01*
X147267683Y-108296363D01*
X147213033Y-108297744D01*
X147179474Y-108302060D01*
X147165164Y-108309569D01*
X147164620Y-108310795D01*
X147161907Y-108327842D01*
X147158830Y-108363386D01*
X147155352Y-108418164D01*
X147151433Y-108492912D01*
X147147037Y-108588367D01*
X147142126Y-108705263D01*
X147136661Y-108844338D01*
X147135326Y-108879409D01*
X147131894Y-108966308D01*
X147128341Y-109049471D01*
X147124858Y-109124936D01*
X147121635Y-109188741D01*
X147118860Y-109236924D01*
X147116937Y-109263295D01*
X147110344Y-109335454D01*
X146985182Y-109335454D01*
X146985158Y-109292159D01*
X146984546Y-109269211D01*
X146982834Y-109226750D01*
X146980187Y-109168318D01*
X146976771Y-109097460D01*
X146972753Y-109017717D01*
X146968538Y-108937136D01*
X146963590Y-108843445D01*
X146958579Y-108747241D01*
X146953786Y-108653991D01*
X146949490Y-108569165D01*
X146945971Y-108498228D01*
X146944173Y-108460886D01*
X146936404Y-108296363D01*
X146661909Y-108296363D01*
X146661909Y-107730636D01*
X147366182Y-107730636D01*
X147574000Y-107730636D01*
X147574000Y-107696000D01*
X148243637Y-107696000D01*
X148243637Y-108504181D01*
X148381962Y-108504181D01*
X148440373Y-108504370D01*
X148479689Y-108505420D01*
X148503906Y-108508052D01*
X148517021Y-108512993D01*
X148523028Y-108520964D01*
X148525432Y-108530159D01*
X148527007Y-108547086D01*
X148529340Y-108584482D01*
X148532306Y-108639738D01*
X148535777Y-108710250D01*
X148539626Y-108793411D01*
X148543727Y-108886614D01*
X148547953Y-108987254D01*
X148549474Y-109024635D01*
X148553664Y-109127122D01*
X148557691Y-109222953D01*
X148561438Y-109309547D01*
X148564788Y-109384326D01*
X148567626Y-109444712D01*
X148569834Y-109488124D01*
X148571296Y-109511984D01*
X148571621Y-109515317D01*
X148573837Y-109522555D01*
X148579992Y-109528082D01*
X148592947Y-109532177D01*
X148615562Y-109535119D01*
X148650696Y-109537189D01*
X148701210Y-109538666D01*
X148769964Y-109539831D01*
X148830098Y-109540605D01*
X149085326Y-109543711D01*
X149091107Y-109505969D01*
X149094123Y-109481398D01*
X149097174Y-109446041D01*
X149100348Y-109398153D01*
X149103734Y-109335989D01*
X149107418Y-109257806D01*
X149111488Y-109161859D01*
X149116031Y-109046403D01*
X149121136Y-108909695D01*
X149121399Y-108902500D01*
X149124766Y-108814211D01*
X149128151Y-108732485D01*
X149131404Y-108660432D01*
X149134374Y-108601160D01*
X149136913Y-108557777D01*
X149138871Y-108533392D01*
X149139339Y-108530159D01*
X149143299Y-108517755D01*
X149152151Y-108510090D01*
X149170597Y-108506029D01*
X149203341Y-108504438D01*
X149247076Y-108504181D01*
X149302597Y-108502905D01*
X149337163Y-108498894D01*
X149352780Y-108491878D01*
X149353922Y-108489750D01*
X149354957Y-108475127D01*
X149355889Y-108440208D01*
X149356688Y-108387785D01*
X149357327Y-108320652D01*
X149357776Y-108241603D01*
X149358008Y-108153432D01*
X149358025Y-108085659D01*
X149357762Y-107730636D01*
X149155728Y-107730636D01*
X149155728Y-108295497D01*
X149048932Y-108298816D01*
X148942137Y-108302136D01*
X148939687Y-108359863D01*
X148938548Y-108387182D01*
X148936630Y-108433719D01*
X148934091Y-108495619D01*
X148931089Y-108569028D01*
X148927783Y-108650091D01*
X148925027Y-108717772D01*
X148919562Y-108851061D01*
X148914860Y-108963112D01*
X148910827Y-109055763D01*
X148907370Y-109130850D01*
X148904397Y-109190212D01*
X148901813Y-109235685D01*
X148899524Y-109269108D01*
X148897439Y-109292317D01*
X148895462Y-109307149D01*
X148894913Y-109310067D01*
X148889491Y-109325535D01*
X148877371Y-109332846D01*
X148852253Y-109334216D01*
X148829200Y-109333158D01*
X148768955Y-109329681D01*
X148761604Y-109196909D01*
X148759165Y-109149486D01*
X148756043Y-109083588D01*
X148752441Y-109003813D01*
X148748564Y-108914759D01*
X148744615Y-108821024D01*
X148740882Y-108729318D01*
X148737335Y-108641247D01*
X148733951Y-108558601D01*
X148730873Y-108484798D01*
X148728245Y-108423257D01*
X148726213Y-108377396D01*
X148724921Y-108350633D01*
X148724790Y-108348318D01*
X148722068Y-108302136D01*
X148586762Y-108298883D01*
X148451455Y-108295630D01*
X148451455Y-107730636D01*
X149155728Y-107730636D01*
X149357762Y-107730636D01*
X149357736Y-107696000D01*
X149963909Y-107696000D01*
X149963909Y-108504181D01*
X150102455Y-108504181D01*
X150161274Y-108504492D01*
X150200767Y-108505791D01*
X150224694Y-108508624D01*
X150236815Y-108513541D01*
X150240890Y-108521089D01*
X150241111Y-108524386D01*
X150241771Y-108546050D01*
X150243489Y-108586488D01*
X150246044Y-108641416D01*
X150249219Y-108706552D01*
X150252794Y-108777614D01*
X150256550Y-108850320D01*
X150260270Y-108920387D01*
X150263733Y-108983532D01*
X150266721Y-109035473D01*
X150269016Y-109071928D01*
X150269279Y-109075681D01*
X150271747Y-109115621D01*
X150274744Y-109172444D01*
X150277970Y-109239959D01*
X150281121Y-109311973D01*
X150282660Y-109349886D01*
X150290269Y-109543272D01*
X150806288Y-109543272D01*
X150811548Y-109517295D01*
X150813632Y-109497534D01*
X150816113Y-109459043D01*
X150818766Y-109406175D01*
X150821369Y-109343284D01*
X150823245Y-109289272D01*
X150826113Y-109205377D01*
X150829542Y-109115053D01*
X150833382Y-109021429D01*
X150837480Y-108927630D01*
X150841687Y-108836783D01*
X150845851Y-108752016D01*
X150849822Y-108676453D01*
X150853447Y-108613224D01*
X150856577Y-108565453D01*
X150859060Y-108536268D01*
X150859902Y-108530159D01*
X150863679Y-108517817D01*
X150872328Y-108510163D01*
X150890509Y-108506081D01*
X150922881Y-108504459D01*
X150968584Y-108504181D01*
X151072273Y-108504181D01*
X151072273Y-107730636D01*
X150864455Y-107730636D01*
X150864455Y-108296363D01*
X150766538Y-108296363D01*
X150718838Y-108296765D01*
X150689409Y-108298777D01*
X150673433Y-108303615D01*
X150666095Y-108312491D01*
X150663399Y-108322341D01*
X150661240Y-108342148D01*
X150658384Y-108382013D01*
X150654976Y-108438920D01*
X150651160Y-108509851D01*
X150647081Y-108591788D01*
X150642883Y-108681716D01*
X150638709Y-108776616D01*
X150634705Y-108873471D01*
X150631014Y-108969265D01*
X150627781Y-109060980D01*
X150627109Y-109081454D01*
X150624488Y-109164315D01*
X150622104Y-109226935D01*
X150619065Y-109272135D01*
X150614477Y-109302738D01*
X150607449Y-109321565D01*
X150597086Y-109331438D01*
X150582497Y-109335180D01*
X150562787Y-109335612D01*
X150546735Y-109335454D01*
X150483455Y-109335454D01*
X150482597Y-109251750D01*
X150481670Y-109206867D01*
X150480053Y-109168718D01*
X150478091Y-109145356D01*
X150478028Y-109144954D01*
X150476354Y-109125974D01*
X150474114Y-109088358D01*
X150471535Y-109036547D01*
X150468843Y-108974981D01*
X150467122Y-108931363D01*
X150463647Y-108846992D01*
X150459246Y-108751410D01*
X150454443Y-108655395D01*
X150449758Y-108569726D01*
X150448962Y-108556136D01*
X150445160Y-108490144D01*
X150441882Y-108429581D01*
X150439381Y-108379416D01*
X150437912Y-108344618D01*
X150437635Y-108333886D01*
X150437273Y-108296363D01*
X150171728Y-108296363D01*
X150171728Y-107730636D01*
X150864455Y-107730636D01*
X151072273Y-107730636D01*
X151072273Y-107696889D01*
X152117137Y-107690227D01*
X152186409Y-107657814D01*
X152259356Y-107612534D01*
X152323731Y-107551218D01*
X152373685Y-107479985D01*
X152390778Y-107444173D01*
X152417318Y-107378500D01*
X152417318Y-106620816D01*
X151473447Y-106620816D01*
X151473383Y-106677079D01*
X151454574Y-106730733D01*
X151418447Y-106776395D01*
X151392765Y-106795517D01*
X151384138Y-106800353D01*
X151374155Y-106804458D01*
X151360966Y-106807892D01*
X151342722Y-106810714D01*
X151317573Y-106812984D01*
X151283669Y-106814764D01*
X151239160Y-106816112D01*
X151182198Y-106817088D01*
X151110932Y-106817754D01*
X151023513Y-106818168D01*
X150918090Y-106818391D01*
X150792816Y-106818483D01*
X150684593Y-106818502D01*
X150014050Y-106818545D01*
X149963002Y-106784341D01*
X149948106Y-106771693D01*
X149918037Y-106743776D01*
X149873911Y-106701688D01*
X149816847Y-106646527D01*
X149747961Y-106579391D01*
X149668369Y-106501376D01*
X149579188Y-106413581D01*
X149481536Y-106317103D01*
X149376529Y-106213040D01*
X149283133Y-106120226D01*
X148888033Y-106120226D01*
X148887442Y-106127178D01*
X148881790Y-106185999D01*
X148582918Y-106485718D01*
X148513512Y-106554928D01*
X148448107Y-106619399D01*
X148388749Y-106677172D01*
X148337482Y-106726287D01*
X148296350Y-106764785D01*
X148267399Y-106790706D01*
X148252869Y-106801991D01*
X148243264Y-106805458D01*
X148227392Y-106808422D01*
X148203596Y-106810920D01*
X148170219Y-106812990D01*
X148125602Y-106814667D01*
X148068087Y-106815988D01*
X147996018Y-106816990D01*
X147907735Y-106817710D01*
X147801582Y-106818184D01*
X147675900Y-106818450D01*
X147529031Y-106818544D01*
X147505301Y-106818545D01*
X147379043Y-106818693D01*
X147259878Y-106819119D01*
X147149770Y-106819797D01*
X147050679Y-106820702D01*
X146964569Y-106821807D01*
X146893401Y-106823087D01*
X146839138Y-106824516D01*
X146803743Y-106826069D01*
X146789177Y-106827719D01*
X146788909Y-106827977D01*
X146796787Y-106838639D01*
X146818713Y-106862681D01*
X146852127Y-106897441D01*
X146894469Y-106940258D01*
X146943177Y-106988471D01*
X146945483Y-106990730D01*
X146995479Y-107040606D01*
X147040049Y-107086807D01*
X147076366Y-107126260D01*
X147101601Y-107155894D01*
X147112892Y-107172549D01*
X147123973Y-107232038D01*
X147114412Y-107290807D01*
X147086134Y-107343249D01*
X147041064Y-107383760D01*
X147040129Y-107384335D01*
X146985348Y-107405008D01*
X146926967Y-107403607D01*
X146867649Y-107380280D01*
X146857556Y-107374076D01*
X146837583Y-107358217D01*
X146803684Y-107327971D01*
X146758080Y-107285457D01*
X146702991Y-107232795D01*
X146640637Y-107172106D01*
X146573238Y-107105510D01*
X146509971Y-107042144D01*
X146430077Y-106961338D01*
X146365120Y-106894941D01*
X146313540Y-106841206D01*
X146273774Y-106798387D01*
X146244262Y-106764737D01*
X146223442Y-106738510D01*
X146209752Y-106717960D01*
X146201631Y-106701341D01*
X146199416Y-106694811D01*
X146193335Y-106671044D01*
X146190771Y-106648950D01*
X146193038Y-106626726D01*
X146201450Y-106602571D01*
X146217323Y-106574683D01*
X146241969Y-106541259D01*
X146276705Y-106500498D01*
X146322843Y-106450598D01*
X146381698Y-106389755D01*
X146454585Y-106316169D01*
X146531961Y-106238858D01*
X146602605Y-106168961D01*
X146669287Y-106103978D01*
X146729990Y-106045802D01*
X146782698Y-105996323D01*
X146825392Y-105957434D01*
X146856057Y-105931026D01*
X146872675Y-105918990D01*
X146873366Y-105918694D01*
X146932711Y-105906912D01*
X146989703Y-105914357D01*
X147040219Y-105938391D01*
X147080139Y-105976377D01*
X147105342Y-106025676D01*
X147112139Y-106071550D01*
X147110643Y-106097584D01*
X147104726Y-106121909D01*
X147092330Y-106147418D01*
X147071394Y-106177008D01*
X147039859Y-106213572D01*
X146995667Y-106260007D01*
X146936757Y-106319206D01*
X146934028Y-106321917D01*
X146887172Y-106368934D01*
X146846613Y-106410540D01*
X146814984Y-106443959D01*
X146794916Y-106466418D01*
X146788909Y-106474895D01*
X146800113Y-106476520D01*
X146832355Y-106478049D01*
X146883585Y-106479453D01*
X146951751Y-106480706D01*
X147034801Y-106481778D01*
X147130683Y-106482643D01*
X147237346Y-106483273D01*
X147352738Y-106483640D01*
X147444210Y-106483727D01*
X148099511Y-106483727D01*
X148359187Y-106223825D01*
X148439044Y-106144266D01*
X148504852Y-106079894D01*
X148558612Y-106029292D01*
X148602322Y-105991046D01*
X148637984Y-105963740D01*
X148667598Y-105945958D01*
X148693163Y-105936286D01*
X148716681Y-105933308D01*
X148740150Y-105935608D01*
X148759950Y-105940220D01*
X148820330Y-105965428D01*
X148861642Y-106003595D01*
X148884129Y-106055075D01*
X148888033Y-106120226D01*
X149283133Y-106120226D01*
X149265284Y-106102489D01*
X149148917Y-105986548D01*
X149028547Y-105866314D01*
X149011409Y-105849172D01*
X148110864Y-104948206D01*
X147447161Y-104948194D01*
X146783457Y-104948181D01*
X146935028Y-105101159D01*
X146983945Y-105151173D01*
X147027709Y-105197131D01*
X147063471Y-105235942D01*
X147088381Y-105264518D01*
X147099390Y-105279354D01*
X147112853Y-105329993D01*
X147106916Y-105384923D01*
X147083000Y-105438443D01*
X147049868Y-105478315D01*
X147012764Y-105499863D01*
X146963726Y-105511485D01*
X146912126Y-105512159D01*
X146867334Y-105500863D01*
X146862957Y-105498705D01*
X146847432Y-105486689D01*
X146817724Y-105460118D01*
X146775831Y-105420910D01*
X146723750Y-105370983D01*
X146663481Y-105312254D01*
X146597020Y-105246642D01*
X146526366Y-105176064D01*
X146515860Y-105165500D01*
X146435488Y-105084472D01*
X146369955Y-105017961D01*
X146317712Y-104964219D01*
X146277213Y-104921494D01*
X146246909Y-104888036D01*
X146225251Y-104862097D01*
X146210693Y-104841925D01*
X146201685Y-104825770D01*
X146196679Y-104811882D01*
X146194707Y-104802442D01*
X146195410Y-104742107D01*
X146203824Y-104714601D01*
X146215786Y-104697471D01*
X146242230Y-104666618D01*
X146280934Y-104624264D01*
X146329676Y-104572630D01*
X146386235Y-104513936D01*
X146448389Y-104450404D01*
X146513917Y-104384255D01*
X146580598Y-104317711D01*
X146646210Y-104252992D01*
X146708531Y-104192319D01*
X146765341Y-104137914D01*
X146814417Y-104091998D01*
X146853538Y-104056792D01*
X146880483Y-104034517D01*
X146890575Y-104027952D01*
X146944174Y-104014540D01*
X146999521Y-104022679D01*
X147032277Y-104036556D01*
X147081017Y-104073235D01*
X147112073Y-104122322D01*
X147123949Y-104179764D01*
X147115151Y-104241506D01*
X147111612Y-104251816D01*
X147099845Y-104270001D01*
X147074344Y-104301167D01*
X147037905Y-104342173D01*
X146993324Y-104389875D01*
X146943396Y-104441133D01*
X146941471Y-104443068D01*
X146783446Y-104601818D01*
X148205368Y-104601818D01*
X148253207Y-104627795D01*
X148268664Y-104639927D01*
X148299590Y-104667711D01*
X148345209Y-104710391D01*
X148404744Y-104767209D01*
X148477420Y-104837407D01*
X148562460Y-104920229D01*
X148659087Y-105014917D01*
X148766527Y-105120714D01*
X148884001Y-105236863D01*
X149010735Y-105362606D01*
X149145952Y-105497187D01*
X149217697Y-105568750D01*
X150134349Y-106483727D01*
X150744743Y-106483770D01*
X150879195Y-106483808D01*
X150992505Y-106483946D01*
X151086623Y-106484254D01*
X151163498Y-106484802D01*
X151225079Y-106485657D01*
X151273316Y-106486890D01*
X151310157Y-106488569D01*
X151337552Y-106490764D01*
X151357450Y-106493544D01*
X151371800Y-106496978D01*
X151382552Y-106501134D01*
X151391655Y-106506083D01*
X151392765Y-106506755D01*
X151425406Y-106533341D01*
X151452545Y-106566052D01*
X151453335Y-106567326D01*
X151473447Y-106620816D01*
X152417318Y-106620816D01*
X152417318Y-104775000D01*
X151470591Y-104775000D01*
X151463507Y-104833805D01*
X151440268Y-104879037D01*
X151397896Y-104916086D01*
X151389773Y-104921230D01*
X151380901Y-104925910D01*
X151369564Y-104929870D01*
X151353831Y-104933183D01*
X151331771Y-104935922D01*
X151301453Y-104938161D01*
X151260948Y-104939971D01*
X151208324Y-104941427D01*
X151141651Y-104942601D01*
X151058998Y-104943567D01*
X150958434Y-104944396D01*
X150838030Y-104945163D01*
X150743360Y-104945689D01*
X150131584Y-104948970D01*
X149865906Y-105213065D01*
X149787423Y-105290768D01*
X149723074Y-105353452D01*
X149670847Y-105402602D01*
X149628727Y-105439704D01*
X149594701Y-105466244D01*
X149566756Y-105483707D01*
X149542878Y-105493580D01*
X149521052Y-105497347D01*
X149499266Y-105496495D01*
X149484773Y-105494276D01*
X149447329Y-105483850D01*
X149418495Y-105471869D01*
X149377655Y-105438587D01*
X149349247Y-105388913D01*
X149341013Y-105360642D01*
X149337070Y-105338557D01*
X149336208Y-105318063D01*
X149339819Y-105297295D01*
X149349294Y-105274386D01*
X149366025Y-105247470D01*
X149391403Y-105214682D01*
X149426821Y-105174156D01*
X149473669Y-105124025D01*
X149533341Y-105062425D01*
X149607227Y-104987488D01*
X149655967Y-104938361D01*
X149725908Y-104868506D01*
X149792133Y-104803428D01*
X149852577Y-104745080D01*
X149905171Y-104695413D01*
X149947849Y-104656380D01*
X149978543Y-104629931D01*
X149995187Y-104618020D01*
X149995289Y-104617975D01*
X150007106Y-104614412D01*
X150026018Y-104611390D01*
X150053744Y-104608867D01*
X150091999Y-104606804D01*
X150142503Y-104605161D01*
X150206973Y-104603896D01*
X150287127Y-104602970D01*
X150384683Y-104602344D01*
X150501357Y-104601976D01*
X150638869Y-104601826D01*
X150686271Y-104601818D01*
X150831325Y-104601820D01*
X150955115Y-104601947D01*
X151059464Y-104602373D01*
X151146199Y-104603278D01*
X151217145Y-104604837D01*
X151274128Y-104607227D01*
X151318973Y-104610627D01*
X151353506Y-104615212D01*
X151379553Y-104621161D01*
X151398938Y-104628649D01*
X151413487Y-104637855D01*
X151425027Y-104648955D01*
X151435381Y-104662126D01*
X151444841Y-104675400D01*
X151462546Y-104709568D01*
X151469952Y-104752087D01*
X151470591Y-104775000D01*
X152417318Y-104775000D01*
X152417318Y-103937954D01*
X152386982Y-103874454D01*
X152337799Y-103792119D01*
X152276475Y-103727809D01*
X152199885Y-103678293D01*
X152194853Y-103675780D01*
X152117675Y-103637772D01*
X151072273Y-103631110D01*
X151072273Y-103031636D01*
X150864455Y-103031636D01*
X150864455Y-103597363D01*
X150172514Y-103597363D01*
X150169234Y-103314491D01*
X150165955Y-103031618D01*
X150437273Y-103031636D01*
X150437286Y-102999886D01*
X150437914Y-102979995D01*
X150439674Y-102940516D01*
X150442394Y-102884914D01*
X150445899Y-102816655D01*
X150450015Y-102739203D01*
X150453909Y-102667954D01*
X150459030Y-102573525D01*
X150464222Y-102474421D01*
X150469177Y-102376803D01*
X150473582Y-102286830D01*
X150477130Y-102210664D01*
X150478487Y-102179627D01*
X150486457Y-101991482D01*
X150551342Y-101994900D01*
X150616228Y-101998318D01*
X150623675Y-102194591D01*
X150626813Y-102274849D01*
X150630354Y-102361449D01*
X150633930Y-102445652D01*
X150637175Y-102518717D01*
X150638208Y-102540954D01*
X150641678Y-102614511D01*
X150645516Y-102695884D01*
X150649193Y-102773872D01*
X150651546Y-102823818D01*
X150654576Y-102880898D01*
X150657955Y-102933030D01*
X150661232Y-102973776D01*
X150663515Y-102994113D01*
X150669228Y-103031636D01*
X150864455Y-103031636D01*
X151072273Y-103031636D01*
X151072273Y-102824684D01*
X150965511Y-102821365D01*
X150858749Y-102818045D01*
X150856218Y-102760318D01*
X150854810Y-102730484D01*
X150852425Y-102682383D01*
X150849305Y-102620809D01*
X150845693Y-102550553D01*
X150841886Y-102477454D01*
X150837369Y-102387026D01*
X150832640Y-102285082D01*
X150828128Y-102181327D01*
X150824260Y-102085469D01*
X150822531Y-102038727D01*
X150820007Y-101969906D01*
X150817582Y-101908391D01*
X150815427Y-101858172D01*
X150813712Y-101823237D01*
X150812644Y-101807818D01*
X150808949Y-101802110D01*
X150797817Y-101797670D01*
X150776589Y-101794290D01*
X150742604Y-101791766D01*
X150693203Y-101789891D01*
X150625726Y-101788459D01*
X150548747Y-101787396D01*
X150287182Y-101784293D01*
X150286324Y-101873987D01*
%LPC*%
D14*
X155000000Y-99800000D03*
D15*
X152460000Y-99800000D03*
D14*
X142200000Y-99800000D03*
D15*
X144740000Y-99800000D03*
X147280000Y-99800000D03*
D14*
X147000000Y-90200000D03*
D15*
X149540000Y-90200000D03*
X152080000Y-90200000D03*
D16*
X143600000Y-116800000D03*
D17*
X148680000Y-116800000D03*
X153760000Y-116800000D03*
D18*
X137071100Y-94843600D03*
X137071100Y-97383600D03*
X137071100Y-99923600D03*
X137071100Y-102463600D03*
X137071100Y-105003600D03*
X137071100Y-107543600D03*
X137071100Y-110083600D03*
X137071100Y-112623600D03*
X159931100Y-112623600D03*
X159931100Y-110083600D03*
X159931100Y-107543600D03*
X159931100Y-105003600D03*
X159931100Y-102463600D03*
X159931100Y-99923600D03*
X159931100Y-97383600D03*
X159931100Y-94843600D03*
M02*
